<?xml version="1.0" standalone="no"?><svg xmlns="http://www.w3.org/2000/svg" viewBox="0 0 1440 320"><path fill="#f3f4f5" fill-opacity="1" d="M0,160L24,154.7C48,149,96,139,144,128C192,117,240,107,288,117.3C336,128,384,160,432,186.7C480,213,528,235,576,218.7C624,203,672,149,720,154.7C768,160,816,224,864,234.7C912,245,960,203,1008,176C1056,149,1104,139,1152,138.7C1200,139,1248,149,1296,170.7C1344,192,1392,224,1416,240L1440,256L1440,320L1416,320C1392,320,1344,320,1296,320C1248,320,1200,320,1152,320C1104,320,1056,320,1008,320C960,320,912,320,864,320C816,320,768,320,720,320C672,320,624,320,576,320C528,320,480,320,432,320C384,320,336,320,288,320C240,320,192,320,144,320C96,320,48,320,24,320L0,320Z"></path></svg>