<?xml version="1.0" encoding="utf-8"?>
<!-- Generator: Adobe Illustrator 23.0.1, SVG Export Plug-In . SVG Version: 6.00 Build 0)  -->
<svg version="1.1" id="Layer_1" xmlns="http://www.w3.org/2000/svg" xmlns:xlink="http://www.w3.org/1999/xlink" x="0px" y="0px"
	 viewBox="0 0 70 70" style="enable-background:new 0 0 70 70;" xml:space="preserve">
<g transform="translate(1 1)">
	<g>
		<g>
			<path d="M64.66,10.15H3.34c-1.93,0-3.41,1.48-3.41,3.41v22.71c0,1.93,1.48,3.41,3.41,3.41h61.32c1.93,0,3.41-1.48,3.41-3.41
				V13.56C68.06,11.63,66.59,10.15,64.66,10.15z M65.79,36.27c0,0.68-0.45,1.14-1.14,1.14H3.34c-0.68,0-1.14-0.45-1.14-1.14V13.56
				c0-0.68,0.57-1.14,1.14-1.14h61.32c0.68,0,1.14,0.45,1.14,1.14L65.79,36.27L65.79,36.27z"/>
			<path d="M29.46,20.37h9.08c0.68,0,1.14-0.45,1.14-1.14c0-0.68-0.45-1.14-1.14-1.14h-9.08c-0.68,0-1.14,0.45-1.14,1.14
				C28.32,19.92,28.78,20.37,29.46,20.37z"/>
			<path d="M62.39,32.86H5.61c-0.68,0-1.14,0.45-1.14,1.14s0.45,1.14,1.14,1.14h56.77c0.68,0,1.14-0.45,1.14-1.14
				S63.07,32.86,62.39,32.86z"/>
			<path d="M62.39,28.32H5.61c-0.68,0-1.14,0.45-1.14,1.14s0.45,1.14,1.14,1.14h56.77c0.68,0,1.14-0.45,1.14-1.14
				S63.07,28.32,62.39,28.32z"/>
			<path d="M34.57,47.74c-1.14-0.57-1.7-1.25-1.7-1.82s0.68-1.25,1.59-1.93c0.57-0.23,0.68-0.91,0.45-1.48
				c-0.23-0.57-0.91-0.79-1.48-0.45c-1.82,1.02-2.84,2.38-2.84,3.86c0,1.48,1.02,2.84,2.84,3.97c1.14,0.57,1.7,1.25,1.7,1.82
				s-0.68,1.25-1.7,1.82c-0.57,0.23-0.79,0.91-0.45,1.48c0.23,0.34,0.57,0.57,1.02,0.57c0.23,0,0.34,0,0.57-0.11
				c1.82-1.02,2.84-2.38,2.84-3.86C37.41,50.12,36.38,48.65,34.57,47.74z"/>
			<path d="M22.08,50.01c-1.14-0.57-1.7-1.25-1.7-1.82s0.68-1.25,1.59-1.93c0.57-0.23,0.79-0.91,0.45-1.48
				c-0.23-0.57-0.91-0.79-1.48-0.45c-1.82,1.02-2.84,2.38-2.84,3.86c0,1.48,1.02,2.84,2.84,3.97c1.14,0.57,1.7,1.25,1.7,1.82
				s-0.68,1.25-1.7,1.82c-0.57,0.23-0.79,0.91-0.45,1.48c0.23,0.34,0.57,0.57,1.02,0.57c0.23,0,0.34,0,0.57-0.11
				c1.82-1.02,2.84-2.38,2.84-3.86C24.92,52.4,23.89,50.92,22.08,50.01z"/>
			<path d="M47.06,50.01c-1.14-0.57-1.7-1.25-1.7-1.82s0.68-1.25,1.59-1.93c0.57-0.23,0.68-0.91,0.45-1.48
				c-0.23-0.57-0.91-0.79-1.48-0.45c-1.82,1.02-2.84,2.38-2.84,3.86c0,1.48,1.02,2.84,2.84,3.97c1.14,0.57,1.7,1.25,1.7,1.82
				s-0.68,1.25-1.7,1.82c-0.57,0.23-0.79,0.91-0.45,1.48c0.23,0.34,0.57,0.57,1.02,0.57c0.23,0,0.34,0,0.57-0.11
				c1.82-1.02,2.84-2.38,2.84-3.86C49.9,52.4,48.87,50.92,47.06,50.01z"/>
		</g>
	</g>
</g>
</svg>
