<svg id="Layer_1" data-name="Layer 1" xmlns="http://www.w3.org/2000/svg" width="70" height="70" viewBox="0 0 70 70">
  <defs>
    <style>
      .cls-1 {
        fill: #96b2cb;
      }
    </style>
  </defs>
  <title>architect</title>
  <path class="cls-1" d="M61,47.6a1.5,1.5,0,0,0-1.1.2L49.1,58.7a.9.9,0,0,0-.2,1.1,1,1,0,0,0,.9.6H60.6a1,1,0,0,0,1-1V48.5A1,1,0,0,0,61,47.6ZM52.2,58.4l7.5-7.5v7.5Z"/>
  <path class="cls-1" d="M68.2,33a.9.9,0,0,0-1.1.2l-2.9,3V16a1,1,0,0,0-1-1H55.5l2.8-2.8h0L61,9.5a3.1,3.1,0,0,0,.9-2.1A3.1,3.1,0,0,0,61,5.3L57.9,2.2a2.9,2.9,0,0,0-2.2-.9,2.9,2.9,0,0,0-2.1.9L50.9,4.8,47.7,8.1,40.8,15H10V5.2a1,1,0,0,0-1-1A7.8,7.8,0,0,0,1.2,12V54.4a7.1,7.1,0,0,0,2.3,4.8,7.6,7.6,0,0,0,5.2,2.1H39L33.3,67a1.1,1.1,0,0,0-.2,1.1,1,1,0,0,0,.9.6H67.8a.9.9,0,0,0,1-1V33.9A1,1,0,0,0,68.2,33ZM55,3.6a1.1,1.1,0,0,1,1.5,0l3.1,3.1a1,1,0,0,1,0,1.4l-2,2L53,5.5ZM51.6,7l4.6,4.5-1.8,1.8L49.8,8.8ZM66.8,45.1H65a1,1,0,0,0-1,1,1.1,1.1,0,0,0,1,1h1.8v3H65a1,1,0,0,0-1,.9,1,1,0,0,0,1,1h1.8v3H65a1.1,1.1,0,0,0-1,1,1,1,0,0,0,1,1h1.8v3H65a1,1,0,0,0-1,1,1.1,1.1,0,0,0,1,1h1.8v4.7H36.4l10.1-10a1.2,1.2,0,0,0,0-1.4h-.2a1.1,1.1,0,0,0-1.3.1l-4,4H8.7A5.4,5.4,0,0,1,3.2,54v-.6h0a.4.4,0,0,1,.1-.3h0v-.2h0c0-.1.1-.1.1-.2h0v-.2h0c.1-.1.1-.1.1-.2h0a.4.4,0,0,0,.1-.3h0a6.1,6.1,0,0,1,4.1-3.2h.5a.1.1,0,0,0,.1-.1H9a1,1,0,0,0,1-1V40.1a1.1,1.1,0,0,0-1-1,1,1,0,0,0-1,1v6.3a8,8,0,0,0-4.5,2.2l-.3.3V12A5.9,5.9,0,0,1,8,6.2v30H8a.9.9,0,0,0,1,.9,1,1,0,0,0,1-.9h0V17H38.8l-5.5,5.5a1,1,0,0,0,0,1.4,1.2,1.2,0,0,0,1.4,0l7.2-7.2h0l6.5-6.5L53,14.7l-.6.6h0l-20,20-4.5-4.6,3.9-3.9a1,1,0,0,0-1.4-1.4L25.7,30h-.2l-1.9,5.5-1.3,3.7v.2H18.9a1,1,0,0,0-1,1,1.1,1.1,0,0,0,1,1H46.4a1,1,0,0,0,1-1,.9.9,0,0,0-1-1H26.7l6-2.2h.4L53.5,17h8.7V38.2L48,52.4a1,1,0,0,0,0,1.4h0a.9.9,0,0,0,.7.3.9.9,0,0,0,.6-.3h.1L66.8,36.3ZM30.6,36.3l-2.8,1-1.9-1.9,1-2.9Z"/>
</svg>
