<?xml version="1.0" encoding="utf-8"?>
<!-- Generator: Adobe Illustrator 23.0.1, SVG Export Plug-In . SVG Version: 6.00 Build 0)  -->
<svg version="1.1" id="Layer_1" xmlns="http://www.w3.org/2000/svg" xmlns:xlink="http://www.w3.org/1999/xlink" x="0px" y="0px"
	 viewBox="0 0 60 60" style="enable-background:new 0 0 60 60;" xml:space="preserve">
<g>
	<g>
		<g>
			<path d="M38.32,8.03C37.74,3.91,34.16,0.81,30,0.81c-2.67,0-5.22,1.29-6.79,3.45c-0.32,0.44-0.23,1.06,0.22,1.38
				c0.44,0.32,1.06,0.23,1.38-0.22c1.21-1.65,3.15-2.64,5.2-2.64c3.18,0,5.92,2.37,6.37,5.51c0.07,0.49,0.49,0.85,0.98,0.85
				c0.05,0,0.09,0,0.14-0.01C38.03,9.07,38.4,8.57,38.32,8.03z"/>
		</g>
	</g>
	<g>
		<g>
			<path d="M52.62,19.1l-2.97-4.95c-0.18-0.3-0.5-0.48-0.85-0.48h-2.84c-0.55,0-0.99,0.44-0.99,0.99c0,0.55,0.44,0.99,0.99,0.99
				h2.28l1.78,2.97H9.98l1.78-2.97h1.05c0.55,0,0.99-0.44,0.99-0.99c0-0.55-0.44-0.99-0.99-0.99H11.2c-0.35,0-0.67,0.18-0.85,0.48
				L7.38,19.1c-0.18,0.31-0.19,0.69-0.01,1c0.18,0.31,0.5,0.5,0.86,0.5h43.53c0.36,0,0.69-0.19,0.86-0.5
				C52.8,19.79,52.8,19.41,52.62,19.1z"/>
		</g>
	</g>
	<g>
		<g>
			<path d="M47.68,9.98c-0.14-0.22-0.36-0.38-0.62-0.44L33.58,6.38c-0.26-0.06-0.52-0.02-0.75,0.12c-0.22,0.14-0.38,0.36-0.44,0.62
				l-1.02,4.35c-0.12,0.53,0.21,1.06,0.74,1.19c0.53,0.12,1.06-0.21,1.19-0.74l0.79-3.38l11.56,2.7l-1.82,7.77
				c-0.12,0.53,0.21,1.06,0.74,1.19c0.08,0.02,0.15,0.03,0.23,0.03c0.45,0,0.86-0.31,0.96-0.76l2.04-8.73
				C47.87,10.47,47.82,10.2,47.68,9.98z"/>
		</g>
	</g>
	<g>
		<g>
			<path d="M30.52,12.32l-0.9-7.62c-0.03-0.26-0.16-0.5-0.37-0.66c-0.21-0.16-0.47-0.24-0.73-0.21L11.97,5.78
				c-0.54,0.06-0.93,0.56-0.87,1.1l1.5,12.72c0.06,0.5,0.49,0.87,0.98,0.87c0.04,0,0.08,0,0.12-0.01c0.54-0.06,0.93-0.56,0.87-1.1
				L13.19,7.63l14.58-1.72l0.78,6.64c0.06,0.54,0.55,0.93,1.1,0.87C30.2,13.35,30.59,12.86,30.52,12.32z"/>
		</g>
	</g>
	<g>
		<g>
			<path d="M38.35,19.24l-1.96-8.17c-0.06-0.25-0.22-0.48-0.45-0.61c-0.22-0.14-0.49-0.18-0.75-0.12l-15.94,3.83
				c-0.53,0.13-0.86,0.66-0.73,1.19l0.98,4.08c0.13,0.53,0.66,0.86,1.19,0.73c0.53-0.13,0.86-0.66,0.73-1.19l-0.75-3.12l14.02-3.37
				l1.73,7.2c0.11,0.45,0.51,0.76,0.96,0.76c0.08,0,0.15-0.01,0.23-0.03C38.15,20.3,38.48,19.77,38.35,19.24z"/>
		</g>
	</g>
	<g>
		<g>
			<path d="M52.76,19.56c-0.03-0.53-0.46-0.94-0.99-0.94H8.23c-0.53,0-0.96,0.41-0.99,0.94L5.27,58.15
				c-0.01,0.27,0.08,0.54,0.27,0.73c0.19,0.2,0.45,0.31,0.72,0.31h47.49c0.27,0,0.53-0.11,0.72-0.31c0.19-0.2,0.28-0.46,0.27-0.73
				L52.76,19.56z M7.29,57.21L9.17,20.6h41.65l1.88,36.61H7.29z"/>
		</g>
	</g>
	<g>
		<g>
			<path d="M37.42,22.58c-1.64,0-2.97,1.33-2.97,2.97c0,1.64,1.33,2.97,2.97,2.97s2.97-1.33,2.97-2.97
				C40.39,23.91,39.06,22.58,37.42,22.58z M37.42,26.54c-0.55,0-0.99-0.44-0.99-0.99s0.44-0.99,0.99-0.99
				c0.55,0,0.99,0.44,0.99,0.99S37.97,26.54,37.42,26.54z"/>
		</g>
	</g>
	<g>
		<g>
			<path d="M22.58,22.58c-1.64,0-2.97,1.33-2.97,2.97c0,1.64,1.33,2.97,2.97,2.97c1.64,0,2.97-1.33,2.97-2.97
				C25.55,23.91,24.22,22.58,22.58,22.58z M22.58,26.54c-0.55,0-0.99-0.44-0.99-0.99s0.44-0.99,0.99-0.99s0.99,0.44,0.99,0.99
				S23.12,26.54,22.58,26.54z"/>
		</g>
	</g>
	<g>
		<g>
			<path d="M37.42,25.55h-0.08c-0.55,0-0.99,0.44-0.99,0.99c0,0.14,0.03,0.26,0.08,0.38v5.06c0,3.55-2.89,6.43-6.43,6.43
				s-6.43-2.89-6.43-6.43v-5.44c0-0.55-0.44-0.99-0.99-0.99s-0.99,0.44-0.99,0.99v5.44c0,4.64,3.77,8.41,8.41,8.41
				s8.41-3.77,8.41-8.41v-5.44C38.41,25.99,37.97,25.55,37.42,25.55z"/>
		</g>
	</g>
</g>
</svg>
