<?xml version="1.0" encoding="utf-8"?>
<!-- Generator: Adobe Illustrator 23.0.1, SVG Export Plug-In . SVG Version: 6.00 Build 0)  -->
<svg version="1.1" id="Layer_1" xmlns="http://www.w3.org/2000/svg" xmlns:xlink="http://www.w3.org/1999/xlink" x="0px" y="0px"
	 viewBox="0 0 70 70" style="enable-background:new 0 0 70 70;" xml:space="preserve">
<g>
	<path d="M53.36,11.95c0.03,0,0.06,0,0.09,0c0.05,0,0.1,0,0.15-0.01c1.36,0.03,2.45,1.14,2.45,2.49c0,0.62,0.5,1.12,1.12,1.12
		c0.62,0,1.12-0.5,1.12-1.12c0-2.22-1.55-4.14-3.72-4.62V8.75c0-0.62-0.5-1.12-1.12-1.12c-0.62,0-1.12,0.5-1.12,1.12v1.12
		c-2.29,0.61-3.78,2.83-3.47,5.19s2.32,4.11,4.69,4.11c1.38,0,2.5,1.12,2.5,2.5c0,1.38-1.12,2.5-2.5,2.5c-1.38,0-2.5-1.12-2.5-2.5
		c0-0.62-0.5-1.12-1.12-1.12c-0.62,0-1.12,0.5-1.12,1.12c0,2.14,1.44,4.01,3.51,4.57v1.22c0,0.62,0.5,1.12,1.12,1.12
		c0.62,0,1.12-0.5,1.12-1.12v-1.17c2.36-0.52,3.95-2.73,3.69-5.13c-0.26-2.4-2.29-4.22-4.7-4.22c-1.34,0-2.44-1.06-2.5-2.4
		C51.01,13.2,52.03,12.06,53.36,11.95L53.36,11.95z"/>
	<path d="M53.62,2.16c-6.88,0-12.74,4.49-14.94,10.49H10.95c-0.61,0-1.11,0.55-1.12,1.17l-0.26,39.2H1.66
		c-0.62,0-1.15,0.45-1.15,1.07v4.97c0.01,4.68,3.7,8.53,8.38,8.74v0.02h34.5V67.8c0.28,0.01,0.39,0.03,0.57,0.03h0.02
		c4.84-0.01,8.76-3.94,8.76-8.78V33.9c0.28,0.02,0.58,0.02,0.86,0.02c8.75,0,15.87-7.13,15.87-15.88
		C69.49,9.3,62.37,2.16,53.62,2.16z M9.32,65.6L9.32,65.6c-3.62,0-6.56-2.93-6.57-6.54v-3.79h32.41v3.78c0,2.33,0.93,4.57,2.59,6.21
		c0.12,0.12,0.26,0.21,0.39,0.35H9.32z M50.52,59.06c0,3.61-2.92,6.54-6.53,6.54h-0.02c-3.62-0.01-6.56-2.94-6.58-6.56v-4.95
		c0.01-0.29-0.1-0.56-0.3-0.76c-0.2-0.2-0.48-0.31-0.76-0.3H11.8l0.26-38.14h26.01c-0.2,1.02-0.3,2.06-0.31,3.1
		c0,2.2,0.46,4.38,1.35,6.4H28.55c-0.62,0-1.12,0.5-1.12,1.12c0,0.62,0.5,1.12,1.12,1.12h11.77c2.31,3.63,5.99,6.15,10.2,7V59.06z
		 M53.62,31.69c-7.53,0-13.63-6.1-13.63-13.63c0-7.53,6.1-13.63,13.63-13.63c7.53,0,13.63,6.1,13.63,13.63
		C67.25,25.59,61.15,31.69,53.62,31.69z"/>
	<path d="M21.38,31.83c-1.97,0-3.58,1.55-3.58,3.46s1.6,3.46,3.58,3.46s3.58-1.55,3.58-3.46S23.35,31.83,21.38,31.83z M21.38,36.52
		c-0.74,0-1.34-0.55-1.34-1.23c0-0.68,0.6-1.23,1.34-1.23c0.74,0,1.34,0.55,1.34,1.23S22.12,36.52,21.38,36.52z"/>
	<path d="M27.43,35.29c0,0.62,0.5,1.12,1.12,1.12h14.9c0.62,0,1.12-0.5,1.12-1.12c0-0.62-0.5-1.12-1.12-1.12h-14.9
		C27.93,34.17,27.43,34.67,27.43,35.29z"/>
	<path d="M21.38,22.11c-1.97,0-3.58,1.55-3.58,3.46s1.6,3.46,3.58,3.46s3.58-1.55,3.58-3.46S23.35,22.11,21.38,22.11z M21.38,26.81
		c-0.74,0-1.34-0.55-1.34-1.23c0-0.68,0.6-1.23,1.34-1.23c0.74,0,1.34,0.55,1.34,1.23C22.72,26.26,22.12,26.81,21.38,26.81
		L21.38,26.81z"/>
	<path d="M21.38,41.54c-1.97,0-3.58,1.55-3.58,3.46s1.6,3.46,3.58,3.46s3.58-1.55,3.58-3.46S23.35,41.54,21.38,41.54z M21.38,46.23
		c-0.74,0-1.34-0.55-1.34-1.23c0-0.68,0.6-1.23,1.34-1.23c0.74,0,1.34,0.55,1.34,1.23C22.72,45.68,22.12,46.23,21.38,46.23z"/>
	<path d="M43.45,43.95h-14.9c-0.62,0-1.12,0.5-1.12,1.12c0,0.62,0.5,1.12,1.12,1.12h14.9c0.62,0,1.12-0.5,1.12-1.12
		C44.57,44.45,44.07,43.95,43.45,43.95z"/>
</g>
</svg>
