<?xml version="1.0" encoding="utf-8"?>
<!-- Generator: Adobe Illustrator 23.0.1, SVG Export Plug-In . SVG Version: 6.00 Build 0)  -->
<svg version="1.1" id="Layer_1" xmlns="http://www.w3.org/2000/svg" xmlns:xlink="http://www.w3.org/1999/xlink" x="0px" y="0px"
	 viewBox="0 0 70 70" style="enable-background:new 0 0 70 70;" xml:space="preserve">
<g>
	<path d="M55.51,34.38h5.43c1.23,0,2.22-0.9,2.22-2v-4.88c0-1.1-1-2-2.22-2h-5.43c-1.23,0-2.22,0.9-2.22,2v4.88
		C53.29,33.48,54.29,34.38,55.51,34.38z M55.57,27.54h5.32v4.79h-5.32V27.54z M55.51,47.37h5.43c1.23,0,2.22-0.9,2.22-2v-4.88
		c0-1.1-1-2-2.22-2h-5.43c-1.23,0-2.22,0.9-2.22,2v4.88C53.29,46.47,54.29,47.37,55.51,47.37z M55.57,40.53h5.32v4.79h-5.32V40.53z
		 M40.03,34.38h5.43c1.23,0,2.22-0.9,2.22-2v-4.88c0-1.1-1-2-2.22-2h-5.43c-1.23,0-2.22,0.9-2.22,2v4.88
		C37.8,33.48,38.8,34.38,40.03,34.38z M40.08,27.54h5.32v4.79h-5.32V27.54z M14.49,50.86H9.06c-1.23,0-2.22,0.9-2.22,2v4.88
		c0,1.1,1,2,2.22,2h5.43c1.23,0,2.22-0.9,2.22-2v-4.88C16.71,51.76,15.71,50.86,14.49,50.86z M14.43,57.7H9.12v-4.79h5.32V57.7z
		 M14.49,25.49H9.06c-1.23,0-2.22,0.9-2.22,2v4.88c0,1.1,1,2,2.22,2h5.43c1.23,0,2.22-0.9,2.22-2v-4.88
		C16.71,26.39,15.71,25.49,14.49,25.49z M14.43,32.33H9.12v-4.79h5.32V32.33z M40.03,47.06h5.43c1.23,0,2.22-0.9,2.22-2v-4.88
		c0-1.1-1-2-2.22-2h-5.43c-1.23,0-2.22,0.9-2.22,2v4.88C37.8,46.16,38.8,47.06,40.03,47.06z M40.08,40.23h5.32v4.79h-5.32V40.23z
		 M64.29,4.69h-4.87V3.12C59.42,1.4,57.87,0,55.96,0h-0.52c-1.91,0-3.46,1.4-3.46,3.12v1.57H18.03V3.12C18.03,1.4,16.48,0,14.56,0
		h-0.52c-1.91,0-3.46,1.4-3.46,3.12v1.57H5.7C2.56,4.69,0,6.99,0,9.82v55.05C0,67.7,2.56,70,5.7,70H64.3c3.14,0,5.7-2.3,5.7-5.13
		V9.82C70,6.99,67.44,4.69,64.29,4.69L64.29,4.69z M54.25,3.12c0-0.59,0.53-1.07,1.19-1.07h0.52c0.65,0,1.19,0.48,1.19,1.07v1.57
		h-2.9V3.12z M12.86,3.12c0-0.59,0.53-1.07,1.19-1.07h0.52c0.65,0,1.19,0.48,1.19,1.07v1.57h-2.9L12.86,3.12L12.86,3.12z
		 M67.72,64.87c0,1.7-1.53,3.08-3.42,3.08H5.7c-1.88,0-3.42-1.38-3.42-3.08v-0.01c0.95,0.65,2.14,1.03,3.43,1.03h46.2
		c1.52,0,2.96-0.53,4.03-1.5l11.78-10.6V64.87z M54.77,62.54c0.09-0.33,0.14-0.68,0.14-1.03v-6.84c0-1.29,1.17-2.34,2.6-2.34h7.61
		c0.4,0,0.78-0.04,1.15-0.12L54.77,62.54z M67.72,19.34H19.17c-0.63,0-1.14,0.46-1.14,1.03c0,0.57,0.51,1.03,1.14,1.03h48.55v26.54
		c0,1.29-1.17,2.34-2.6,2.34h-7.61c-2.69,0-4.88,1.97-4.88,4.39v6.84c0,1.29-1.17,2.34-2.6,2.34H5.7c-1.89,0-3.43-1.38-3.43-3.08
		V21.39h12.33c0.63,0,1.14-0.46,1.14-1.03c0-0.57-0.51-1.03-1.14-1.03H2.28V9.82c0-1.7,1.54-3.08,3.43-3.08h4.87v3.01
		c0,1.72,1.55,3.12,3.46,3.12c0.63,0,1.14-0.46,1.14-1.03c0-0.57-0.51-1.03-1.14-1.03c-0.65,0-1.19-0.48-1.19-1.07V6.74h39.11v3.01
		c0,1.72,1.55,3.12,3.46,3.12c0.63,0,1.14-0.46,1.14-1.03c0-0.57-0.51-1.03-1.14-1.03c-0.65,0-1.19-0.48-1.19-1.07V6.74h10.05
		c1.89,0,3.43,1.38,3.43,3.08L67.72,19.34z M14.49,38.18H9.06c-1.23,0-2.22,0.9-2.22,2v4.88c0,1.1,1,2,2.22,2h5.43
		c1.23,0,2.22-0.9,2.22-2v-4.88C16.71,39.07,15.71,38.18,14.49,38.18z M14.43,45.01H9.12v-4.79h5.32V45.01z M24.55,34.38h5.43
		c1.23,0,2.22-0.9,2.22-2v-4.88c0-1.1-1-2-2.22-2h-5.43c-1.23,0-2.22,0.9-2.22,2v4.88C22.32,33.48,23.32,34.38,24.55,34.38z
		 M24.6,27.54h5.32v4.79H24.6V27.54z M40.08,57.7c-0.03-0.54-0.53-0.98-1.14-0.98c-0.63,0-1.14,0.46-1.14,1.03c0,1.1,1,2,2.22,2
		h5.43c1.23,0,2.22-0.9,2.22-2v-4.88c0-1.1-1-2-2.22-2h-5.43c-1.23,0-2.22,0.9-2.22,2v1.41c0,0.57,0.51,1.03,1.14,1.03
		c0.63,0,1.14-0.46,1.14-1.03v-1.36h5.32v4.79H40.08z M24.55,47.06h5.43c1.23,0,2.22-0.9,2.22-2v-4.88c0-1.1-1-2-2.22-2h-5.43
		c-1.23,0-2.22,0.9-2.22,2v4.88C22.32,46.16,23.32,47.06,24.55,47.06z M24.6,40.23h5.32v4.79H24.6V40.23z M24.55,59.75h5.43
		c1.23,0,2.22-0.9,2.22-2v-4.88c0-1.1-1-2-2.22-2h-5.43c-1.23,0-2.22,0.9-2.22,2v4.88C22.32,58.85,23.32,59.75,24.55,59.75z
		 M24.6,52.91h5.32v4.79H24.6V52.91z"/>
</g>
</svg>
