<?xml version="1.0" encoding="utf-8"?>
<!-- Generator: Adobe Illustrator 23.0.1, SVG Export Plug-In . SVG Version: 6.00 Build 0)  -->
<svg version="1.1" id="Layer_1" xmlns="http://www.w3.org/2000/svg" xmlns:xlink="http://www.w3.org/1999/xlink" x="0px" y="0px"
	 viewBox="0 0 70 70" style="enable-background:new 0 0 70 70;" xml:space="preserve">
<g>
	<path d="M50.13,69.59c-2.23,0-4.45-0.39-6.61-1.18c-9.54-3.47-18.39-9.11-25.61-16.32S5.06,36.02,1.59,26.48
		c-1.11-3.07-1.44-6.23-0.98-9.41c0.44-2.97,1.59-5.86,3.33-8.35c1.75-2.5,4.09-4.58,6.75-6.01c2.84-1.53,5.95-2.3,9.22-2.3
		c1.02,0,1.9,0.71,2.11,1.71l3.39,15.84c0.15,0.72-0.07,1.46-0.59,1.98l-5.8,5.8c5.47,10.87,14.34,19.75,25.22,25.22l5.8-5.8
		c0.52-0.52,1.26-0.74,1.98-0.59l15.84,3.39c1,0.21,1.71,1.09,1.71,2.11c0,3.28-0.78,6.38-2.3,9.22c-1.43,2.67-3.51,5-6.01,6.75
		c-2.49,1.74-5.38,2.9-8.35,3.33C51.99,69.52,51.06,69.59,50.13,69.59L50.13,69.59z M18.2,4.83c-4.32,0.48-8.16,2.74-10.71,6.38
		c-2.87,4.09-3.53,9.12-1.83,13.8c6.66,18.34,21,32.68,39.34,39.34c4.68,1.7,9.71,1.03,13.8-1.83c3.64-2.55,5.9-6.38,6.38-10.71
		l-12.88-2.76l-6.06,6.06c-0.64,0.64-1.62,0.82-2.45,0.43c-12.86-6.04-23.27-16.45-29.31-29.31c-0.39-0.82-0.22-1.8,0.43-2.45
		l6.06-6.06L18.2,4.83z"/>
</g>
</svg>
