<?xml version="1.0" encoding="utf-8"?>
<!-- Generator: Adobe Illustrator 23.0.1, SVG Export Plug-In . SVG Version: 6.00 Build 0)  -->
<svg version="1.1" id="Layer_1" xmlns="http://www.w3.org/2000/svg" xmlns:xlink="http://www.w3.org/1999/xlink" x="0px" y="0px"
	 viewBox="0 0 70 70" style="enable-background:new 0 0 70 70;" xml:space="preserve">
<g>
	<path d="M46.26,39.71c0,6.21-5.05,11.26-11.26,11.26s-11.26-5.05-11.26-11.26S28.79,28.45,35,28.45S46.26,33.5,46.26,39.71z
		 M69.91,23.72v31.98c0,4.26-3.46,7.72-7.72,7.72H7.81c-4.26,0-7.72-3.46-7.72-7.72V23.72c0-4.26,3.46-7.72,7.72-7.72h9.5v-2.67
		c0-3.73,3.02-6.76,6.76-6.76h21.88c3.73,0,6.76,3.02,6.76,6.76V16h9.5C66.46,16,69.91,19.46,69.91,23.72z M52.05,39.71
		c0-9.4-7.65-17.05-17.05-17.05c-9.4,0-17.05,7.65-17.05,17.05S25.6,56.76,35,56.76C44.4,56.76,52.05,49.11,52.05,39.71z"/>
</g>
</svg>
