<?xml version="1.0" encoding="utf-8"?>
<!-- Generator: Adobe Illustrator 23.0.1, SVG Export Plug-In . SVG Version: 6.00 Build 0)  -->
<svg version="1.1" id="Layer_1" xmlns="http://www.w3.org/2000/svg" xmlns:xlink="http://www.w3.org/1999/xlink" x="0px" y="0px"
	 viewBox="0 0 70 70" style="enable-background:new 0 0 70 70;" xml:space="preserve">
<g>
	<g>
		<path d="M38.79,35L68.53,5.26c1.05-1.05,1.05-2.74,0-3.79s-2.74-1.05-3.79,0L35,31.21L5.26,1.47c-1.05-1.05-2.74-1.05-3.79,0
			s-1.05,2.74,0,3.79L31.21,35L1.47,64.74c-1.05,1.05-1.05,2.74,0,3.79c0.52,0.52,1.21,0.79,1.9,0.79s1.37-0.26,1.9-0.79L35,38.79
			l29.74,29.74c0.52,0.52,1.21,0.79,1.9,0.79s1.37-0.26,1.9-0.79c1.05-1.05,1.05-2.74,0-3.79L38.79,35z"/>
	</g>
</g>
</svg>
