<?xml version="1.0" encoding="utf-8"?>
<!-- Generator: Adobe Illustrator 23.0.1, SVG Export Plug-In . SVG Version: 6.00 Build 0)  -->
<svg version="1.1" id="Layer_1" xmlns="http://www.w3.org/2000/svg" xmlns:xlink="http://www.w3.org/1999/xlink" x="0px" y="0px"
	 viewBox="0 0 500 500" style="enable-background:new 0 0 500 500;" xml:space="preserve">
<g>
	<path d="M469.35,155.99h23.5v-15.67H474.6l-36.86-89.52c-10.93-26.52-36.51-43.66-65.19-43.66H244.93
		c-24.01,0-46.15,12.04-59.2,32.2l-66.06,102.08L12.84,171.97c-3.37,0.96-5.69,4.03-5.69,7.53v101.84c0,4.32,3.5,7.83,7.83,7.83
		h39.63c3.91,35.2,33.81,62.67,70.04,62.67s66.13-27.47,70.04-62.67h25l4.23,6.35c11.93,17.89,18.24,38.72,18.24,60.23
		s-6.31,42.34-18.24,60.23l-5.72,8.59c-4.83,7.24-7.37,15.67-7.37,24.36c-0.01,24.21,19.69,43.92,43.9,43.92
		c8.7,0,17.12-2.55,24.36-7.37l5.33-3.55c8.78-5.85,18.28-10.44,28.24-13.84v24.76h15.67v-31.34c0-2.62-1.31-5.06-3.49-6.52
		l-43.51-29.01v-27.14c0-4.32,3.51-7.83,7.83-7.83s7.83,3.52,7.83,7.83v23.5h15.67v-23.5V320.5c0-4.32,3.51-7.83,7.83-7.83
		c4.32,0,7.83,3.52,7.83,7.83v15.67v39.17h15.67v-39.17V320.5v-15.67c0-4.32,3.51-7.83,7.83-7.83s7.83,3.52,7.83,7.83v15.67v15.67
		v39.17h15.67v-39.17V320.5c0-4.32,3.51-7.83,7.83-7.83s7.83,3.52,7.83,7.83v31.34v23.5h15.67v-23.5c0-4.32,3.51-7.83,7.83-7.83
		c4.32,0,7.83,3.52,7.83,7.83v82.93l-13.37,13.37c-1.47,1.46-2.3,3.46-2.3,5.54v39.17h15.67v-8.87l2.23,1.49
		c7.24,4.83,15.66,7.38,24.36,7.38c24.21,0,43.91-19.7,43.91-43.91c0-8.7-2.55-17.12-7.37-24.36l-5.72-8.59
		c-11.94-17.9-18.25-38.73-18.25-60.24s6.31-42.34,18.24-60.23l5.72-8.59c4.83-7.24,7.37-15.67,7.37-24.36
		c0.01-24.21-19.69-43.92-43.9-43.92c-8.7,0-17.12,2.55-24.36,7.37l-5.33,3.55C399.23,242.94,375.91,250,351.84,250
		s-47.39-7.06-67.41-20.41l-5.33-3.55c-7.24-4.83-15.66-7.38-24.36-7.38c-24.21,0-43.91,19.7-43.91,43.91
		c0,3.72,0.56,7.37,1.47,10.93h-17.6c-3.91-35.2-33.81-62.67-70.04-62.67S58.52,238.3,54.62,273.5h-31.8v-47h23.5
		c4.33,0,7.83-3.51,7.83-7.83v-42.22l72.65-20.76c1.83-0.52,3.4-1.68,4.43-3.27l67.65-104.55c10.15-15.68,27.36-25.04,46.05-25.04
		h127.61c22.31,0,42.22,13.33,50.71,33.96l38.86,94.37C463.31,154.07,466.18,155.99,469.35,155.99L469.35,155.99z M254.74,234.33
		c5.59,0,11.01,1.64,15.67,4.74l5.33,3.55c22.62,15.08,48.93,23.05,76.11,23.05s53.49-7.97,76.11-23.04l5.33-3.55
		c4.66-3.1,10.07-4.74,15.67-4.74c15.57-0.01,28.24,12.66,28.24,28.23c0,5.59-1.64,11.01-4.74,15.67l-5.72,8.59
		c-13.66,20.48-20.88,44.31-20.88,68.93s7.21,48.45,20.87,68.93l5.72,8.59c3.1,4.65,4.74,10.07,4.74,15.67
		c0.01,15.57-12.66,28.24-28.23,28.24c-5.59,0-11.01-1.64-15.67-4.74l-5.33-3.55c-1.83-1.21-3.73-2.29-5.6-3.41v-8.55l13.37-13.37
		c1.47-1.47,2.3-3.47,2.3-5.55v-86.17c0-12.96-10.54-23.5-23.5-23.5c-2.76,0-5.37,0.56-7.83,1.44v-9.28
		c0-12.96-10.54-23.5-23.5-23.5c-3.09,0-6.03,0.63-8.74,1.72c-2.7-9.99-11.76-17.39-22.59-17.39s-19.88,7.4-22.59,17.39
		c-2.71-1.09-5.65-1.72-8.74-1.72c-12.96,0-23.5,10.54-23.5,23.5v56.28c-2.46-0.88-5.08-1.44-7.83-1.44
		c-12.96,0-23.5,10.54-23.5,23.5v31.34c0,2.62,1.31,5.06,3.49,6.52l29.79,19.86c-8.08,3.38-15.88,7.44-23.21,12.33l-5.33,3.55
		c-4.66,3.1-10.07,4.74-15.67,4.74c-15.57,0.01-28.24-12.66-28.24-28.23c0-5.59,1.64-11.01,4.74-15.67l5.72-8.59
		c13.66-20.48,20.88-44.31,20.88-68.93s-7.22-48.45-20.87-68.93l-5.72-8.59c-3.1-4.65-4.74-10.07-4.74-15.67
		C226.5,247,239.17,234.33,254.74,234.33L254.74,234.33z M124.66,226.5c30.23,0,54.84,24.6,54.84,54.84
		c0,30.24-24.61,54.84-54.84,54.84s-54.84-24.6-54.84-54.84C69.82,251.1,94.43,226.5,124.66,226.5z M38.49,210.83H22.82V185.4
		l15.67-4.47V210.83z"/>
	<path d="M124.66,320.5c21.6,0,39.17-17.57,39.17-39.17c0-21.6-17.57-39.17-39.17-39.17s-39.17,17.57-39.17,39.17
		C85.49,302.93,103.06,320.5,124.66,320.5z M124.66,257.83c12.96,0,23.5,10.54,23.5,23.5c0,12.96-10.54,23.5-23.5,23.5
		s-23.5-10.54-23.5-23.5C101.16,268.38,111.7,257.83,124.66,257.83z"/>
	<path d="M436.63,152.59c1.46-2.12,1.79-4.83,0.85-7.25l-31.44-81.75c-5.78-15.02-20.48-25.11-36.56-25.11H251.84
		c-13.7,0-26.17,6.97-33.36,18.64l-53.49,86.92c-1.49,2.42-1.55,5.44-0.16,7.93c1.39,2.48,4,4.01,6.84,4.01h258.52
		C432.76,155.99,435.18,154.72,436.63,152.59z M231.83,65.34c4.31-7,11.8-11.19,20.02-11.19H297v86.17H185.68L231.83,65.34z
		 M312.67,140.33V54.15h56.82c9.64,0,18.46,6.06,21.93,15.06l27.35,71.11H312.67z"/>
	<path d="M281.34,171.66h31.34v15.67h-31.34V171.66z"/>
	<path d="M406.68,171.66h31.34v15.67h-31.34V171.66z"/>
	<path d="M187.33,438.01c-17.28,0-31.34-14.05-31.34-31.34c0-4.32-3.5-7.83-7.83-7.83c-4.33,0-7.83,3.51-7.83,7.83
		c0,17.28-14.05,31.34-31.34,31.34c-4.33,0-7.83,3.51-7.83,7.83s3.5,7.83,7.83,7.83c17.28,0,31.34,14.05,31.34,31.34
		c0,4.32,3.5,7.83,7.83,7.83c4.33,0,7.83-3.51,7.83-7.83c0-17.28,14.05-31.34,31.34-31.34c4.33,0,7.83-3.51,7.83-7.83
		S191.66,438.01,187.33,438.01z M148.16,459.06c-3.48-5.23-7.98-9.73-13.22-13.22c5.23-3.48,9.73-7.98,13.22-13.22
		c3.48,5.23,7.98,9.73,13.22,13.22C156.14,449.32,151.64,453.83,148.16,459.06z"/>
	<path d="M93.32,383.18c-17.28,0-31.34-14.05-31.34-31.34c0-4.32-3.5-7.83-7.83-7.83s-7.83,3.51-7.83,7.83
		c0,17.28-14.05,31.34-31.34,31.34c-4.33,0-7.83,3.51-7.83,7.83s3.5,7.83,7.83,7.83c17.28,0,31.34,14.05,31.34,31.34
		c0,4.32,3.5,7.83,7.83,7.83s7.83-3.51,7.83-7.83c0-17.28,14.05-31.34,31.34-31.34c4.33,0,7.83-3.51,7.83-7.83
		S97.65,383.18,93.32,383.18z M54.15,404.23c-3.48-5.23-7.98-9.74-13.22-13.22c5.23-3.48,9.74-7.98,13.22-13.22
		c3.48,5.23,7.98,9.74,13.22,13.22C62.14,394.49,57.63,398.99,54.15,404.23z"/>
	<path d="M14.98,61.99c17.28,0,31.34,14.05,31.34,31.34c0,4.32,3.5,7.83,7.83,7.83s7.83-3.51,7.83-7.83
		c0-17.28,14.05-31.34,31.34-31.34c4.33,0,7.83-3.51,7.83-7.83s-3.5-7.83-7.83-7.83c-17.28,0-31.34-14.05-31.34-31.34
		c0-4.32-3.5-7.83-7.83-7.83s-7.83,3.51-7.83,7.83c0,17.28-14.05,31.34-31.34,31.34c-4.33,0-7.83,3.51-7.83,7.83
		S10.65,61.99,14.98,61.99z M54.15,40.94c3.48,5.23,7.98,9.74,13.22,13.22c-5.23,3.48-9.74,7.98-13.22,13.22
		c-3.48-5.23-7.98-9.74-13.22-13.22C46.17,50.68,50.68,46.17,54.15,40.94z"/>
</g>
</svg>
