<svg id="Layer_1" data-name="Layer 1" xmlns="http://www.w3.org/2000/svg" width="70" height="70" viewBox="0 0 70 70">
  <defs>
    <style>
      .cls-1 {
        fill: #96b2cb;
      }
    </style>
  </defs>
  <title>carpainter</title>
  <path class="cls-1" d="M66.3,34.6,51.9,32.2,47.7,26a5.7,5.7,0,0,0-4.9-2.6H40.9a3.9,3.9,0,0,1,.8-1,11.2,11.2,0,0,0,3.5-8.2A11.7,11.7,0,0,0,37.4,3.1h-.7a1.3,1.3,0,0,0-.7.4,1.3,1.3,0,0,0-.5,1.3l.9,4.8h0a1.8,1.8,0,0,1-.4,1.6l-.4.3a4.4,4.4,0,0,1-4.9.9,2,2,0,0,1-.9-1.1L28.5,6a1.7,1.7,0,0,0-.9-1.1,1.7,1.7,0,0,0-1.4.3,11.6,11.6,0,0,0-4.3,9,11.2,11.2,0,0,0,3.5,8.2l.8,1H21.3A5.6,5.6,0,0,0,16.5,26l-4.2,6.3L3.4,34.5A4.4,4.4,0,0,0,.1,38.7V46a6.5,6.5,0,0,0,6.4,6.5h3.9a7.3,7.3,0,0,0,14.3,0h3v8.7a5.9,5.9,0,0,0,11.7,0V52.5h4.5a7.2,7.2,0,0,0,14.2,0h6.5a2.8,2.8,0,0,0,2.6-1.7l2.4-4.7a.4.4,0,0,0,.1-.3l.2-.6V38.9A4.4,4.4,0,0,0,66.3,34.6ZM17.5,55.4A4.4,4.4,0,1,1,21.9,51,4.4,4.4,0,0,1,17.5,55.4Zm10.2-5.9h-3a7.3,7.3,0,0,0-14.3,0H6.5a3.5,3.5,0,0,1-2.5-1A3.6,3.6,0,0,1,3,46V38.7a1.6,1.6,0,0,1,1.1-1.4L13.5,35a1.5,1.5,0,0,0,.9-.6l4.5-6.8a3.1,3.1,0,0,1,2.4-1.3h6.3a6.6,6.6,0,0,1,.1,1.4V49.5Zm8.8-21.8V61.2a3,3,0,0,1-3,2.9,2.9,2.9,0,0,1-2.9-2.9V27.7a10.4,10.4,0,0,0-3.2-7.4,8.4,8.4,0,0,1-1-11l.6,2.6a4.5,4.5,0,0,0,2.5,3,7.4,7.4,0,0,0,8.2-1.4l.3-.4A4.5,4.5,0,0,0,39.3,9l-.4-1.8a8.8,8.8,0,0,1,3.4,6.9,8.4,8.4,0,0,1-2.6,6.2A10.4,10.4,0,0,0,36.5,27.7ZM51,55.4A4.4,4.4,0,1,1,55.4,51,4.4,4.4,0,0,1,51,55.4ZM67,44.7l-2.4,4.8H58.1a7.2,7.2,0,0,0-14.2,0H39.4V27.7a6.6,6.6,0,0,1,.1-1.4h3.3a3.1,3.1,0,0,1,2.5,1.3l4.5,6.8a1.7,1.7,0,0,0,1,.6l15,2.5A1.4,1.4,0,0,1,67,38.9Z"/>
</svg>
