<svg id="Layer_1" data-name="Layer 1" xmlns="http://www.w3.org/2000/svg" width="70" height="70" viewBox="0 0 70 70">
  <defs>
    <style>
      .cls-1 {
        fill: #96b2cb;
      }
    </style>
  </defs>
  <title>carpainter-01</title>
  <g>
    <path class="cls-1" d="M65.4,8.1,58.2.9a1,1,0,0,0-1.4,0L23.5,34.2,22,32.8a1,1,0,0,0-1.4,0h0L5.1,48.3a2.8,2.8,0,0,0,0,4l.8.5a2.5,2.5,0,0,0,2.4,0,2.8,2.8,0,0,1,2-.3,2.4,2.4,0,0,1,1.3,1.3l7.1,15a1.1,1.1,0,0,0,.7.6h.2a.9.9,0,0,0,.7-.3L34,55.5a1.1,1.1,0,0,0,.2-1.2l-1.5-3.1,5.1-6.5a1.4,1.4,0,0,0,.2-.6l.2-2.2,2.2-.8a1.1,1.1,0,0,0,.7-.8V38l2.2-.8a.8.8,0,0,0,.7-.8l.3-2.3,2.1-.8L47,33a1.4,1.4,0,0,0,.2-.6V30.2l2.3-.8a1,1,0,0,0,.5-.4.8.8,0,0,0,.2-.6V26.2l2.3-.7a1,1,0,0,0,.5-.4,1.4,1.4,0,0,0,.2-.6V22.3l2.3-.7a1,1,0,0,0,.5-.4h.1a1.4,1.4,0,0,0,.2-.6V18.3l2.3-.6a1,1,0,0,0,.5-.4h0a.6.6,0,0,0,.2-.5l.4-2.5,2-.5.5-.4h0c.2-.1.2-.4.3-.6V10.5L65,9.8a1,1,0,0,0,.5-.4.9.9,0,0,0-.1-1.3ZM19.9,66.7,13.4,52.9A4.2,4.2,0,0,0,11,50.6l-1.2-.2a5,5,0,0,0-2.4.6.6.6,0,0,1-.6,0,.8.8,0,0,1-.4-1.1c0-.1.1-.1.1-.2L21.3,34.9l1.5,1.5h0l5.1,5.1.2,4.5c0,.2,0,.3.1.4L32,54.5Zm41.5-58a1.2,1.2,0,0,0-.7,1V12l-1.9.6a1.1,1.1,0,0,0-.8.8l-.3,2.5-2.4.7a1,1,0,0,0-.7,1v2.3l-2.4.7a1,1,0,0,0-.7.9v2.2l-2.3.7a1.1,1.1,0,0,0-.7,1v2.3l-2.3.7a1.1,1.1,0,0,0-.7,1v2.2l-2.1.8a1.1,1.1,0,0,0-.7.9l-.2,2.2-2.2.7a1.1,1.1,0,0,0-.7.9l-.2,2.4-2.2.8a.9.9,0,0,0-.6.8L36,43.7l-4.3,5.4-1.6-3.4L29.9,41a1.1,1.1,0,0,0-.3-.7l-4.7-4.7L57.5,3l5.3,5.3Z"/>
    <path class="cls-1" d="M45.9,17.9,33.1,30.8a1,1,0,1,0,1.4,1.4h0L47.4,19.3A1,1,0,1,0,46,17.9Z"/>
    <path class="cls-1" d="M51.4,12.5l-1.7,1.6a1.1,1.1,0,0,0,0,1.5,1,1,0,0,0,1.4,0h0l1.7-1.7a1,1,0,0,0-1.4-1.4Z"/>
    <path class="cls-1" d="M19.8,45.8a3,3,0,0,0-4-1.4,3.1,3.1,0,0,0-1.4,3.9l4.7,9.8a3,3,0,0,0,4,1.5,3.1,3.1,0,0,0,1.4-4h0Zm2.7,11.7a1,1,0,0,1-1.4,0c-.1,0-.1-.1-.2-.2l-4.6-9.8a.9.9,0,0,1,.8-1.4h.2c.3.1.6.2.7.5l4.6,9.8a1.1,1.1,0,0,1-.1,1.1Z"/>
  </g>
</svg>
