<?xml version="1.0" encoding="utf-8"?>
<!-- Generator: Adobe Illustrator 23.0.1, SVG Export Plug-In . SVG Version: 6.00 Build 0)  -->
<svg version="1.1" id="Layer_1" xmlns="http://www.w3.org/2000/svg" xmlns:xlink="http://www.w3.org/1999/xlink" x="0px" y="0px"
	 viewBox="0 0 60 60" style="enable-background:new 0 0 60 60;" xml:space="preserve">
<g>
	<path d="M20.38,51.17c-2.41,0-4.36,1.96-4.36,4.36c0,2.41,1.96,4.36,4.36,4.36s4.36-1.96,4.36-4.36
		C24.75,53.12,22.79,51.17,20.38,51.17z M20.38,58.15c-1.44,0-2.62-1.17-2.62-2.62c0-1.44,1.17-2.62,2.62-2.62
		c1.44,0,2.62,1.17,2.62,2.62C23,56.98,21.83,58.15,20.38,58.15z"/>
	<circle cx="20.38" cy="55.53" r="0.87"/>
	<circle cx="50.29" cy="55.53" r="0.87"/>
	<path d="M50.29,51.17c-2.41,0-4.36,1.96-4.36,4.36c0,2.41,1.96,4.36,4.36,4.36s4.36-1.96,4.36-4.36
		C54.66,53.12,52.7,51.17,50.29,51.17z M50.29,58.15c-1.44,0-2.62-1.17-2.62-2.62c0-1.44,1.17-2.62,2.62-2.62s2.62,1.17,2.62,2.62
		C52.91,56.98,51.74,58.15,50.29,58.15z"/>
	<path d="M14.72,42.55l6.35-3.6h14.26c2.11,0,3.87-1.5,4.28-3.49h9.09c2.79,0,5.23-1.89,5.92-4.6l5.24-20.5
		c0.07-0.26,0.01-0.54-0.16-0.75s-0.42-0.34-0.69-0.34H16.17l-0.45-1.74c-1.09-4.25-4.91-7.22-9.3-7.22H2.92
		c-1.44,0-2.62,1.17-2.62,2.62s1.17,2.62,2.62,2.62h3.49c2,0,3.74,1.35,4.23,3.28l6.7,26.21l-5.21,2.96
		c-1.91,1.08-3.1,3.12-3.1,5.32c0,3.37,2.74,6.11,6.11,6.11h38.64c1.44,0,2.62-1.17,2.62-2.62s-1.17-2.62-2.62-2.62H15.15
		c-0.48,0-0.87-0.39-0.87-0.87C14.27,43,14.44,42.71,14.72,42.55z M47.08,25.56h-5.36l0.33-6.4h6.02L47.08,25.56z M49.82,19.16h5.99
		l-1.64,6.4h-5.34L49.82,19.16z M46.81,27.31l-0.98,6.4h-4.53l0.33-6.4L46.81,27.31z M39.96,25.56h-5.37l-0.33-6.4h6.03L39.96,25.56
		z M42.13,17.41l0.33-6.4h6.85l-0.98,6.4H42.13z M40.38,17.41h-6.21l-0.33-6.4h6.86L40.38,17.41z M32.42,17.41h-3.46
		c-0.48,0-0.87,0.39-0.87,0.87c0,0.48,0.39,0.87,0.87,0.87h3.54l0.33,6.4h-5.36l-2.23-14.55h6.85L32.42,17.41z M25.71,25.56h-5.38
		l-1.64-6.4h6.03L25.71,25.56z M25.98,27.31l0.98,6.4h-4.55l-1.64-6.4L25.98,27.31z M28.73,33.71l-0.98-6.4h5.19l0.33,6.4H28.73z
		 M35.01,33.71l-0.33-6.4h5.19l-0.33,6.4H35.01z M52.93,30.43c-0.49,1.93-2.23,3.28-4.23,3.28h-1.11l0.98-6.4h5.16L52.93,30.43z
		 M56.26,17.41h-6.17l0.98-6.4h6.83L56.26,17.41z M23.48,11.01l0.98,6.4h-6.21l-1.64-6.4H23.48z M6.42,3.8H2.92
		c-0.48,0-0.87-0.39-0.87-0.87s0.39-0.87,0.87-0.87h3.49c1.83,0,3.55,0.63,4.9,1.72l-1.24,1.24C9.05,4.24,7.77,3.8,6.42,3.8z
		 M15.15,45.93h38.64c0.48,0,0.87,0.39,0.87,0.87s-0.39,0.87-0.87,0.87H15.15c-2.41,0-4.36-1.96-4.36-4.36
		c0-1.57,0.85-3.03,2.22-3.8l5.79-3.28c0.34-0.19,0.51-0.59,0.42-0.98L12.34,8.39c-0.2-0.79-0.56-1.52-1.03-2.14L12.56,5
		c0.68,0.85,1.19,1.85,1.47,2.96l6.86,26.84c0.1,0.39,0.45,0.66,0.85,0.66h16.07c-0.36,1.02-1.33,1.75-2.47,1.75H20.84
		c-0.15,0-0.3,0.04-0.43,0.11l-6.55,3.72c-0.82,0.47-1.33,1.34-1.33,2.28C12.53,44.75,13.7,45.93,15.15,45.93L15.15,45.93z"/>
</g>
</svg>
