<svg id="Layer_1" data-name="Layer 1" xmlns="http://www.w3.org/2000/svg" width="70" height="70" viewBox="0 0 70 70">
  <defs>
    <style>
      .cls-1 {
        fill: #96b2cb;
      }
    </style>
  </defs>
  <title>cleaner</title>
  <g>
    <path class="cls-1" d="M59,58.2l.5-3.4-2.2-.2L56.9,58H53.6v2.2h3.3A2.2,2.2,0,0,0,59,58.2Z"/>
    <path class="cls-1" d="M66.7,23.2V23a5.5,5.5,0,0,0-4.4-5.4,5.7,5.7,0,0,0-5.4-4.5,5.7,5.7,0,0,0-4.5,2.3,5.2,5.2,0,0,0-3,.3,5.3,5.3,0,0,0-4.6-2.6,5.6,5.6,0,0,0-5,3.3,6.2,6.2,0,0,0-1.9.2,6.7,6.7,0,0,0-5.1-2.4,6.9,6.9,0,0,0-4.4,1.7V5.5a4.4,4.4,0,0,0-4.3-4.4,4.4,4.4,0,0,0-4.4,4.4V42.7H17.5a3.2,3.2,0,0,0-3.3,3.2v3.3H6.6a5.5,5.5,0,0,0-5.5,5.5V58H3.3V68.9H44.8V64.5H57.4a5.4,5.4,0,0,0,5.4-4.8l2.7-28h.1a3.3,3.3,0,0,0,3.3-3.3V26.3A3.2,3.2,0,0,0,66.7,23.2ZM32.8,16.4a4.4,4.4,0,0,1,3.7,2.1l.6.9.9-.5a3.5,3.5,0,0,1,2.3-.2l1.1.4.2-1.2a3.4,3.4,0,0,1,3.2-2.6,3.2,3.2,0,0,1,3.1,2.2l.5,1.4,1.2-.8a3.2,3.2,0,0,1,3-.4l.9.4.4-.9a3.3,3.3,0,0,1,3-1.9,3.3,3.3,0,0,1,3.3,3.3v1.1h1A3.3,3.3,0,0,1,64.5,23h-35a2.2,2.2,0,0,0-1.1.2V20.8a4.4,4.4,0,0,1,4.4-4.4ZM29.6,31.7l1.1,11H28.4V31.5l1.1.2ZM21.9,5.5a2.2,2.2,0,1,1,4.4,0V42.7H21.9ZM16.4,45.9a1.1,1.1,0,0,1,1.1-1.1H30.6a1.1,1.1,0,0,1,1.1,1.1v3.3H16.4ZM3.3,54.7a3.3,3.3,0,0,1,3.3-3.3h35a3.2,3.2,0,0,1,3.2,3.3v1.1H3.3Zm26.2,5.5v6.5H27.3V58h6.6v8.7H31.7V60.2Zm-8.7,0v6.5H18.6V58h6.6v8.7H23V60.2Zm-8.8,0v6.5H9.8V58h6.6v8.7H14.2V60.2ZM5.5,58H7.7v8.7H5.5Zm35,8.7V60.2H38.3v6.5H36.1V58h6.6v8.7Zm20.1-7.2a3.2,3.2,0,0,1-3.2,2.8H44.8V58H47V54.7a5.5,5.5,0,0,0-5.4-5.5H33.9V45.9a3.1,3.1,0,0,0-.9-2.2l-1.2-12H63.3Zm6.1-31.1a1.1,1.1,0,0,1-1.1,1.1H29.5a1.1,1.1,0,0,1-1.1-1.1V26.3a1,1,0,0,1,1.1-1.1H65.6a1,1,0,0,1,1.1,1.1Z"/>
    <path class="cls-1" d="M65.6,13.1a3.3,3.3,0,1,0-3.3-3.3A3.3,3.3,0,0,0,65.6,13.1Zm0-4.3a1,1,0,0,1,1.1,1,1.1,1.1,0,0,1-2.2,0A1,1,0,0,1,65.6,8.8Z"/>
    <path class="cls-1" d="M41.6,10.9a3.2,3.2,0,0,0,3.2-3.2,3.2,3.2,0,0,0-3.2-3.3,3.3,3.3,0,1,0,0,6.5Zm0-4.3a1.1,1.1,0,1,1-1.1,1.1A1.1,1.1,0,0,1,41.6,6.6Z"/>
    <path class="cls-1" d="M56.9,9.8a4.3,4.3,0,0,0,4.3-4.3,4.4,4.4,0,0,0-4.3-4.4,4.4,4.4,0,0,0-4.4,4.4A4.4,4.4,0,0,0,56.9,9.8Zm0-6.5a2.2,2.2,0,1,1-2.2,2.2A2.2,2.2,0,0,1,56.9,3.3Z"/>
    <path class="cls-1" d="M49.2,58h2.2v2.2H49.2Z"/>
    <path class="cls-1" d="M38.3,33.9h2.2v2.2H38.3Z"/>
    <path class="cls-1" d="M33.9,33.9h2.2v2.2H33.9Z"/>
    <path class="cls-1" d="M42.7,33.9h2.1v2.2H42.7Z"/>
    <path class="cls-1" d="M6.6,39.4a3.3,3.3,0,0,0,0-6.6,3.3,3.3,0,1,0,0,6.6Zm0-4.4a1.1,1.1,0,1,1-1.1,1.1A1.1,1.1,0,0,1,6.6,35Z"/>
    <path class="cls-1" d="M13.1,26.3a4.4,4.4,0,0,0,0-8.8,4.4,4.4,0,0,0,0,8.8Zm0-6.6a2.2,2.2,0,1,1-2.2,2.2A2.2,2.2,0,0,1,13.1,19.7Z"/>
    <path class="cls-1" d="M6.6,14.2a3.2,3.2,0,0,0,3.2-3.3A3.2,3.2,0,0,0,6.6,7.7a3.2,3.2,0,0,0-3.3,3.2A3.3,3.3,0,0,0,6.6,14.2Zm0-4.4a1.1,1.1,0,1,1-1.1,1.1A1.1,1.1,0,0,1,6.6,9.8Z"/>
  </g>
</svg>
