<?xml version="1.0" encoding="utf-8"?>
<!-- Generator: Adobe Illustrator 23.0.1, SVG Export Plug-In . SVG Version: 6.00 Build 0)  -->
<svg version="1.1" id="Layer_1" xmlns="http://www.w3.org/2000/svg" xmlns:xlink="http://www.w3.org/1999/xlink" x="0px" y="0px"
	 viewBox="0 0 60 60" style="enable-background:new 0 0 60 60;" xml:space="preserve">
<g>
	<path d="M57.24,15.66h-1.43V5.15c0-0.53-0.43-0.96-0.96-0.96H5.15c-0.53,0-0.96,0.43-0.96,0.96v2.87H2.76
		c-1.32,0-2.39,1.07-2.39,2.39v43.01c0,1.32,1.07,2.39,2.39,2.39h54.48c1.32,0,2.39-1.07,2.39-2.39V18.05
		C59.63,16.73,58.56,15.66,57.24,15.66z M6.1,6.1H53.9v9.56H24.86L21.3,8.54c-0.16-0.32-0.49-0.53-0.86-0.53H6.1V6.1z M57.72,53.42
		c0,0.26-0.21,0.48-0.48,0.48H2.76c-0.26,0-0.48-0.21-0.48-0.48V10.4c0-0.26,0.21-0.48,0.48-0.48h17.09l3.56,7.12
		c0.16,0.32,0.49,0.53,0.86,0.53h32.98c0.26,0,0.48,0.21,0.48,0.48V53.42z"/>
	<path d="M30,21.4c-7.92,0-14.34,6.42-14.34,14.34S22.08,50.07,30,50.07s14.34-6.42,14.34-14.34C44.33,27.82,37.91,21.41,30,21.4z
		 M30,48.16c-6.86,0-12.43-5.56-12.43-12.43S23.14,23.31,30,23.31s12.43,5.56,12.43,12.43C42.42,42.59,36.86,48.15,30,48.16z"/>
	<path d="M36.97,31.24l-8.95,8.95l-4.11-3.29c-0.41-0.33-1.01-0.26-1.34,0.15c-0.33,0.41-0.26,1.01,0.15,1.34l4.78,3.82
		c0.38,0.3,0.93,0.27,1.27-0.07l9.56-9.56c0.37-0.37,0.37-0.98,0-1.35C37.95,30.86,37.34,30.86,36.97,31.24L36.97,31.24z"/>
</g>
</svg>
