<?xml version="1.0" encoding="utf-8"?>
<!-- Generator: Adobe Illustrator 23.0.1, SVG Export Plug-In . SVG Version: 6.00 Build 0)  -->
<svg version="1.1" id="Layer_1" xmlns="http://www.w3.org/2000/svg" xmlns:xlink="http://www.w3.org/1999/xlink" x="0px" y="0px"
	 viewBox="0 0 500 500" style="enable-background:new 0 0 500 500;" xml:space="preserve">
<g>
	<path d="M492.18,244.42L255.58,7.82c-3.08-3.08-8.07-3.08-11.15,0L7.82,244.42c-3.08,3.08-3.08,8.07,0,11.15
		c1.48,1.48,3.48,2.31,5.57,2.31h39.43v189.29h-7.89c-4.36,0-7.89,3.53-7.89,7.89v31.55c0,4.36,3.53,7.89,7.89,7.89h410.12
		c4.36,0,7.89-3.53,7.89-7.89v-31.55c0-4.36-3.53-7.89-7.89-7.89h-7.89V257.89h39.43c4.36,0,7.89-3.53,7.89-7.89
		C494.49,247.91,493.66,245.9,492.18,244.42z M447.17,478.72H52.83v-15.77h394.35V478.72z M68.6,447.17V253.26L250,71.87
		l181.4,181.4v193.91H68.6z M442.55,242.11L255.58,55.14c-3.08-3.08-8.07-3.08-11.15,0L57.45,242.11H32.43L250,24.54l217.57,217.57
		H442.55z"/>
	<path d="M320.98,305.21h-39.43v-23.66c0-4.36-3.53-7.89-7.89-7.89h-47.32c-4.36,0-7.89,3.53-7.89,7.89v23.66h-39.43
		c-13.07,0-23.66,10.59-23.66,23.66v31.55c0,4.36,3.53,7.89,7.89,7.89h7.89v55.21c0,4.36,3.53,7.89,7.89,7.89h141.96
		c4.36,0,7.89-3.53,7.89-7.89V368.3h7.89c4.36,0,7.89-3.53,7.89-7.89v-31.55C344.64,315.8,334.05,305.21,320.98,305.21z
		 M234.23,289.43h31.55v15.77h-31.55V289.43z M313.1,415.62H186.9V368.3h39.43v23.66c0,4.36,3.53,7.89,7.89,7.89h31.55
		c4.36,0,7.89-3.53,7.89-7.89V368.3h39.43V415.62z M242.11,368.3h15.77v15.77h-15.77V368.3z M328.87,352.53H171.13v-23.66
		c0-4.36,3.53-7.89,7.89-7.89h141.96c4.36,0,7.89,3.53,7.89,7.89V352.53z"/>
	<path d="M360.42,242.11H332.2c-4.36,0-7.89-3.53-7.89-7.89s3.53-7.89,7.89-7.89h28.22c4.36,0,7.89-3.54,7.88-7.89
		c0-1.08-0.22-2.16-0.66-3.15c-10.42-23.93-38.27-34.88-62.2-24.46c-9.28,4.04-17.02,10.96-22.07,19.73h-63.41
		c-13.03-22.61-41.93-30.38-64.54-17.34c-8.77,5.06-15.69,12.79-19.73,22.07c-1.74,3.99,0.08,8.64,4.07,10.38
		c0.99,0.43,2.07,0.66,3.15,0.66h28.22c4.36,0,7.89,3.53,7.89,7.89s-3.53,7.89-7.89,7.89h-28.22c-4.36,0-7.89,3.54-7.88,7.89
		c0,1.08,0.22,2.16,0.66,3.15c10.42,23.93,38.27,34.88,62.2,24.46c9.28-4.04,17.02-10.96,22.07-19.73h63.41
		c13.03,22.61,41.93,30.38,64.54,17.34c8.77-5.06,15.69-12.79,19.73-22.07c1.74-3.99-0.08-8.64-4.07-10.38
		C362.57,242.34,361.5,242.11,360.42,242.11z M324.31,265.77c-12.53-0.01-23.87-7.44-28.88-18.93c-1.25-2.87-4.09-4.73-7.22-4.73
		h-73.08c-3.13,0-5.97,1.86-7.22,4.73c-6.94,15.94-25.48,23.24-41.42,16.3c-3.01-1.31-5.8-3.09-8.26-5.26h12.92
		c13.07,0,23.66-10.59,23.66-23.66s-10.59-23.66-23.66-23.66h-12.94c13.04-11.5,32.93-10.26,44.43,2.78
		c2.17,2.46,3.95,5.25,5.26,8.26c1.25,2.87,4.09,4.73,7.22,4.73h73.08c3.13,0,5.97-1.86,7.22-4.73
		c6.94-15.94,25.48-23.24,41.42-16.3c3.01,1.31,5.8,3.09,8.26,5.26h-12.93c-13.07,0-23.66,10.59-23.66,23.66
		s10.59,23.66,23.66,23.66h12.93C339.36,262.96,331.97,265.76,324.31,265.77z"/>
</g>
</svg>
