<?xml version="1.0" encoding="utf-8"?>
<!-- Generator: Adobe Illustrator 23.0.1, SVG Export Plug-In . SVG Version: 6.00 Build 0)  -->
<svg version="1.1" id="Layer_1" xmlns="http://www.w3.org/2000/svg" xmlns:xlink="http://www.w3.org/1999/xlink" x="0px" y="0px"
	 viewBox="0 0 70 70" style="enable-background:new 0 0 70 70;" xml:space="preserve">
<g>
	<path d="M64.61,43.93c-0.96,0-1.74,0.78-1.74,1.75v15.56c0,2.9-2.34,5.25-5.23,5.26H8.72c-2.89,0-5.23-2.35-5.23-5.26V15.58
		c0-2.9,2.34-5.25,5.23-5.26H24.2c0.96,0,1.74-0.78,1.74-1.75c0-0.97-0.78-1.75-1.74-1.75H8.72C3.9,6.82,0.01,10.74,0,15.58v45.66
		c0.01,4.84,3.9,8.76,8.72,8.76h48.92c4.81-0.01,8.71-3.92,8.72-8.76V45.68C66.35,44.71,65.57,43.93,64.61,43.93z"/>
	<path d="M65.66,2.31c-3.06-3.08-8.03-3.08-11.09,0l-31.1,31.26c-0.21,0.21-0.37,0.48-0.45,0.77l-4.09,14.84
		c-0.17,0.61,0,1.26,0.45,1.71c0.44,0.45,1.09,0.62,1.7,0.45l14.77-4.11c0.29-0.08,0.55-0.24,0.77-0.45l31.1-31.26
		c3.06-3.08,3.06-8.07,0-11.15L65.66,2.31z M27.26,34.71L52.72,9.12l8.21,8.25L35.47,42.96L27.26,34.71z M25.62,38.02l6.56,6.59
		l-9.07,2.53L25.62,38.02z M65.24,13.04l-1.85,1.86l-8.21-8.25l1.85-1.86c1.7-1.71,4.46-1.71,6.16,0l2.05,2.06
		C66.94,8.56,66.94,11.33,65.24,13.04z"/>
</g>
</svg>
