<svg id="Layer_1" data-name="Layer 1" xmlns="http://www.w3.org/2000/svg" width="70" height="70" viewBox="0 0 70 70">
  <defs>
    <style>
      .cls-1 {
        fill: #96b2cb;
      }
    </style>
  </defs>
  <title>electrician</title>
  <g id="outline">
    <path class="cls-1" d="M48.9,30.1c2.3-3.9,4.5-7.5,4.5-11.2a18.4,18.4,0,0,0-36.8,0c0,3.7,2.2,7.3,4.5,11.2s4.2,7,4.7,10.7v3.4H24.7a1.1,1.1,0,0,0-1.2,1.1v3.5a1.1,1.1,0,0,0,.3.7l3.1,3.9a3.5,3.5,0,0,0-3.4,3.5,3.1,3.1,0,0,0,.9,2.2,3.5,3.5,0,0,0,.2,4.9,4.2,4.2,0,0,0,1.8.8l4.3,4.3a1.1,1.1,0,0,0,.9.4h6.8a1.1,1.1,0,0,0,.9-.4l4.3-4.3a3.6,3.6,0,0,0,2.9-3.9,3.4,3.4,0,0,0-.9-1.8,3.4,3.4,0,0,0-.2-4.8,3.2,3.2,0,0,0-2.3-.9l3.1-3.9a1.1,1.1,0,0,0,.3-.7V45.3a1.1,1.1,0,0,0-1.2-1.1H44.2V40.8c.5-3.7,2.7-7.2,4.7-10.7ZM38,67.2H32l-2.3-2.3H40.3Zm5-4.6H27a1.2,1.2,0,0,1-1.2-1.2A1.1,1.1,0,0,1,27,60.3H43a1.1,1.1,0,0,1,1.2,1.1A1.2,1.2,0,0,1,43,62.6Zm1.2-5.8A1.2,1.2,0,0,1,43,58H27a1.2,1.2,0,0,1-1.2-1.2A1.1,1.1,0,0,1,27,55.7H43A1.1,1.1,0,0,1,44.2,56.8Zm0-8.4-4,5H29.8l-4-5V46.5H44.2ZM33.7,36.7l-2.1-3.2V31.6h6.8v1.9l-2.1,3.2c-.1.2-.1.4-.2.6v6.9H33.9V37.3a1.1,1.1,0,0,0-.2-.6Zm8.2,3.9h0v3.5H38.4V37.6l2.2-3.1a1.3,1.3,0,0,0,.1-.6V31.6h1.2a3.5,3.5,0,0,0,3.4-3.5,3.4,3.4,0,0,0-3.4-3.4,3.5,3.5,0,0,0-3.5,3.4v1.2H31.6V28.1a3.5,3.5,0,0,0-3.5-3.4,3.4,3.4,0,0,0-3.4,3.4,3.5,3.5,0,0,0,3.4,3.5h1.2v2.3a1.3,1.3,0,0,0,.1.6l2.2,3.1v6.6H28.1V40.7h0c-.6-4.2-2.9-8-5.1-11.7s-4.1-6.9-4.1-10a16.1,16.1,0,0,1,32.2,0c0,3.1-2,6.4-4.1,10s-4.5,7.5-5.1,11.7ZM40.7,29.3V28.1A1.2,1.2,0,0,1,41.9,27,1.1,1.1,0,0,1,43,28.1a1.2,1.2,0,0,1-1.1,1.2ZM29.3,28.1v1.2H28.1A1.2,1.2,0,0,1,27,28.1,1.1,1.1,0,0,1,28.1,27,1.2,1.2,0,0,1,29.3,28.1Z"/>
    <path class="cls-1" d="M48.8,17.8C48.8,11,42.3,5.1,35,5.1V7.4c5.4,0,11.5,4.4,11.5,10.4Z"/>
    <path class="cls-1" d="M46.5,20.1h2.3v2.3H46.5Z"/>
    <path class="cls-1" d="M29.3,48.8h2.3v2.3H29.3Z"/>
    <path class="cls-1" d="M33.9,48.8h2.2v2.3H33.9Z"/>
    <path class="cls-1" d="M38.4,48.8h2.3v2.3H38.4Z"/>
    <path class="cls-1" d="M55.7,17.8h6.9v2.3H55.7Z"/>
    <path class="cls-1" d="M55,13.4,59.6,10,61,11.8l-4.6,3.4Z"/>
    <path class="cls-1" d="M55,24.4l1.4-1.8L61,26l-1.4,1.9Z"/>
    <path class="cls-1" d="M7.4,17.8h6.9v2.3H7.4Z"/>
    <path class="cls-1" d="M9,11.8,10.4,10,15,13.4l-1.4,1.8Z"/>
    <path class="cls-1" d="M9,26l4.6-3.4L15,24.4l-4.6,3.5Z"/>
  </g>
</svg>
