<?xml version="1.0" encoding="utf-8"?>
<!-- Generator: Adobe Illustrator 23.0.1, SVG Export Plug-In . SVG Version: 6.00 Build 0)  -->
<svg version="1.1" id="Layer_1" xmlns="http://www.w3.org/2000/svg" xmlns:xlink="http://www.w3.org/1999/xlink" x="0px" y="0px"
	 viewBox="0 0 70 70" style="enable-background:new 0 0 70 70;" xml:space="preserve">
<g>
	<g>
		<g>
			<path d="M1.88,13.29c9.49,8.03,26.13,22.17,31.02,26.57c0.66,0.59,1.36,0.9,2.09,0.9c0.73,0,1.43-0.3,2.09-0.89
				c4.9-4.41,21.54-18.55,31.03-26.58c0.59-0.5,0.68-1.38,0.2-1.99c-1.11-1.41-2.75-2.22-4.52-2.22H6.2c-1.77,0-3.41,0.81-4.52,2.22
				C1.2,11.91,1.29,12.79,1.88,13.29z"/>
			<path d="M68.72,17.64c-0.51-0.24-1.11-0.15-1.54,0.21C56.67,26.77,43.24,38.2,39.02,42c-2.37,2.14-5.66,2.14-8.04,0
				c-4.5-4.06-19.58-16.87-28.17-24.15c-0.43-0.36-1.03-0.44-1.54-0.21c-0.51,0.24-0.84,0.75-0.84,1.31v36.21
				c0,3.18,2.58,5.76,5.76,5.76h57.6c3.18,0,5.76-2.58,5.76-5.76V18.95C69.56,18.39,69.23,17.88,68.72,17.64z"/>
		</g>
	</g>
</g>
</svg>
