<svg id="Layer_1" data-name="Layer 1" xmlns="http://www.w3.org/2000/svg" width="70" height="70" viewBox="0 0 70 70">
  <defs>
    <style>
      .cls-1 {
        fill: #96b2cb;
      }
    </style>
  </defs>
  <title>extra_category</title>
  <g>
    <path class="cls-1" d="M38.6,33.9H32.7A8.2,8.2,0,0,0,24.6,42v8.1a2.3,2.3,0,0,0,2.3,2.3H43.1a2.3,2.3,0,0,0,2.4-2.3V42A8.3,8.3,0,0,0,38.6,33.9Zm-1.9,2.3-1.7,4-1.7-4ZM26.9,42a5.7,5.7,0,0,1,4-5.5l2.9,6.9v6.7H26.9Zm16.2,8.1H36.2V43.4l2.9-6.9a5.7,5.7,0,0,1,4,5.5Z"/>
    <path class="cls-1" d="M38.5,40.8h2.3v2.3H38.5Z"/>
    <path class="cls-1" d="M40.8,28V25.7A1.2,1.2,0,0,0,42,24.5V23.4a5.8,5.8,0,0,0-5.8-5.8H33.8A5.8,5.8,0,0,0,28,23.4v1.1a1.2,1.2,0,0,0,1.2,1.2V28a5.8,5.8,0,1,0,11.6,0Zm-7-8.1h2.4a3.5,3.5,0,0,1,3.5,3.5H35.3l-2.1-1.1a1.1,1.1,0,0,0-1.3.3l-.9.8h-.6A3.5,3.5,0,0,1,33.8,19.9ZM35,31.5A3.5,3.5,0,0,1,31.5,28V25.7a1.1,1.1,0,0,0,.8-.3l.6-.6,1.6.8h4V28A3.5,3.5,0,0,1,35,31.5Z"/>
    <path class="cls-1" d="M33.8,9.3v6h2.4v-6a4.7,4.7,0,0,0,3.4-5.1,4.6,4.6,0,0,0-9.2,0A4.7,4.7,0,0,0,33.8,9.3ZM35,2.5a2.3,2.3,0,0,1,2.3,2.3,2.3,2.3,0,1,1-4.6,0A2.3,2.3,0,0,1,35,2.5Z"/>
    <path class="cls-1" d="M18.3,13.6a4.3,4.3,0,0,0-1.4-3.2,4.6,4.6,0,0,0-6.5,0,4.5,4.5,0,0,0-.4,6.1,4.6,4.6,0,0,0,6,1.1l4.2,4.3,1.7-1.7L17.6,16A4,4,0,0,0,18.3,13.6ZM12,15.3a2.3,2.3,0,1,1,3.3,0A2.4,2.4,0,0,1,12,15.3Z"/>
    <path class="cls-1" d="M36.2,60.7v-6H33.8v6a4.6,4.6,0,1,0,2.4,0ZM35,67.5a2.3,2.3,0,1,1,2.3-2.3A2.3,2.3,0,0,1,35,67.5Z"/>
    <path class="cls-1" d="M54,52.4l-4.2-4.3-1.7,1.7L52.4,54a4.6,4.6,0,0,0,7.5,5.3A4.6,4.6,0,0,0,54,52.4ZM58,58a2.3,2.3,0,1,1,0-3.3A2.4,2.4,0,0,1,58,58Z"/>
    <path class="cls-1" d="M65.2,30.4a4.7,4.7,0,0,0-4.5,3.4H54.8v2.4h5.9A4.7,4.7,0,0,0,66,39.6a4.6,4.6,0,0,0-.8-9.2Zm0,6.9A2.3,2.3,0,1,1,67.5,35,2.3,2.3,0,0,1,65.2,37.3Z"/>
    <path class="cls-1" d="M15.3,36.2V33.8h-6a4.7,4.7,0,0,0-5.1-3.4,4.6,4.6,0,0,0,0,9.2,4.7,4.7,0,0,0,5.1-3.4ZM4.8,37.3a2.3,2.3,0,0,1,0-4.6,2.3,2.3,0,1,1,0,4.6Z"/>
    <path class="cls-1" d="M20.2,48.1,16,52.4a4.5,4.5,0,0,0-5.6.7,4.5,4.5,0,0,0-.3,6.3,4.6,4.6,0,0,0,6.2.8A4.6,4.6,0,0,0,17.6,54l4.3-4.2ZM15.3,58a2.3,2.3,0,1,1,0-3.3A2.4,2.4,0,0,1,15.3,58Z"/>
    <path class="cls-1" d="M49.8,21.9,54,17.6a4.6,4.6,0,0,0,6-1.1,4.5,4.5,0,0,0-.4-6.1A4.6,4.6,0,0,0,52.4,16l-4.3,4.2ZM54.7,12a2.3,2.3,0,1,1,0,3.3,2.4,2.4,0,0,1,0-3.3Z"/>
  </g>
</svg>
