<?xml version="1.0" encoding="utf-8"?>
<!-- Generator: Adobe Illustrator 23.0.1, SVG Export Plug-In . SVG Version: 6.00 Build 0)  -->
<svg version="1.1" id="Layer_1" xmlns="http://www.w3.org/2000/svg" xmlns:xlink="http://www.w3.org/1999/xlink" x="0px" y="0px"
	 viewBox="0 0 500 500" style="enable-background:new 0 0 500 500;" xml:space="preserve">
<g>
	<path id="Shape" d="M229.75,141.91c25.9,17.35,62.15,16.45,92.25,7.87c4.98,12.79,8.3,26.17,9.87,39.81l0.28,19.29H217.12
		c-4.73,0-9.23,2.04-12.36,5.59s-4.56,8.28-3.95,12.97l7.48,57.57c1.05,8.11,7.9,14.21,16.08,14.33l23.64,183.05
		c1.09,8.18,8.06,14.3,16.32,14.32h152.29c8.26-0.02,15.24-6.15,16.32-14.34l23.64-183.03c8.17-0.11,15.01-6.2,16.08-14.3
		c8.38-64.47,7.48-56.74,7.48-57.57c0.62-4.7-0.82-9.43-3.94-12.99c-3.12-3.56-7.63-5.6-12.37-5.6H348.7l0.39-19.26
		c1.5-13.66,4.82-27.06,9.87-39.84c30.08,8.6,66.34,9.47,92.24-7.88c39.47-26.42,45.23-87.27,45.49-89.85c0.01-0.5-0.03-1-0.12-1.49
		c-0.05-1.34-0.47-2.63-1.22-3.74v-0.07c-0.08-0.12-0.21-0.18-0.3-0.3c-0.69-0.99-1.63-1.78-2.73-2.29
		c-0.33-0.22-0.68-0.41-1.04-0.58c-2.37-0.82-58.55-20.52-98.19,6.02c-35.64,23.85-43.79,75.66-45.23,87.42
		c-3.38,4.63-5.89,9.84-7.4,15.37c-1.52-5.55-4.03-10.78-7.4-15.44c-1.44-11.86-9.63-63.52-45.23-87.34
		c-39.6-26.53-95.78-6.85-98.16-6.03c-0.36,0.16-0.71,0.36-1.04,0.58c-1.09,0.51-2.04,1.3-2.73,2.29c-0.08,0.12-0.21,0.17-0.3,0.3
		c-0.76,1.13-1.19,2.45-1.24,3.81c-0.1,0.49-0.15,0.99-0.15,1.5C184.49,54.64,190.28,115.48,229.75,141.91L229.75,141.91z
		 M203.97,68.92l101.4,67.89C249.51,147.48,217.5,125.3,203.97,68.92z M416.62,480.26H264.34l-23.36-180.92h199.01L416.62,480.26z
		 M456.35,282.89H224.61l-7.48-57.57h246.71L456.35,282.89z M375.65,136.79l101.39-67.89C463.49,125.53,431.32,147.37,375.65,136.79
		z M468.65,54.74L367.29,122.6C380.78,66.61,412.36,44.05,468.65,54.74z M278.73,63.32c20.82,13.98,30.58,41.12,34.96,59.33
		L212.28,54.71C229.95,51.33,257.84,49.34,278.73,63.32z"/>
	<path d="M258.24,241.78H241.8c-4.54,0-8.22,3.68-8.22,8.22s3.68,8.22,8.22,8.22h16.45c4.54,0,8.22-3.68,8.22-8.22
		S262.79,241.78,258.24,241.78z"/>
	<path d="M291.14,241.78c-4.54,0-8.22,3.68-8.22,8.22s3.68,8.22,8.22,8.22h57.57c4.54,0,8.22-3.68,8.22-8.22s-3.68-8.22-8.22-8.22
		H291.14z"/>
	<path d="M93.77,496.71c48.59,0,90.46-127.65,90.46-190.32c0-57.92-32.81-74.97-65.79-79.52v-34.65
		c10.32-7.7,16.41-19.81,16.45-32.68V44.41c0-22.71-18.41-41.12-41.12-41.12S52.65,21.7,52.65,44.41v115.13
		c0.04,12.87,6.13,24.98,16.45,32.68v34.65c-32.98,4.55-65.79,21.6-65.79,79.52C3.31,369.06,45.18,496.71,93.77,496.71z
		 M108.63,242.41c-4.32,39.94-10.75,59.63-14.86,64.46c-4.11-4.83-10.54-24.51-14.86-64.46C88.8,241.56,98.74,241.56,108.63,242.41
		L108.63,242.41z M69.1,44.41c0-13.63,11.05-24.67,24.67-24.67s24.67,11.05,24.67,24.67v115.13c0,13.63-11.05,24.67-24.67,24.67
		S69.1,173.16,69.1,159.54V44.41z M85.55,199.84c5.43,1.11,11.02,1.11,16.45,0v25.66c-5.68-0.21-10.62-0.21-16.45,0V199.84z
		 M62.63,244.85c8.55,79.16,24.29,79.16,31.14,79.16c6.85,0,22.59,0,31.14-79.16c30.02,6.93,42.87,26.11,42.87,61.54
		c0,62.95-42.76,173.87-74.01,173.87S19.76,369.34,19.76,306.39C19.76,270.96,32.61,251.78,62.63,244.85L62.63,244.85z"/>
	<circle id="Oval" cx="93.77" cy="44.41" r="8.22"/>
</g>
</svg>
