<svg id="Layer_1" data-name="Layer 1" xmlns="http://www.w3.org/2000/svg" width="70" height="70" viewBox="0 0 70 70">
  <defs>
    <style>
      .cls-1 {
        fill: #96b2cb;
      }
    </style>
  </defs>
  <title>gas</title>
  <g id="Page-1">
    <g>
      <path id="Shape" class="cls-1" d="M21.9,23.4h.5a.9.9,0,0,0,1-.6A44.6,44.6,0,0,1,32.6,11,1.2,1.2,0,0,0,31,9.3a45.3,45.3,0,0,0-9.6,12.6A1.1,1.1,0,0,0,21.9,23.4Z"/>
      <path class="cls-1" d="M1.9,69.2H68.1a1.1,1.1,0,1,0,0-2.2H67V55.5a3.7,3.7,0,0,0-1-2.4l-5.3-5.2a3.3,3.3,0,0,0-3.3-.9A3.3,3.3,0,0,0,55,49.4a3.3,3.3,0,0,0,.9,3.3L60.1,57V67H57.8V62.4A6.9,6.9,0,0,0,51,55.5H41.8V50.9a13.9,13.9,0,0,0,3.5-1.6h.2a18.5,18.5,0,0,0,3.9-3,19.8,19.8,0,0,0,6.1-14.6c0-16.2-17.2-29-19.2-30.4a2.1,2.1,0,0,0-2.6,0c-2,1.4-18.9,14-19.2,29.9a19.7,19.7,0,0,0,5.8,14.7,20.1,20.1,0,0,0,4.3,3.4h0a14.9,14.9,0,0,0,3.6,1.7v4.6H19a6.9,6.9,0,0,0-6.8,6.9V67H9.9V57l4.2-4.3a3.3,3.3,0,0,0,.9-3.3A3.3,3.3,0,0,0,12.6,47a3.3,3.3,0,0,0-3.3.9L4,53.1a3.7,3.7,0,0,0-1,2.4V67H1.9a1.1,1.1,0,0,0,0,2.2ZM62.1,55.7l-4.6-4.6a1.1,1.1,0,1,1,1.6-1.6l5.2,5.2a1,1,0,0,1,.4.8V67H62.4V56.5a1.1,1.1,0,0,0-.3-.8ZM26,47.4A11.9,11.9,0,0,1,23.6,40c.2-8.5,7.5-16.1,11.4-19.5C38.9,24,46.4,31.6,46.4,40.3a12.3,12.3,0,0,1-2.3,7.1l-2.7,1.3A9.3,9.3,0,0,0,43,43.6c0-5.9-5.1-11-7.3-12.9a1.1,1.1,0,0,0-1.5,0c-2.1,1.9-7.1,6.9-7.2,12.7a8.7,8.7,0,0,0,1.6,5.2A12.3,12.3,0,0,1,26,47.4Zm5,.5a6.2,6.2,0,0,1-1.7-4.5c.1-4.3,3.6-8.3,5.7-10.3,2.2,2.1,5.7,6.1,5.7,10.5a6,6,0,0,1-5.2,6.2h-.6A4.9,4.9,0,0,1,31,47.9ZM16.7,31.1C17.1,16.3,33.2,4.4,35,3c1.9,1.4,18.3,13.6,18.3,28.6a18,18,0,0,1-5.2,12.6,13.2,13.2,0,0,0,.6-3.9c0-10.2-9.1-18.9-13-22.2a1.2,1.2,0,0,0-1.4,0c-3.9,3.3-12.8,11.8-13,21.8a14.7,14.7,0,0,0,.6,4.2,17.9,17.9,0,0,1-5.2-13ZM30.4,51.6a21,21,0,0,0,4.3.5H35a24,24,0,0,0,4.6-.5v3.9H30.4ZM14.5,63.5H19a1.1,1.1,0,1,0,0-2.2H14.6A4.5,4.5,0,0,1,19,57.8H51a4.5,4.5,0,0,1,4.4,3.5H25.9a1.1,1.1,0,1,0,0,2.2H55.5V67h-41Zm-9.2-8a1,1,0,0,1,.4-.8l5.2-5.2a1.1,1.1,0,1,1,1.6,1.6L7.9,55.7a1.1,1.1,0,0,0-.3.8V67H5.3Z"/>
      <circle id="Oval" class="cls-1" cx="35" cy="7.6" r="1.1"/>
    </g>
  </g>
</svg>
