<?xml version="1.0" encoding="utf-8"?>
<!-- Generator: Adobe Illustrator 23.0.1, SVG Export Plug-In . SVG Version: 6.00 Build 0)  -->
<svg version="1.1" id="Layer_1" xmlns="http://www.w3.org/2000/svg" xmlns:xlink="http://www.w3.org/1999/xlink" x="0px" y="0px"
	 viewBox="0 0 500 500" style="enable-background:new 0 0 500 500;" xml:space="preserve">
<g>
	<path d="M186.93,230.22h18.36c0,3.9,3.16,7.06,7.06,7.06s7.06-3.16,7.06-7.06v-7.06c0-3.9-3.16-7.06-7.06-7.06h-25.42
		c-3.9,0-7.06,3.16-7.06,7.06C179.87,227.06,183.03,230.22,186.93,230.22z"/>
	<path d="M287.66,237.28c3.9,0,7.06-3.16,7.06-7.06h18.36c3.9,0,7.06-3.16,7.06-7.06c0-3.9-3.16-7.06-7.06-7.06h-25.42
		c-3.9,0-7.06,3.16-7.06,7.06v7.06C280.6,234.12,283.76,237.28,287.66,237.28z"/>
	<path d="M130.15,262.56c3.37,63.19,55.84,113.57,119.85,113.57s116.49-50.38,119.85-113.57c18.79-3.28,33.12-19.69,33.12-39.4
		c0-10.98-4.45-20.94-11.63-28.17c6.89-3.5,11.63-10.65,11.63-18.9c0-10.89-8.26-19.89-18.85-21.05
		c-0.46-28.86-9.92-56.17-27.44-79.11c-16.3-21.35-38.99-37.53-64.32-45.98V20.5c0-3.22-2.18-6.03-5.3-6.84
		c-24.09-6.2-50.04-6.2-74.13,0c-3.12,0.8-5.3,3.62-5.3,6.84v9.45c-25.34,8.45-48.02,24.63-64.33,45.98
		c-17.52,22.94-26.98,50.25-27.44,79.11c-10.59,1.16-18.85,10.16-18.85,21.05c0,8.24,4.74,15.4,11.63,18.9
		c-7.18,7.24-11.63,17.19-11.63,28.17C97.02,242.87,111.36,259.29,130.15,262.56L130.15,262.56z M292.36,44.93
		c45.44,17.17,76.64,60.94,77.62,109.97h-77.62V44.93z M207.64,44.93v37.01c0,3.9,3.16,7.06,7.06,7.06s7.06-3.16,7.06-7.06V26.09
		c18.47-3.95,38.01-3.95,56.48,0v128.82h-56.48v-44.72c0-3.9-3.16-7.06-7.06-7.06s-7.06,3.16-7.06,7.06v44.72h-77.62
		C130.99,105.87,162.2,62.1,207.64,44.93z M118.2,169.03H381.8c3.89,0,7.06,3.17,7.06,7.06s-3.17,7.06-7.06,7.06H118.2
		c-3.89,0-7.06-3.17-7.06-7.06S114.31,169.03,118.2,169.03z M129.97,198.25v10.79c0,3.9,3.16,7.06,7.06,7.06s7.06-3.16,7.06-7.06
		v-11.77h211.82v11.77c0,3.9,3.16,7.06,7.06,7.06s7.06-3.16,7.06-7.06v-10.79c10.85,3.08,18.83,13.08,18.83,24.91
		c0,11.83-7.98,21.82-18.83,24.9v-10.78c0-3.9-3.16-7.06-7.06-7.06s-7.06,3.16-7.06,7.06v18.83c0,58.4-47.51,105.91-105.91,105.91
		c-58.4,0-105.91-47.51-105.91-105.91v-18.83c0-3.9-3.16-7.06-7.06-7.06s-7.06,3.16-7.06,7.06v10.78
		c-10.85-3.08-18.83-13.08-18.83-24.9C111.14,211.33,119.12,201.33,129.97,198.25z"/>
	<path d="M221.47,279.59c7.62,7.62,17.75,11.82,28.53,11.82c10.78,0,20.91-4.2,28.53-11.82c2.76-2.76,2.76-7.23,0-9.99
		c-2.76-2.76-7.23-2.76-9.99,0c-4.95,4.95-11.54,7.68-18.54,7.68c-7,0-13.59-2.73-18.54-7.68c-2.76-2.76-7.23-2.76-9.98,0
		C218.72,272.37,218.72,276.84,221.47,279.59L221.47,279.59z"/>
	<path d="M427.45,390.26H163.12c-2.91-8.22-10.76-14.12-19.97-14.12c-5.42,0-10.37,2.05-14.12,5.41c-3.75-3.36-8.7-5.41-14.12-5.41
		c-5.42,0-10.37,2.05-14.12,5.41c-3.75-3.36-8.7-5.41-14.12-5.41c-2.47,0-4.85,0.43-7.06,1.21v-22.41
		c8.8-6.62,14.12-17.09,14.12-28.23v-28.24c0-3.9-3.16-7.06-7.06-7.06h-7.06v-21.18c0-3.9-3.16-7.06-7.06-7.06s-7.06,3.16-7.06,7.06
		v21.18H51.36v-21.18c0-3.9-3.16-7.06-7.06-7.06s-7.06,3.16-7.06,7.06v21.18h-7.06c-3.9,0-7.06,3.16-7.06,7.06v28.24
		c0,11.14,5.32,21.61,14.12,28.23v22.41c-2.21-0.78-4.59-1.21-7.06-1.21C18.5,376.14,9,385.64,9,397.32v86.61
		c0,3.9,3.16,7.06,7.06,7.06h467.88c3.9,0,7.06-3.16,7.06-7.06V453.8C491,418.76,462.49,390.26,427.45,390.26z M37.24,476.87H23.12
		v-79.55c0-3.89,3.17-7.06,7.06-7.06s7.06,3.17,7.06,7.06V476.87z M69.01,345.06c-2.18,1.26-3.52,3.59-3.52,6.11v125.7H51.36v-125.7
		c0-2.52-1.34-4.85-3.52-6.11c-6.54-3.78-10.6-10.81-10.6-18.34v-21.18h42.36v21.18C79.61,334.25,75.55,341.27,69.01,345.06z
		 M93.73,476.87H79.61v-79.55c0-3.89,3.17-7.06,7.06-7.06s7.06,3.17,7.06,7.06V476.87z M121.97,476.87h-14.12v-79.55
		c0-3.89,3.17-7.06,7.06-7.06c3.89,0,7.06,3.17,7.06,7.06V476.87z M150.21,476.87h-14.12v-79.55c0-3.89,3.17-7.06,7.06-7.06
		s7.06,3.17,7.06,7.06V476.87z M242.94,476.87h-78.61v-72.49h39.39l39.21,40.07V476.87z M223.49,404.38h53.03L250,431.47
		L223.49,404.38z M476.88,476.87H257.06v-32.42l39.21-40.07h131.18c27.25,0,49.42,22.17,49.42,49.42V476.87z"/>
</g>
</svg>
