<?xml version="1.0" encoding="utf-8"?>
<!-- Generator: Adobe Illustrator 23.0.1, SVG Export Plug-In . SVG Version: 6.00 Build 0)  -->
<svg version="1.1" id="Layer_1" xmlns="http://www.w3.org/2000/svg" xmlns:xlink="http://www.w3.org/1999/xlink" x="0px" y="0px"
	 viewBox="0 0 500 500" style="enable-background:new 0 0 500 500;" xml:space="preserve">
<g>
	<path d="M489.11,231.67L262.63,46.57c-7.36-6.01-17.92-6.01-25.27,0l-58.01,47.42V69.38c0-5.32-4.3-9.61-9.62-9.61h-55.82
		c-5.32,0-9.62,4.3-9.62,9.61v85.96l-93.4,76.33c-4.12,3.36-4.72,9.42-1.36,13.53c1.9,2.32,4.67,3.54,7.47,3.54
		c2.14,0,4.28-0.72,6.07-2.17l48.49-39.64v241.39c0,5.31,4.3,9.62,9.61,9.62h337.68c5.31,0,9.62-4.3,9.62-9.62V206.94l48.49,39.64
		c1.79,1.46,3.94,2.17,6.07,2.17c2.78,0,5.55-1.22,7.46-3.54C493.83,241.08,493.23,235.03,489.11,231.67z M123.53,78.99h36.59v30.72
		l-36.59,29.91V78.99z M409.23,438.7H90.77V191.22L241.77,67.81c4.79-3.92,11.67-3.92,16.46,0l151,123.41V438.7z"/>
</g>
</svg>
