<svg id="Layer_1" data-name="Layer 1" xmlns="http://www.w3.org/2000/svg" width="500" height="500" viewBox="0 0 500 500">
  <title>home appliences-01</title>
  <path d="M474.6,219.5H388.9V141.1h70.3a22.8,22.8,0,0,0,22.7-22.8V25.4A22.8,22.8,0,0,0,459.2,2.6h-155a22.8,22.8,0,0,0-22.7,22.8V64.6H234V40.8A38.3,38.3,0,0,0,195.8,2.6H40.8A38.3,38.3,0,0,0,2.6,40.8V474.6a22.8,22.8,0,0,0,22.8,22.8H211.3A22.8,22.8,0,0,0,234,474.6V365.7h32V474.6a22.8,22.8,0,0,0,22.7,22.8H474.6a22.8,22.8,0,0,0,22.8-22.8V242.3A22.8,22.8,0,0,0,474.6,219.5Zm8.3,22.8v39.2H418.4a23.1,23.1,0,0,0,1.5-8.3,22.8,22.8,0,0,0-45.5,0,23.1,23.1,0,0,0,1.6,8.3H358V257.7a7.3,7.3,0,0,0-7.3-7.2H304.2a7.2,7.2,0,0,0-7.2,7.2v23.8H280.5V242.3a8.3,8.3,0,0,1,8.2-8.3H474.6A8.3,8.3,0,0,1,482.9,242.3Zm-94,30.9a8.3,8.3,0,1,1,8.3,8.3A8.3,8.3,0,0,1,388.9,273.2Zm-77.4,8.3V265h32v16.5ZM459.2,126.6H435.4v-63h32v54.7A8.3,8.3,0,0,1,459.2,126.6Zm8.2-101.2V49.1h-32v-32h23.8A8.3,8.3,0,0,1,467.4,25.4ZM296,25.4a8.3,8.3,0,0,1,8.2-8.3H420.9V126.6H304.2a8.3,8.3,0,0,1-8.2-8.3ZM17.1,327h16a.5.5,0,0,1,.5.5v54.2a.5.5,0,0,1-.5.5h-16Zm0-131.7h16a.5.5,0,0,1,.5.5V250a.5.5,0,0,1-.5.5h-16ZM219.5,474.6a8.3,8.3,0,0,1-8.2,8.3H25.4a8.3,8.3,0,0,1-8.3-8.3V396.7h16a15,15,0,0,0,15-15V327.5a15,15,0,0,0-15-15h-16V296H180.3a7.3,7.3,0,0,0,7.2-7.3,7.2,7.2,0,0,0-7.2-7.2H17.1V265h16a15,15,0,0,0,15-15V195.8a15,15,0,0,0-15-15h-16V40.8A23.8,23.8,0,0,1,40.8,17.1h155a23.8,23.8,0,0,1,23.7,23.7V281.5h-8.2a7.3,7.3,0,0,0-7.3,7.2,7.3,7.3,0,0,0,7.3,7.3h8.2V474.6ZM234,351.2V79.1h47.5v39.2a22.8,22.8,0,0,0,22.7,22.8h70.2v78.4H288.7A22.8,22.8,0,0,0,266,242.3V351.2ZM474.6,482.9H288.7a8.3,8.3,0,0,1-8.2-8.3V296H482.9V474.6A8.3,8.3,0,0,1,474.6,482.9Z"/>
  <path d="M133.8,64.6h-31a15,15,0,0,0-15,15V95.1a15,15,0,0,0,15,15h31a15,15,0,0,0,15-15V79.6A15,15,0,0,0,133.8,64.6Zm.5,30.5a.5.5,0,0,1-.5.5h-31a.5.5,0,0,1-.5-.5V79.6a.5.5,0,0,1,.5-.5h31a.5.5,0,0,1,.5.5Z"/>
  <path d="M435.9,265h23.3a7.3,7.3,0,0,0,7.2-7.3,7.2,7.2,0,0,0-7.2-7.2H435.9a7.2,7.2,0,0,0-7.2,7.2A7.3,7.3,0,0,0,435.9,265Z"/>
  <path d="M381.7,320.2a69.3,69.3,0,1,0,69.2,69.2A69.3,69.3,0,0,0,381.7,320.2Zm0,124a54.8,54.8,0,1,1,54.7-54.8A54.8,54.8,0,0,1,381.7,444.2Z"/>
  <path d="M409.9,374.7a7.2,7.2,0,0,0-5.2,8.8,23.2,23.2,0,0,1,.7,5.9,23.7,23.7,0,1,1-23.7-23.7,23.2,23.2,0,0,1,5.9.7,7.2,7.2,0,1,0,3.6-14,38.2,38.2,0,1,0,27.5,27.5A7.2,7.2,0,0,0,409.9,374.7Z"/>
  <path d="M319.7,110.1h77.5a7.3,7.3,0,0,0,7.2-7.3v-62a7.2,7.2,0,0,0-7.2-7.2H381.7a7.3,7.3,0,1,0,0,14.5h8.2V95.6H327V48.1h23.7a7.3,7.3,0,1,0,0-14.5h-31a7.2,7.2,0,0,0-7.2,7.2v62A7.3,7.3,0,0,0,319.7,110.1Z"/>
</svg>
