<?xml version="1.0" encoding="utf-8"?>
<!-- Generator: Adobe Illustrator 23.0.1, SVG Export Plug-In . SVG Version: 6.00 Build 0)  -->
<svg version="1.1" id="Layer_1" xmlns="http://www.w3.org/2000/svg" xmlns:xlink="http://www.w3.org/1999/xlink" x="0px" y="0px"
	 viewBox="0 0 60 60" style="enable-background:new 0 0 60 60;" xml:space="preserve">
<g>
	<path d="M12.05,58.84c0.47,0,0.85-0.38,0.85-0.85V36.43c0-1.27-1.03-2.3-2.3-2.3H3.34c-1.27,0-2.3,1.03-2.3,2.3V58
		c0,0.47,0.38,0.85,0.85,0.85H12.05z M2.74,36.43c0-0.33,0.27-0.6,0.6-0.6h7.25c0.33,0,0.6,0.27,0.6,0.6v20.72H2.74V36.43z"/>
	<path d="M18.7,28.44c-1.27,0-2.3,1.03-2.3,2.3V58c0,0.47,0.38,0.85,0.85,0.85H27.4c0.47,0,0.85-0.38,0.85-0.85V30.74
		c0-1.27-1.03-2.3-2.3-2.3H18.7z M26.55,30.74v26.41h-8.46V30.74c0-0.33,0.27-0.6,0.6-0.6h7.25C26.28,30.14,26.55,30.41,26.55,30.74
		z"/>
	<path d="M43.61,58V25.05c0-1.27-1.03-2.3-2.3-2.3h-7.25c-1.27,0-2.3,1.03-2.3,2.3V58c0,0.47,0.38,0.85,0.85,0.85h10.16
		C43.23,58.84,43.61,58.46,43.61,58z M41.91,57.15h-8.46V25.05c0-0.33,0.27-0.6,0.6-0.6h7.25c0.33,0,0.6,0.27,0.6,0.6L41.91,57.15
		L41.91,57.15z"/>
	<path d="M47.95,58.84h10.16c0.47,0,0.85-0.38,0.85-0.85V19.36c0-1.27-1.03-2.3-2.3-2.3H49.4c-1.27,0-2.3,1.03-2.3,2.3V58
		C47.1,58.46,47.48,58.84,47.95,58.84z M48.8,19.36c0-0.33,0.27-0.6,0.6-0.6h7.25c0.33,0,0.6,0.27,0.6,0.6v37.78H48.8V19.36z"/>
	<path d="M51.11,12.98c0.38,0.55,1.04,0.84,1.71,0.74c0.67-0.1,1.21-0.55,1.43-1.19l2.9-8.71c0.18-0.53,0.1-1.11-0.23-1.57
		c-0.32-0.46-0.83-0.74-1.39-0.76l-9.18-0.33c-0.68-0.02-1.29,0.33-1.62,0.92c-0.32,0.59-0.28,1.3,0.1,1.86l0.96,1.38
		c-4.96,2.86-16.65,8.64-32.58,10.33c-0.47,0.05-0.8,0.47-0.75,0.93c0.05,0.44,0.41,0.76,0.84,0.76c0.03,0,0.06,0,0.09,0
		c17.17-1.82,29.54-8.32,34.05-11.02c0.41-0.25,0.54-0.81,0.26-1.21c0,0-1.45-2.09-1.48-2.13c-0.04-0.05,0-0.12,0.06-0.12
		c0,0,9.14,0.32,9.18,0.33c0.05,0,0.08,0.05,0.07,0.1c0,0-2.89,8.7-2.9,8.71c-0.02,0.06-0.1,0.07-0.13,0.02l-1.31-1.89
		c-0.26-0.37-0.76-0.47-1.14-0.24c-1.98,1.21-5.29,3.06-9.82,4.99c-0.43,0.18-0.63,0.68-0.45,1.11c0.18,0.43,0.68,0.63,1.11,0.45
		c4.14-1.76,7.29-3.46,9.36-4.69L51.11,12.98z"/>
	<path d="M9.96,17.63c0.47-0.03,0.82-0.43,0.79-0.9c-0.03-0.47-0.44-0.82-0.9-0.79c-1.84,0.12-3.69,0.18-5.51,0.18
		c-0.47,0-0.85,0.38-0.85,0.85v6.1c0,0.47,0.38,0.85,0.85,0.85c14.05,0,25.77-3.32,33.13-6.11c0.44-0.17,0.66-0.66,0.49-1.09
		c-0.17-0.44-0.66-0.66-1.09-0.49c-7.08,2.68-18.26,5.86-31.68,5.99v-4.4C6.77,17.79,8.37,17.73,9.96,17.63z"/>
</g>
</svg>
