<?xml version="1.0" encoding="utf-8"?>
<!-- Generator: Adobe Illustrator 23.0.1, SVG Export Plug-In . SVG Version: 6.00 Build 0)  -->
<svg version="1.1" id="Layer_1" xmlns="http://www.w3.org/2000/svg" xmlns:xlink="http://www.w3.org/1999/xlink" x="0px" y="0px"
	 viewBox="0 0 70 70" style="enable-background:new 0 0 70 70;" xml:space="preserve">
<g>
	<path d="M46.85,25.88c-1.27-1.25-2.94-1.94-4.72-1.95v-6.56c0-2.09-0.93-4.15-2.5-5.5c-1.32-1.14-2.94-1.63-4.56-1.39
		c-7.2,1.06-13.63,1.06-20.83,0c-1.62-0.24-3.24,0.26-4.55,1.39c-1.56,1.35-2.5,3.41-2.5,5.5v6.56c-0.96,0-1.88,0.21-2.75,0.6
		c-0.51,0.23-0.74,0.83-0.51,1.34c0.23,0.51,0.83,0.74,1.34,0.51c0.65-0.29,1.35-0.43,2.07-0.42c0.23,0,0.45,0.03,0.67,0.06
		c0.02,0,0.03,0.01,0.05,0.01c2.24,0.4,3.97,2.43,3.97,4.83v12.42c0,1.66,1.35,3.01,3.01,3.01h19.26c1.66,0,3.01-1.35,3.01-3.01
		V30.86c0-2.65,2.1-4.85,4.69-4.9c1.3-0.02,2.52,0.46,3.45,1.37c0.93,0.91,1.44,2.12,1.44,3.42c0,1.85-1.09,3.56-2.77,4.34
		c-0.36,0.17-0.59,0.52-0.59,0.92v13.47c0,1.67-1.36,3.03-3.03,3.03H8.83c-1.67,0-3.03-1.36-3.03-3.03V36.01
		c0-0.39-0.23-0.75-0.59-0.92c-1.68-0.78-2.77-2.49-2.77-4.34c0-0.72,0.16-1.42,0.46-2.06c0.24-0.5,0.03-1.11-0.48-1.35
		s-1.11-0.03-1.35,0.48c-0.44,0.92-0.66,1.91-0.66,2.93c0,2.42,1.3,4.65,3.35,5.87v12.86c0,2.79,2.27,5.05,5.05,5.05h0.95v3.09
		c0,1.08,0.88,1.96,1.96,1.96h1.64c1.08,0,1.96-0.88,1.96-1.96v-3.09h18.65v3.09c0,1.08,0.88,1.96,1.96,1.96h1.64
		c1.08,0,1.96-0.88,1.96-1.96v-3.09h0.95c2.79,0,5.05-2.27,5.05-5.05V36.62c2.06-1.22,3.35-3.45,3.35-5.87
		C48.9,28.9,48.17,27.17,46.85,25.88z M35.27,43.28c0,0.54-0.44,0.98-0.98,0.98H15.03c-0.54,0-0.98-0.44-0.98-0.98v-4.26h21.22
		V43.28z M35.27,30.86v6.13H14.05v-6.13c0-3.1-2.05-5.76-4.83-6.63v-6.86c0-1.49,0.69-3.01,1.8-3.97c0.61-0.53,1.62-1.12,2.94-0.92
		c7.41,1.09,14.02,1.09,21.43,0c1.32-0.19,2.32,0.39,2.94,0.92c1.11,0.96,1.8,2.48,1.8,3.97v6.86
		C37.32,25.11,35.27,27.77,35.27,30.86z M13.31,57.55h-1.5v-3.02h1.5V57.55z M37.51,57.55h-1.5v-3.02h1.5V57.55z"/>
	<path d="M19.3,20.98h-0.35v-0.35c0-0.56-0.45-1.01-1.01-1.01c-0.56,0-1.01,0.45-1.01,1.01v0.35h-0.35c-0.56,0-1.01,0.45-1.01,1.01
		c0,0.56,0.45,1.01,1.01,1.01h0.35v0.35c0,0.56,0.45,1.01,1.01,1.01c0.56,0,1.01-0.45,1.01-1.01v-0.35h0.35
		c0.56,0,1.01-0.45,1.01-1.01C20.32,21.44,19.86,20.98,19.3,20.98z"/>
	<path d="M32.75,20.98H32.4v-0.35c0-0.56-0.45-1.01-1.01-1.01c-0.56,0-1.01,0.45-1.01,1.01v0.35h-0.35C29.45,20.98,29,21.44,29,22
		c0,0.56,0.45,1.01,1.01,1.01h0.35v0.35c0,0.56,0.45,1.01,1.01,1.01c0.56,0,1.01-0.45,1.01-1.01v-0.35h0.35
		c0.56,0,1.01-0.45,1.01-1.01C33.76,21.44,33.31,20.98,32.75,20.98z"/>
	<path d="M67.42,32.5h-6.56v-4.57h3.58c0.6,0,1.16-0.29,1.51-0.78c0.34-0.49,0.43-1.12,0.22-1.68l-2.23-6.13
		c-0.26-0.72-0.96-1.21-1.73-1.21h-4.73c-0.77,0-1.47,0.49-1.73,1.21l-2.23,6.13c-0.2,0.56-0.12,1.19,0.22,1.68
		c0.34,0.49,0.91,0.78,1.51,0.78h3.58v4.57h-7.55c-1.19,0-2.15,0.97-2.15,2.15v1.22c0,1.19,0.97,2.15,2.15,2.15h0.03v1.94
		c0,0.56,0.45,1.01,1.01,1.01c0.56,0,1.01-0.45,1.01-1.01v-1.94h12.02v6.73H53.35v-0.74c0-0.56-0.45-1.01-1.01-1.01
		c-0.56,0-1.01,0.45-1.01,1.01v9.86c0,0.69,0.43,1.29,1.03,1.53v2.48c0,0.93,0.76,1.68,1.68,1.68h1.5c0.93,0,1.68-0.76,1.68-1.68
		v-2.36h3.92v2.36c0,0.93,0.76,1.68,1.68,1.68h1.5c0.93,0,1.68-0.76,1.68-1.68v-2.38c0.79-0.12,1.4-0.81,1.4-1.63V38.03h0.03
		c1.19,0,2.15-0.97,2.15-2.15v-1.22C69.58,33.47,68.61,32.5,67.42,32.5z M57.62,20.15h4.47l2.09,5.76h-8.65L57.62,20.15z
		 M65.37,46.78v6.73H53.35v-6.73H65.37z M55.19,57.55h-0.81v-2.02h0.81V57.55z M63.97,57.55h-0.81v-2.02h0.81V57.55z M67.55,35.87
		c0,0.07-0.06,0.13-0.13,0.13H51.29c-0.07,0-0.13-0.06-0.13-0.13v-1.22c0-0.07,0.06-0.13,0.13-0.13h16.13
		c0.07,0,0.13,0.06,0.13,0.13V35.87z"/>
	<path d="M60.08,40.74c0.56,0,1.01-0.45,1.01-1.01c0-0.56-0.45-1.01-1.01-1.01h-1.44c-0.56,0-1.01,0.45-1.01,1.01
		c0,0.56,0.45,1.01,1.01,1.01H60.08z"/>
	<path d="M58.64,49.52h1.44c0.56,0,1.01-0.45,1.01-1.01c0-0.56-0.45-1.01-1.01-1.01h-1.44c-0.56,0-1.01,0.45-1.01,1.01
		C57.63,49.07,58.08,49.52,58.64,49.52z"/>
</g>
</svg>
