<svg id="Layer_1" data-name="Layer 1" xmlns="http://www.w3.org/2000/svg" width="70" height="70" viewBox="0 0 70 70">
  <defs>
    <style>
      .cls-1 {
        fill: #96b2cb;
      }
    </style>
  </defs>
  <title>iron</title>
  <g>
    <path class="cls-1" d="M69.4,45,66.3,28.8A9.1,9.1,0,0,0,64.4,25l1.8-1.8a1.1,1.1,0,0,0,0-1.5l-.4-.3A5.5,5.5,0,0,0,68,17.7a7.4,7.4,0,0,0-.5-2.5,8.5,8.5,0,0,1-.4-1.7,1,1,0,0,0-1-1,1.1,1.1,0,0,0-1,1,6.9,6.9,0,0,0,.5,2.4,4.5,4.5,0,0,1,.3,1.6,3.3,3.3,0,0,1-1.5,2.4l-.7-.7a1.2,1.2,0,0,0-1.4,0L59.5,22a5.8,5.8,0,0,0-1.9-.2H37.2C19.6,21.8,6.7,36.5,2.8,51.3H1.6a1.1,1.1,0,0,0-1,1v4.2a1.1,1.1,0,0,0,1,1h62a1.1,1.1,0,0,0,1.1-1V52.4c0-3.4,1.2-5.4,4-6.2a1.1,1.1,0,0,0,.7-1.2ZM63,21.4l1,1-1.1,1.1-1.3-.8ZM2.7,55.5V53.4H62.6v2.1Zm60-4.2H4.9C8.8,37.4,20.8,23.8,37.2,23.8H57.6a7,7,0,0,1,4.6,1.8h.1a7.2,7.2,0,0,1,2,3.6l2.9,15.2c-2.8,1.2-4.3,3.5-4.5,6.8Z"/>
    <path class="cls-1" d="M44.2,46.1H26.8a1,1,0,1,0,0,2H44.2a1,1,0,0,0,0-2Z"/>
    <path class="cls-1" d="M60.5,30.1a1.8,1.8,0,0,0-1.6-1.5H41A15.9,15.9,0,0,0,25.8,40.4a.9.9,0,0,0,.7,1.2H61a1.7,1.7,0,0,0,1.3-.7,2.3,2.3,0,0,0,.4-1.8Zm-17,9.5V36.8h5.2v2.8Zm7.3,0V35.8a1.1,1.1,0,0,0-1.1-1.1H42.5a1.1,1.1,0,0,0-1.1,1.1v3.8H28.2A13.8,13.8,0,0,1,41,30.7H58.6l2.1,8.9Z"/>
  </g>
</svg>
