<svg id="Layer_1" data-name="Layer 1" xmlns="http://www.w3.org/2000/svg" width="70" height="70" viewBox="0 0 70 70">
  <defs>
    <style>
      .cls-1 {
        fill: #96b2cb;
      }
    </style>
  </defs>
  <title>item_creation</title>
  <g>
    <path class="cls-1" d="M68.1,49,62.7,38.2H60.9V1.5H45.8V38.2H25.3V19.7L20.2,8.5a2.8,2.8,0,0,0-2.5-1.6,2.9,2.9,0,0,0-2.5,1.6l-5,11.2V38.2H7.3L1.9,49H8V68.5H62V49ZM48,33.9h6.4V31.8H48V29.6h4.3V27.4H48V25.3h6.4V23.1H48V21h4.3V18.8H48V16.6h6.4V14.5H48V12.3h4.3V10.2H48V8h6.4V5.9H48V3.7H58.8V38.2H48Zm13.3,6.5,3.3,6.5H41.1l-3.3-6.5ZM18.8,38.2V21.9L21,23.3l2.1-1.4V38.2Zm4-18.7L21,20.7l-3.3-2.1-3.2,2.1-1.9-1.2,1.8-3.9h6.7ZM17.2,9.4a.7.7,0,0,1,1.1,0l1.8,4H15.4ZM12.3,21.9l2.2,1.4,2.1-1.4V38.2H12.3ZM8.7,40.4H32.2l-3.3,6.5H5.4ZM10.2,49H30.3l3.6-7.3V66.3H10.2ZM59.8,66.3H36.1V41.7L39.7,49H59.8Z"/>
    <path class="cls-1" d="M21,62h2.1v2.1H21Z"/>
    <path class="cls-1" d="M12.3,62h2.2v2.1H12.3Z"/>
    <path class="cls-1" d="M16.6,62h2.2v2.1H16.6Z"/>
    <path class="cls-1" d="M12.3,57.7H23.1v2.1H12.3Z"/>
    <path class="cls-1" d="M30.7,10.9A2.9,2.9,0,0,1,33.6,8h.7a2.9,2.9,0,0,1,2.9,2.9,2.7,2.7,0,0,1-.9,2l-5.6,5.6v8.9h6.5V21.2l3.7-3.7a9.1,9.1,0,0,0,2.7-6.6,9.4,9.4,0,0,0-9.3-9.4h-.7a9.4,9.4,0,0,0-9.4,9.4v2.5h6.5Zm-2.2,0v.3H26.4v-.3a7.2,7.2,0,0,1,7.2-7.2h.7a7.2,7.2,0,0,1,7.2,7.2A7.5,7.5,0,0,1,39.4,16L35,20.3v5H32.8V19.4l5-5a4.7,4.7,0,0,0,1.5-3.5,5,5,0,0,0-5-5h-.7A5,5,0,0,0,28.5,10.9Z"/>
    <path class="cls-1" d="M30.7,32.8a3.2,3.2,0,0,0,3.2,3.3,3.3,3.3,0,1,0,0-6.5A3.2,3.2,0,0,0,30.7,32.8Zm4.3,0a1.1,1.1,0,0,1-2.2,0,1.1,1.1,0,0,1,2.2,0Z"/>
  </g>
</svg>
