<?xml version="1.0" encoding="utf-8"?>
<!-- Generator: Adobe Illustrator 23.0.1, SVG Export Plug-In . SVG Version: 6.00 Build 0)  -->
<svg version="1.1" id="Layer_1" xmlns="http://www.w3.org/2000/svg" xmlns:xlink="http://www.w3.org/1999/xlink" x="0px" y="0px"
	 viewBox="0 0 70 70" style="enable-background:new 0 0 70 70;" xml:space="preserve">
<path d="M67.36,12.85c0,0-0.01,0-0.01,0H49.09v-2.01c0-3.33-2.71-6.04-6.04-6.04H26.95c-3.33,0-6.04,2.71-6.04,6.04v2.01H2.65
	c-1.12,0-2.01,0.92-2.01,2.01v44.29c0,3.33,2.71,6.04,6.04,6.04h56.64c3.33,0,6.04-2.71,6.04-6.04V14.91c0,0,0-0.01,0-0.01
	C69.28,13.58,68.47,12.86,67.36,12.85z M24.93,10.84c0-1.11,0.9-2.01,2.01-2.01h16.11c1.11,0,2.01,0.9,2.01,2.01v2.01H24.93V10.84z
	 M64.55,16.88L58.3,35.64c-0.27,0.82-1.04,1.38-1.91,1.38H45.07V35c0-1.11-0.9-2.01-2.01-2.01H26.95c-1.11,0-2.01,0.9-2.01,2.01
	v2.01H13.61c-0.87,0-1.64-0.55-1.91-1.38L5.45,16.88H64.55z M41.04,37.01v4.03H28.96v-4.03H41.04z M65.33,59.16
	c0,1.11-0.9,2.01-2.01,2.01H6.68c-1.11,0-2.01-0.9-2.01-2.01V27.27l3.21,9.64c0.82,2.47,3.13,4.13,5.73,4.13h11.33v2.01
	c0,1.11,0.9,2.01,2.01,2.01h16.11c1.11,0,2.01-0.9,2.01-2.01v-2.01h11.33c2.6,0,4.91-1.66,5.73-4.13l3.21-9.64V59.16z"/>
</svg>
