<?xml version="1.0" encoding="utf-8"?>
<!-- Generator: Adobe Illustrator 23.0.1, SVG Export Plug-In . SVG Version: 6.00 Build 0)  -->
<svg version="1.1" id="Layer_1" xmlns="http://www.w3.org/2000/svg" xmlns:xlink="http://www.w3.org/1999/xlink" x="0px" y="0px"
	 viewBox="0 0 70 70" style="enable-background:new 0 0 70 70;" xml:space="preserve">
<g>
	<path d="M8.71,28.8v12.13h1.46l18.76,11.25v17.33l12.13-6.07V52.18l18.76-11.25h1.46c0-1.46,0-10.95,0-12.13H8.71z M41.07,36.89
		v4.04h10.9l-14.94,8.97v11.05l-4.04,2.02V49.89l-14.94-8.97h10.9v-4.04H12.76v-4.04h44.48v4.04H41.07z"/>
	<path d="M28.93,6.56c0-3.34-2.72-6.07-6.07-6.07S16.8,3.21,16.8,6.56s2.72,6.07,6.07,6.07S28.93,9.9,28.93,6.56z M22.87,8.58
		c-1.11,0-2.02-0.91-2.02-2.02s0.91-2.02,2.02-2.02c1.11,0,2.02,0.91,2.02,2.02S23.98,8.58,22.87,8.58z"/>
	<path d="M32.98,22.73c0-5.57-4.54-10.11-10.11-10.11s-10.11,4.54-10.11,10.11v2.02h20.22V22.73z M17.15,20.71
		c0.83-2.35,3.08-4.04,5.72-4.04s4.88,1.69,5.72,4.04H17.15z"/>
	<path d="M53.2,6.56c0-3.34-2.72-6.07-6.07-6.07s-6.07,2.72-6.07,6.07s2.72,6.07,6.07,6.07S53.2,9.9,53.2,6.56z M47.13,8.58
		c-1.11,0-2.02-0.91-2.02-2.02s0.91-2.02,2.02-2.02s2.02,0.91,2.02,2.02S48.25,8.58,47.13,8.58z"/>
	<path d="M57.24,22.73c0-5.57-4.54-10.11-10.11-10.11s-10.11,4.54-10.11,10.11v2.02h20.22V22.73z M41.41,20.71
		c0.83-2.35,3.08-4.04,5.72-4.04c2.64,0,4.88,1.69,5.72,4.04H41.41z"/>
</g>
</svg>
