<?xml version="1.0" encoding="utf-8"?>
<!-- Generator: Adobe Illustrator 23.0.1, SVG Export Plug-In . SVG Version: 6.00 Build 0)  -->
<svg version="1.1" id="Layer_1" xmlns="http://www.w3.org/2000/svg" xmlns:xlink="http://www.w3.org/1999/xlink" x="0px" y="0px"
	 viewBox="0 0 70 70" style="enable-background:new 0 0 70 70;" xml:space="preserve">
<g>
	<path d="M66.23,47.35c1.4-1.78,2.07-3.69,1.98-5.66c-0.09-2.17-1.05-3.86-1.85-4.9c0.93-2.31,1.28-5.94-1.81-8.76
		c-2.27-2.07-6.11-2.99-11.44-2.74c-3.75,0.17-6.88,0.87-7.01,0.9h-0.01c-0.71,0.13-1.47,0.29-2.24,0.46
		c-0.06-0.91,0.1-3.18,1.78-8.28c2-6.07,1.88-10.72-0.37-13.82C42.89,1.28,39.12,1.03,38,1.03c-1.07,0-2.05,0.44-2.75,1.25
		c-1.58,1.84-1.4,5.23-1.2,6.8c-1.88,5.04-7.15,17.41-11.61,20.85c-0.09,0.06-0.16,0.13-0.23,0.2c-1.31,1.38-2.19,2.88-2.79,4.19
		c-0.84-0.46-1.8-0.71-2.82-0.71H7.91c-3.28,0-5.93,2.66-5.93,5.93v23.16c0,3.28,2.66,5.93,5.93,5.93h8.69
		c1.27,0,2.45-0.4,3.42-1.08l3.35,0.4c0.51,0.07,9.63,1.23,19,1.04c1.7,0.13,3.29,0.2,4.77,0.2c2.55,0,4.77-0.2,6.63-0.6
		c4.36-0.93,7.34-2.78,8.85-5.5c1.15-2.08,1.15-4.15,0.97-5.46c2.84-2.57,3.33-5.4,3.23-7.4C66.76,49.07,66.5,48.08,66.23,47.35z
		 M7.91,64.77c-1.15,0-2.08-0.94-2.08-2.08V39.52c0-1.15,0.94-2.08,2.08-2.08h8.69c1.15,0,2.08,0.94,2.08,2.08v23.16
		c0,1.15-0.94,2.08-2.08,2.08H7.91V64.77z M62.59,45.69c-0.6,0.63-0.71,1.58-0.26,2.32c0,0.01,0.58,1.01,0.66,2.38
		c0.1,1.87-0.8,3.52-2.68,4.93c-0.67,0.51-0.94,1.4-0.66,2.19c0,0.01,0.61,1.9-0.38,3.68c-0.95,1.71-3.08,2.94-6.3,3.62
		c-2.58,0.56-6.08,0.66-10.39,0.31c-0.06,0-0.13,0-0.2,0c-9.16,0.2-18.43-1-18.53-1.01h-0.01l-1.44-0.17
		c0.09-0.4,0.13-0.83,0.13-1.25V39.52c0-0.61-0.1-1.21-0.27-1.77c0.26-0.95,0.97-3.08,2.65-4.89c6.4-5.07,12.65-22.19,12.92-22.93
		c0.11-0.3,0.14-0.63,0.09-0.95c-0.24-1.6-0.16-3.55,0.19-4.13c0.76,0.01,2.79,0.23,4.02,1.92c1.45,2.01,1.4,5.6-0.17,10.36
		c-2.39,7.25-2.59,11.07-0.7,12.75c0.94,0.84,2.19,0.88,3.11,0.56c0.87-0.2,1.7-0.37,2.48-0.5c0.06-0.01,0.13-0.03,0.19-0.04
		c4.37-0.95,12.21-1.54,14.93,0.94c2.31,2.11,0.67,4.9,0.48,5.2c-0.53,0.8-0.37,1.84,0.34,2.48c0.01,0.01,1.51,1.43,1.58,3.32
		C64.42,43.11,63.82,44.41,62.59,45.69z"/>
</g>
</svg>
