<?xml version="1.0" encoding="utf-8"?>
<!-- Generator: Adobe Illustrator 23.0.1, SVG Export Plug-In . SVG Version: 6.00 Build 0)  -->
<svg version="1.1" id="Layer_1" xmlns="http://www.w3.org/2000/svg" xmlns:xlink="http://www.w3.org/1999/xlink" x="0px" y="0px"
	 viewBox="0 0 70 70" style="enable-background:new 0 0 70 70;" xml:space="preserve">
<g>
	<g>
		<path d="M35,0.8c-13.26,0-24.04,10.79-24.04,24.04c0,4.48,1.24,8.85,3.59,12.64l19.09,30.76c0.37,0.59,1.01,0.95,1.7,0.95
			c0.01,0,0.01,0,0.02,0c0.7-0.01,1.34-0.37,1.7-0.97l18.6-31.05c2.22-3.71,3.39-7.97,3.39-12.32C59.04,11.59,48.26,0.8,35,0.8z
			 M52.21,35.11L35.3,63.34L17.95,35.38c-1.95-3.16-3.01-6.8-3.01-10.53C14.94,13.8,23.95,4.79,35,4.79s20.05,9.01,20.05,20.06
			C55.05,28.47,54.06,32.02,52.21,35.11z"/>
	</g>
</g>
<g>
	<g>
		<path d="M35,12.83c-6.63,0-12.02,5.39-12.02,12.02c0,6.59,5.31,12.02,12.02,12.02c6.8,0,12.02-5.51,12.02-12.02
			C47.02,18.22,41.63,12.83,35,12.83z M35,32.89c-4.44,0-8.04-3.61-8.04-8.04c0-4.42,3.62-8.04,8.04-8.04s8.03,3.62,8.03,8.04
			C43.03,29.21,39.51,32.89,35,32.89z"/>
	</g>
</g>
</svg>
