<svg id="Layer_1" data-name="Layer 1" xmlns="http://www.w3.org/2000/svg" width="70" height="70" viewBox="0 0 70 70">
  <defs>
    <style>
      .cls-1 {
        fill: #96b2cb;
      }
    </style>
  </defs>
  <title>locksmith</title>
  <g>
    <path class="cls-1" d="M35,.2A19.5,19.5,0,0,0,15.5,19.7v9.5a1.2,1.2,0,0,0,1.2,1.2h6.5a1.2,1.2,0,0,0,1.2-1.2V19.7a10.6,10.6,0,1,1,21.2,0v9.5a1.2,1.2,0,0,0,1.2,1.2h6.5a1.2,1.2,0,0,0,1.2-1.2V19.7A19.5,19.5,0,0,0,35,.2ZM52.1,28.1H48V19.7a13,13,0,1,0-25.9,0v8.4H17.9V19.7a17.1,17.1,0,0,1,34.2,0v8.4Z"/>
    <path class="cls-1" d="M56,28.1H14a5,5,0,0,0-5.1,5V64.7A5.1,5.1,0,0,0,14,69.8H56a5.1,5.1,0,0,0,5.1-5.1V33.1A5,5,0,0,0,56,28.1Zm2.7,36.6A2.7,2.7,0,0,1,56,67.4H14a2.7,2.7,0,0,1-2.7-2.7V33.1A2.7,2.7,0,0,1,14,30.4H56a2.7,2.7,0,0,1,2.7,2.7Z"/>
    <path class="cls-1" d="M39,50.5a6.4,6.4,0,0,0,2.1-4.7,6.1,6.1,0,0,0-12.2,0A6.4,6.4,0,0,0,31,50.5l-1.3,6.3a.8.8,0,0,0,.3.9,1.1,1.1,0,0,0,.9.5h8.2a1.1,1.1,0,0,0,.9-.5.8.8,0,0,0,.3-.9ZM37,49a1.1,1.1,0,0,0-.5,1.2l1.2,5.6H32.3l1.2-5.6A1.1,1.1,0,0,0,33,49a3.8,3.8,0,1,1,4,0Z"/>
  </g>
</svg>
