<?xml version="1.0" encoding="utf-8"?>
<!-- Generator: Adobe Illustrator 23.0.1, SVG Export Plug-In . SVG Version: 6.00 Build 0)  -->
<svg version="1.1" id="Layer_1" xmlns="http://www.w3.org/2000/svg" xmlns:xlink="http://www.w3.org/1999/xlink" x="0px" y="0px"
	 viewBox="0 0 70 70" style="enable-background:new 0 0 70 70;" xml:space="preserve">
<path d="M67.81,32.81H40.1c-1.21,0-2.19-0.98-2.19-2.19s0.98-2.19,2.19-2.19h27.71c1.21,0,2.19,0.98,2.19,2.19
	S69.02,32.81,67.81,32.81z"/>
<path d="M56.87,43.75c-0.56,0-1.12-0.21-1.55-0.64c-0.85-0.86-0.85-2.24,0-3.09l9.39-9.39l-9.39-9.39c-0.85-0.85-0.85-2.24,0-3.09
	c0.85-0.86,2.24-0.86,3.09,0l10.94,10.94c0.85,0.85,0.85,2.24,0,3.09L58.42,43.11C57.99,43.54,57.43,43.75,56.87,43.75z"/>
<path d="M23.33,70c-0.62,0-1.22-0.09-1.81-0.27L3.97,63.88C1.58,63.05,0,60.82,0,58.33V5.83C0,2.62,2.62,0,5.83,0
	c0.62,0,1.22,0.09,1.81,0.27l17.55,5.85c2.39,0.83,3.97,3.06,3.97,5.55v52.5C29.17,67.38,26.55,70,23.33,70z M5.83,4.38
	c-0.8,0-1.46,0.66-1.46,1.46v52.5c0,0.62,0.42,1.2,1.01,1.41l17.47,5.82c0.13,0.04,0.29,0.06,0.48,0.06c0.8,0,1.46-0.66,1.46-1.46
	v-52.5c0-0.62-0.42-1.2-1.01-1.41L6.31,4.44C6.18,4.4,6.02,4.38,5.83,4.38z"/>
<path d="M44.48,23.33c-1.21,0-2.19-0.98-2.19-2.19V8.02c0-2.01-1.64-3.65-3.65-3.65H5.83c-1.21,0-2.19-0.98-2.19-2.19S4.63,0,5.83,0
	h32.81c4.42,0,8.02,3.6,8.02,8.02v13.13C46.66,22.35,45.68,23.33,44.48,23.33z"/>
<path d="M38.64,61.25H26.98c-1.21,0-2.19-0.98-2.19-2.19s0.98-2.19,2.19-2.19h11.67c2.01,0,3.65-1.64,3.65-3.65V40.1
	c0-1.21,0.98-2.19,2.19-2.19s2.19,0.98,2.19,2.19v13.13C46.66,57.65,43.07,61.25,38.64,61.25z"/>
</svg>
