<?xml version="1.0" encoding="utf-8"?>
<!-- Generator: Adobe Illustrator 23.0.1, SVG Export Plug-In . SVG Version: 6.00 Build 0)  -->
<svg version="1.1" id="Layer_1" xmlns="http://www.w3.org/2000/svg" xmlns:xlink="http://www.w3.org/1999/xlink" x="0px" y="0px"
	 viewBox="0 0 60 60" style="enable-background:new 0 0 60 60;" xml:space="preserve">
<g>
	<path d="M55.47,39.72c-0.47,0-0.86,0.38-0.86,0.86v13.66H36.95V38.02c0-1.1-0.9-2-2-2h-9.9c-1.1,0-2,0.9-2,2v16.22H5.39V40.58
		c0-0.47-0.38-0.86-0.86-0.86c-0.47,0-0.86,0.38-0.86,0.86v14.06c0,0.72,0.59,1.31,1.31,1.31h50.03c0.72,0,1.31-0.59,1.31-1.31
		V40.58C56.33,40.1,55.94,39.72,55.47,39.72z M24.76,54.24V38.02c0-0.16,0.13-0.29,0.29-0.29h9.9c0.16,0,0.29,0.13,0.29,0.29v16.22
		H24.76z"/>
	<path d="M51.4,50.85c1.01,0,1.82-0.82,1.82-1.82v-9.35c0-1.01-0.82-1.82-1.82-1.82H40.79c-1.01,0-1.82,0.82-1.82,1.82v9.35
		c0,1.01,0.82,1.82,1.82,1.82H51.4z M40.68,49.03v-9.35c0-0.06,0.05-0.11,0.11-0.11H51.4c0.06,0,0.11,0.05,0.11,0.11v9.35
		c0,0.06-0.05,0.11-0.11,0.11H40.79C40.73,49.14,40.68,49.09,40.68,49.03z"/>
	<path d="M19.21,50.85c1.01,0,1.82-0.82,1.82-1.82v-9.35c0-1.01-0.82-1.82-1.82-1.82H8.6c-1.01,0-1.82,0.82-1.82,1.82v9.35
		c0,1.01,0.82,1.82,1.82,1.82H19.21z M8.49,49.03v-9.35c0-0.06,0.05-0.11,0.11-0.11h10.61c0.06,0,0.11,0.05,0.11,0.11v9.35
		c0,0.06-0.05,0.11-0.11,0.11H8.6C8.54,49.14,8.49,49.09,8.49,49.03z"/>
	<path d="M56.73,16.68c0-0.92,0.74-1.66,1.66-1.66c0.47,0,0.86-0.38,0.86-0.86v-2.1c0-0.47-0.38-0.86-0.86-0.86H44.25
		c-0.47,0-0.86,0.38-0.86,0.86c0,0.47,0.38,0.86,0.86,0.86h13.29v0.49c-1.17,0.31-2.1,1.23-2.41,2.41H41.65V8.22
		c0-2.3-1.87-4.17-4.17-4.17H22.52c-2.3,0-4.17,1.87-4.17,4.17v2.99H1.61c-0.47,0-0.86,0.38-0.86,0.86v2.1
		c0,0.47,0.38,0.86,0.86,0.86c0.92,0,1.66,0.74,1.66,1.66c0,0.31,0.16,0.58,0.41,0.73v5.85H2.13c-0.72,0-1.31,0.59-1.31,1.31v4.67
		c0,0.72,0.59,1.31,1.31,1.31h1.54v6.59c0,0.47,0.38,0.86,0.86,0.86s0.86-0.38,0.86-0.86v-6.59h49.29v6.6
		c0,0.47,0.38,0.86,0.86,0.86c0.47,0,0.86-0.38,0.86-0.86v-6.6h1.54c0.72,0,1.31-0.59,1.31-1.31v-4.67c0-0.72-0.59-1.31-1.31-1.31
		H56.4v-5.9C56.6,17.21,56.73,16.96,56.73,16.68z M20.07,8.22c0-1.35,1.1-2.46,2.46-2.46h14.96c1.35,0,2.46,1.1,2.46,2.46v9.35
		c0,1.35-1.1,2.46-2.46,2.46H22.52c-1.35,0-2.46-1.1-2.46-2.46L20.07,8.22L20.07,8.22z M57.54,28.85h-55v-3.87h55V28.85z
		 M5.39,23.27v-5.73h10.39c0.47,0,0.86-0.38,0.86-0.86c0-0.47-0.38-0.86-0.86-0.86H4.87c-0.31-1.17-1.23-2.1-2.41-2.41v-0.49h15.89
		v4.64c0,2.3,1.87,4.17,4.17,4.17h14.96c2.3,0,4.17-1.87,4.17-4.17v-0.03h13.03v5.73H5.39z"/>
	<path d="M26.69,45.13H26c-0.47,0-0.86,0.38-0.86,0.86s0.38,0.86,0.86,0.86h0.69c0.47,0,0.86-0.38,0.86-0.86
		S27.16,45.13,26.69,45.13z"/>
	<path d="M23.86,9.18h1.05l1.08,5.15c0.21,1,1.1,1.72,2.12,1.72h5.09c0.9,0,1.71-0.56,2.03-1.4l1.68-4.45
		c0.16-0.42,0.1-0.9-0.16-1.27c-0.26-0.37-0.68-0.59-1.13-0.59h-7.2c-0.47,0-0.86,0.38-0.86,0.86c0,0.47,0.38,0.86,0.86,0.86h6.71
		l-1.51,3.99c-0.07,0.17-0.24,0.29-0.42,0.29h-5.09c-0.21,0-0.4-0.15-0.44-0.36l-1.08-5.17c-0.16-0.78-0.86-1.34-1.65-1.34h-1.07
		C23.39,7.47,23,7.85,23,8.32C23,8.8,23.39,9.18,23.86,9.18z"/>
	<path d="M28.26,16.77h-0.23c-0.47,0-0.86,0.38-0.86,0.86c0,0.47,0.38,0.86,0.86,0.86h0.23c0.47,0,0.86-0.38,0.86-0.86
		C29.11,17.16,28.73,16.77,28.26,16.77z"/>
	<path d="M31.97,16.77h-0.23c-0.47,0-0.86,0.38-0.86,0.86c0,0.47,0.38,0.86,0.86,0.86h0.23c0.47,0,0.86-0.38,0.86-0.86
		C32.83,17.16,32.44,16.77,31.97,16.77z"/>
</g>
</svg>
