<svg id="Layer_1" data-name="Layer 1" xmlns="http://www.w3.org/2000/svg" width="70" height="70" viewBox="0 0 70 70">
  <defs>
    <style>
      .cls-1 {
        fill: #96b2cb;
      }
    </style>
  </defs>
  <title>metalworker</title>
  <g id="GD001">
    <path class="cls-1" d="M61.3,36.1H46.4V32.7a1.1,1.1,0,0,0-1.1-1.1H20.1A1.1,1.1,0,0,0,19,32.7v3.4H14.4a1.2,1.2,0,0,0-1.1,1.2H4.1A1.1,1.1,0,0,0,3,38.4,10.3,10.3,0,0,0,13.3,48.7v1.2A1.1,1.1,0,0,0,14.4,51h3.5a3.4,3.4,0,0,1,2.9,5.2l-3.6,6.2H15.6a1.2,1.2,0,0,0-1.2,1.2v4.5a1.2,1.2,0,0,0,1.2,1.2H54.4a1.2,1.2,0,0,0,1.2-1.2V63.6a1.2,1.2,0,0,0-1.2-1.2H52.1v-8a9.2,9.2,0,0,1,9.2-9.1,1.1,1.1,0,0,0,1.1-1.2V37.3A1.2,1.2,0,0,0,61.3,36.1Zm-48,10.3a7.9,7.9,0,0,1-7.9-6.8h7.9Zm8-12.5H44.1v2.2H21.3Zm32,30.8V67H16.7V64.7ZM60.1,43H48.7v2.3h5.7a11.4,11.4,0,0,0-4.5,9.1v8H19.8l3-5.1a5.3,5.3,0,0,0,0-5.7,2.1,2.1,0,0,0-.4-.6H27V48.7H15.6V38.4H60.1Z"/>
    <path class="cls-1" d="M62.4,14.6l-22.8.9V11a.9.9,0,0,0-.4-.8L38.1,9.1a.9.9,0,0,0-.8-.4H28.1a.9.9,0,0,0-.8.4l-1.1,1.1a1.1,1.1,0,0,0-.3.8v4.6H24.7a3.4,3.4,0,0,0,0,6.8h1.2V27a1.1,1.1,0,0,0,.3.8L27.3,29a1.1,1.1,0,0,0,.8.3h9.2a1.1,1.1,0,0,0,.8-.3l1.1-1.2a.9.9,0,0,0,.4-.8V22.5l22.8.9h.2A4.4,4.4,0,0,0,67,19a4.4,4.4,0,0,0-4.4-4.4ZM25.9,20.1H24.7a1.1,1.1,0,1,1,0-2.2h1.2Zm11.4,6.4-.5.5H28.6l-.5-.5v-15l.5-.5h8.2l.5.5Zm26.8-6a1.7,1.7,0,0,1-1.6.6l-22.9-.9V17.8l22.9-.9a2,2,0,0,1,2.2,2,2.3,2.3,0,0,1-.6,1.6Z"/>
    <path class="cls-1" d="M31.6.7h2.3V6.4H31.6Z"/>
    <path class="cls-1" d="M16,6l1.9-1.1,5.2,9L21.2,15Z"/>
    <path class="cls-1" d="M6.4,18.8l1.2-1.9,16.5,9.5-1.1,2Z"/>
    <path class="cls-1" d="M3,31.6H16.7v2.3H3Z"/>
    <path class="cls-1" d="M48.7,31.6H62.4v2.3H48.7Z"/>
    <path class="cls-1" d="M41.3,26.4,44,24.9l1.2,1.9-2.8,1.6Z"/>
    <path class="cls-1" d="M42.9,12.7l3.7-6.3,2,1.2-3.7,6.3Z"/>
    <path class="cls-1" d="M24.1,5l2.2-.6L27,7l-2.2.6Z"/>
    <path class="cls-1" d="M8.7,27.5l.6-2.2,5.1,1.3-.6,2.2Z"/>
    <path class="cls-1" d="M50.7,26.7l7.1-1.9.6,2.2-7.1,1.9Z"/>
  </g>
</svg>
