<?xml version="1.0" encoding="utf-8"?>
<!-- Generator: Adobe Illustrator 23.0.1, SVG Export Plug-In . SVG Version: 6.00 Build 0)  -->
<svg version="1.1" id="Layer_1" xmlns="http://www.w3.org/2000/svg" xmlns:xlink="http://www.w3.org/1999/xlink" x="0px" y="0px"
	 viewBox="0 0 70 70" style="enable-background:new 0 0 70 70;" xml:space="preserve">
<g>
	<g>
		<path d="M60.87,50.02c-1.77-2.64-4.2-6.26-4.2-16.57v-4.64c0-9.8-6.54-18.09-15.48-20.76V7.14c0-3.41-2.78-6.19-6.19-6.19
			s-6.19,2.78-6.19,6.19v0.91c-8.94,2.67-15.48,10.96-15.48,20.76v4.64c0,10.3-2.42,13.92-4.2,16.57c-1.02,1.53-2,2.98-2,5.1
			c0,5.05,10.52,6.82,19.05,7.43c1.2,3.83,4.71,6.5,8.81,6.5s7.62-2.68,8.81-6.5c8.53-0.61,19.05-2.38,19.05-7.43
			C62.86,53,61.89,51.55,60.87,50.02z M31.9,7.14c0-1.71,1.39-3.1,3.1-3.1s3.1,1.39,3.1,3.1v0.25c-1.01-0.15-2.04-0.25-3.1-0.25
			s-2.08,0.1-3.1,0.25L31.9,7.14L31.9,7.14z M35,65.96c-2.31,0-4.35-1.28-5.4-3.21c2.19,0.09,4.1,0.12,5.4,0.12
			c1.3,0,3.21-0.03,5.4-0.12C39.35,64.68,37.31,65.96,35,65.96z M35,59.77c-14.18,0-24.77-2.45-24.77-4.64
			c0-1.13,0.48-1.9,1.47-3.38c1.88-2.81,4.72-7.05,4.72-18.29v-4.64c0-10.24,8.33-18.57,18.57-18.57s18.57,8.33,18.57,18.57v4.64
			c0,11.25,2.84,15.49,4.72,18.29c0.99,1.48,1.47,2.25,1.47,3.38C59.77,57.31,49.18,59.77,35,59.77z"/>
	</g>
</g>
</svg>
