<?xml version="1.0" encoding="utf-8"?>
<!-- Generator: Adobe Illustrator 23.0.1, SVG Export Plug-In . SVG Version: 6.00 Build 0)  -->
<svg version="1.1" id="Layer_1" xmlns="http://www.w3.org/2000/svg" xmlns:xlink="http://www.w3.org/1999/xlink" x="0px" y="0px"
	 viewBox="0 0 70 70" style="enable-background:new 0 0 70 70;" xml:space="preserve">
<g>
	<path d="M56.03,35.93v-6.5c0-9.48-6.3-17.51-14.93-20.13V6.37c0-3.37-2.74-6.11-6.11-6.11S28.89,3,28.89,6.37v2.94
		c-8.63,2.62-14.93,10.65-14.93,20.13v6.5c0,8.32-3.17,16.21-8.93,22.22c-0.56,0.59-0.72,1.46-0.4,2.21
		c0.32,0.75,1.06,1.24,1.87,1.24h18.52c0.95,4.64,5.06,8.14,9.97,8.14c4.92,0,9.03-3.5,9.97-8.14H63.5c0.82,0,1.55-0.49,1.87-1.24
		c0.32-0.75,0.16-1.62-0.4-2.21C59.21,52.15,56.03,44.25,56.03,35.93z M32.96,6.37c0-1.12,0.91-2.04,2.04-2.04
		c1.12,0,2.04,0.91,2.04,2.04V8.5C36.37,8.44,35.69,8.4,35,8.4s-1.37,0.03-2.04,0.1V6.37z M35,65.67c-2.65,0-4.92-1.7-5.76-4.07
		h11.51C39.92,63.97,37.65,65.67,35,65.67L35,65.67z M10.89,57.53c4.64-6.21,7.15-13.73,7.15-21.6v-6.5
		c0-9.35,7.61-16.96,16.96-16.96s16.96,7.61,16.96,16.96v6.5c0,7.86,2.51,15.38,7.15,21.6H10.89z"/>
	<path d="M61.46,29.44c0,1.12,0.91,2.04,2.04,2.04s2.04-0.91,2.04-2.04c0-8.16-3.18-15.82-8.94-21.59c-0.79-0.79-2.08-0.79-2.88,0
		s-0.79,2.08,0,2.88C58.71,15.72,61.46,22.37,61.46,29.44L61.46,29.44z"/>
	<path d="M6.5,31.47c1.12,0,2.04-0.91,2.04-2.04c0-7.07,2.75-13.71,7.75-18.71c0.79-0.79,0.79-2.08,0-2.88
		c-0.79-0.79-2.08-0.79-2.88,0c-5.77,5.77-8.94,13.43-8.94,21.59C4.47,30.56,5.38,31.47,6.5,31.47z"/>
</g>
</svg>
