<svg id="Layer_1" data-name="Layer 1" xmlns="http://www.w3.org/2000/svg" width="70" height="70" viewBox="0 0 70 70">
  <defs>
    <style>
      .cls-1 {
        fill: #96b2cb;
      }
    </style>
  </defs>
  <title>outsource</title>
  <g>
    <path class="cls-1" d="M45.8,49.8l-5.5-1.3-.5-1.6a8.9,8.9,0,0,0,3.4-4.2h.7a4.4,4.4,0,0,0,3.6-6.9h0a8.4,8.4,0,0,0,.8-3.4,7.5,7.5,0,0,0-4.2-6.8h-.3a4.9,4.9,0,0,0-4.9-4.9H31.7a7.9,7.9,0,0,0-7.8,7.3l-.2.2a6.8,6.8,0,0,0-2,4.9,5.2,5.2,0,0,0,.4,2.1l.3.9a4.8,4.8,0,0,0-.7,2.3,4.4,4.4,0,0,0,4.4,4.4h.7a8.9,8.9,0,0,0,3.4,4.2l-.5,1.6-5.5,1.3a9.3,9.3,0,0,0-5.1,3.4,9.1,9.1,0,0,0-1.8,5.5V69.3H52.7V58.7a9.1,9.1,0,0,0-1.8-5.5,9.3,9.3,0,0,0-5.1-3.4ZM31.6,52.9l-.7,3.4L28.6,51l1.5-.4Zm2.1.9h2.6l1.2,6L35,65.5l-2.5-5.7Zm5.4,2.5-.7-3.4,1.5-2.3,1.5.4Zm4.8-15.8h-.1c0-.3.1-.7.1-1.1V36.1a2.2,2.2,0,1,1,0,4.4ZM25.3,29.7l.8-.9v-.4a5.6,5.6,0,0,1,5.6-5.6h7.2a2.8,2.8,0,0,1,2.7,2.8,2.7,2.7,0,0,1-1.8,2.6l-.7.2.7,2.1.7-.2a5,5,0,0,0,2.9-2.6,5.5,5.5,0,0,1,2.7,4.7,6.5,6.5,0,0,1-.4,1.9,3.9,3.9,0,0,0-1.8-.4h-.3a3.2,3.2,0,0,0-3.1-2.2h-11a3.2,3.2,0,0,0-3.1,2.2h-.3a4.1,4.1,0,0,0-1.9.5,3.9,3.9,0,0,1-.3-1.4,4.4,4.4,0,0,1,1.4-3.3Zm.8,10.8a2.2,2.2,0,1,1,0-4.4v3.3c0,.4.1.8.1,1.1Zm2.3-1.1V35a1.1,1.1,0,0,1,1.1-1.1h11A1.1,1.1,0,0,1,41.6,35v4.4a6.6,6.6,0,1,1-13.2,0ZM35,48.3a7.6,7.6,0,0,0,2.7-.5l.5,1.4-1.6,2.4H33.4l-1.6-2.4.5-1.4A7.6,7.6,0,0,0,35,48.3ZM19.5,58.7A6.8,6.8,0,0,1,24.8,52l1.6-.4,6.9,15.5H26.1V61.2a5.1,5.1,0,0,0-1.6-3.9l-.9-1L22,57.9l1,.9a3.6,3.6,0,0,1,.9,2.4v5.9H19.5Zm31,8.4H46.1V61.2a3.6,3.6,0,0,1,.9-2.4l1-.9-1.6-1.6-.9,1a5.1,5.1,0,0,0-1.6,3.9v5.9H36.7l6.9-15.5,1.6.4a6.8,6.8,0,0,1,5.3,6.7Z"/>
    <path class="cls-1" d="M56,27.3A13.3,13.3,0,1,0,42.7,14,13.4,13.4,0,0,0,56,27.3Zm-7.5-5.2a7.7,7.7,0,0,1,3.7-4.9L56,21.1l3.9-3.9a7.6,7.6,0,0,1,3.6,4.9A10.9,10.9,0,0,1,56,25a11.1,11.1,0,0,1-7.5-2.9Zm4.2-11.4A3.4,3.4,0,0,1,56,7.3a3.3,3.3,0,0,1,3.3,3.4A3.3,3.3,0,0,1,56,14,3.3,3.3,0,0,1,52.7,10.7ZM56,16.2l1.6.2L56,17.9l-1.6-1.5ZM56,2.9A11.1,11.1,0,0,1,67.1,14a10.5,10.5,0,0,1-1.9,6.1,9.9,9.9,0,0,0-5.4-5.4,5.4,5.4,0,0,0,1.8-4,5.6,5.6,0,1,0-11.1,0,5.4,5.4,0,0,0,1.8,4,10,10,0,0,0-5.5,5.4A11.2,11.2,0,0,1,45,14,11.1,11.1,0,0,1,56,2.9Z"/>
    <path class="cls-1" d="M14,27.3A13.3,13.3,0,1,0,.7,14,13.4,13.4,0,0,0,14,27.3ZM6.5,22.1a7.2,7.2,0,0,1,3.3-4.7,4.4,4.4,0,0,0,8.4,0,8,8,0,0,1,3.3,4.7A11.1,11.1,0,0,1,14,25a10.9,10.9,0,0,1-7.5-2.9Zm4.2-11.4A3.3,3.3,0,0,1,14,7.3,3.4,3.4,0,0,1,14,14,3.3,3.3,0,0,1,10.7,10.7Zm5.5,5.8A2.2,2.2,0,0,1,14,18.4a2.2,2.2,0,0,1-2.2-1.9,7.8,7.8,0,0,1,2.2-.3A8.3,8.3,0,0,1,16.2,16.5ZM14,2.9A11.1,11.1,0,0,1,25,14a11.2,11.2,0,0,1-1.8,6.1,10,10,0,0,0-5.5-5.4,5.4,5.4,0,0,0,1.8-4,5.6,5.6,0,1,0-11.1,0,5.4,5.4,0,0,0,1.8,4,9.9,9.9,0,0,0-5.4,5.4A10.5,10.5,0,0,1,2.9,14,11.1,11.1,0,0,1,14,2.9Z"/>
    <path class="cls-1" d="M54.9,29.5h2.2v2.2H54.9Z"/>
    <path class="cls-1" d="M54.9,41.6H49.4v2.3h7.7v-10H54.9Z"/>
    <path class="cls-1" d="M63.8,60.4V46.1H49.4v2.2H61.6V60.4Z"/>
    <path class="cls-1" d="M62.7,62.7A3.3,3.3,0,1,0,66,66,3.4,3.4,0,0,0,62.7,62.7Zm0,4.4A1.1,1.1,0,1,1,63.8,66,1.1,1.1,0,0,1,62.7,67.1Z"/>
    <path class="cls-1" d="M12.9,29.5h2.2v2.2H12.9Z"/>
    <path class="cls-1" d="M20.6,41.6H15.1V33.9H12.9v10h7.7Z"/>
    <path class="cls-1" d="M6.2,60.4H8.4V48.3H20.6V46.1H6.2Z"/>
    <path class="cls-1" d="M7.3,62.7A3.3,3.3,0,1,0,10.7,66,3.3,3.3,0,0,0,7.3,62.7Zm0,4.4A1.1,1.1,0,1,1,8.4,66,1.1,1.1,0,0,1,7.3,67.1Z"/>
  </g>
</svg>
