<svg id="Layer_1" data-name="Layer 1" xmlns="http://www.w3.org/2000/svg" width="70" height="70" viewBox="0 0 70 70">
  <defs>
    <style>
      .cls-1 {
        fill: #96b2cb;
      }
    </style>
  </defs>
  <title>petcontrol</title>
  <path class="cls-1" d="M63.1,41.7,65.7,43l1-2.1-2-1-7.2-9.7L46.1,32.3a4.1,4.1,0,0,0,.5-1.9,4.7,4.7,0,0,0-2.4-4.1l11.1-3,6-7.2-1.7-1.5L54,21.2l-8.3,2.3a6.8,6.8,0,0,0,.9-3.5,10.7,10.7,0,0,0-.3-2.5c2-.5,7.2-1.9,7.2-5.6A27.5,27.5,0,0,0,51.1.9L49,2a24.5,24.5,0,0,1,2.2,9.9c0,1.7-3.4,2.9-5.5,3.3a21.4,21.4,0,0,0-1-2.2,8.5,8.5,0,0,0,1.9-4.6c0-5.4-7.4-7.9-7.8-8a1.1,1.1,0,0,0-1.2.3,1.2,1.2,0,0,0-.1,1.4,15.7,15.7,0,0,1,2,6,11.7,11.7,0,0,0-9,0,15.7,15.7,0,0,1,2-6A1.2,1.2,0,0,0,32.4.7,1.1,1.1,0,0,0,31.2.4c-.4.1-7.8,2.6-7.8,8A8.5,8.5,0,0,0,25.3,13a21.4,21.4,0,0,0-1,2.2c-2.1-.4-5.5-1.6-5.5-3.3A24.5,24.5,0,0,1,21,2L18.9.9a27.5,27.5,0,0,0-2.4,11c0,3.7,5.2,5.1,7.2,5.6a10.7,10.7,0,0,0-.3,2.5,6.8,6.8,0,0,0,.9,3.5L16,21.2l-5.6-6.6L8.7,16.1l6,7.2,11.1,3a4.7,4.7,0,0,0-2.4,4.1,4.1,4.1,0,0,0,.5,1.9l-11.4-2L5.3,39.9l-2,1,1,2.1,2.6-1.3,6.6-8.9,10.4,1.9a3.5,3.5,0,0,0-.5,1.8,3.8,3.8,0,0,0,1.5,3l-.2.5L12.1,45.7l-4.6,15-2.9.9.7,2.2,4-1.3L14,47.4l9.3-4.3c-1.4,3.7-2.2,6.7-2.2,9.2,0,13.5,13.5,17.3,13.6,17.3h.5c.1-.1,13.7-2.7,13.7-17.4,0-2.5-.8-5.5-2.2-9.2L56,47.4l4.7,15.1,4,1.3.7-2.2-2.9-.9-4.6-15L45.3,40l-.2-.5a3.8,3.8,0,0,0,1.5-3,3.5,3.5,0,0,0-.5-1.8l10.4-1.9ZM42.7,35a1.6,1.6,0,0,1,1.6,1.5,1.5,1.5,0,0,1-1.1,1.4A34.6,34.6,0,0,1,35,39.6a34.6,34.6,0,0,1-8.2-1.7,1.5,1.5,0,0,1-1.1-1.4A1.6,1.6,0,0,1,27.3,35H42.7Zm3.9,17.3a14.8,14.8,0,0,1-.3,3.1A21.1,21.1,0,0,1,35,59.3a21.7,21.7,0,0,1-11.2-3.8,15.5,15.5,0,0,1-.4-3.2c0-.3.1-.6.1-1A20.4,20.4,0,0,0,35,54.6a20.4,20.4,0,0,0,11.5-3.3C46.5,51.7,46.6,52,46.6,52.3ZM35,52.3a18.2,18.2,0,0,1-11.1-3.5,29.6,29.6,0,0,1,1-3.3A18.2,18.2,0,0,0,35,48.9a18.2,18.2,0,0,0,10.1-3.4,29.6,29.6,0,0,1,1,3.3A18.2,18.2,0,0,1,35,52.3Zm0-5.8a16.4,16.4,0,0,1-9.3-3.2l1.4-2.9A31.1,31.1,0,0,0,35,41.9a31.1,31.1,0,0,0,7.9-1.5l1.4,2.9A16.4,16.4,0,0,1,35,46.5ZM40.8,3.9c1.7.9,3.5,2.5,3.5,4.5A4.6,4.6,0,0,1,43.2,11L41.9,9.6a19.8,19.8,0,0,0-1.1-5.7ZM44.3,20c0,4.7-5.1,5.7-9.3,5.7s-9.3-1-9.3-5.7S28.6,9.5,35,9.5,44.3,15.6,44.3,20ZM25.7,8.4c0-1.9,1.8-3.5,3.5-4.6a21.4,21.4,0,0,0-1.1,5.8L26.8,11A4.6,4.6,0,0,1,25.7,8.4ZM28.1,28H41.9a2.4,2.4,0,1,1,0,4.7H28.1a2.4,2.4,0,1,1,0-4.7Zm7,39.3c-1.4-.4-7.4-2.7-10.2-8.5A23.1,23.1,0,0,0,35,61.6a23.5,23.5,0,0,0,10.4-2.9c-2.6,6.5-8.9,8.3-10.3,8.6Z"/>
</svg>
