<svg id="Layer_1" data-name="Layer 1" xmlns="http://www.w3.org/2000/svg" width="70" height="70" viewBox="0 0 70 70">
  <defs>
    <style>
      .cls-1 {
        fill: #96b2cb;
      }
    </style>
  </defs>
  <title>plaster</title>
  <g>
    <path class="cls-1" d="M15,51.4l1.2-2.3,2,1.1L17,52.5Z"/>
    <path class="cls-1" d="M26.1,35.6a3.5,3.5,0,0,1,3.2-1.7l.2-2.3a5.7,5.7,0,0,0-5.3,2.9L17.4,46.8l2,1.1Z"/>
    <path class="cls-1" d="M69.9,8A7.9,7.9,0,0,0,62,.1H60.4L37.9,22.6l2.3,2.3-4.7,4.6A10.2,10.2,0,0,0,29,27.1a9.9,9.9,0,0,0-8.3,4.5H.1V69.9H69.9V31.6h-22l22-22ZM67.7,8A5.6,5.6,0,0,1,62,2.3,5.8,5.8,0,0,1,67.7,8Zm-1.5,2.1L50.8,25.5l-6.3-6.3L59.9,3.8A7.9,7.9,0,0,0,66.2,10.1ZM42.9,20.8l6.3,6.3-1.8,1.8-6.3-6.3Zm.6,7.4-7.8,7.9a2.4,2.4,0,0,1-1.8-1.8l7.9-7.8ZM15.7,40.6H13.6V33.9h5.8Zm-1.2,2.3-3.7,6.7H9.1V42.9ZM6.9,49.6H2.3V42.9H6.9Zm2.7,2.3a7,7,0,0,0-.5,2.5,6.3,6.3,0,0,0,1.6,4.2H2.3V51.9Zm8.5,9v6.8h-9V60.9Zm33.8-18v6.7h-9V42.9ZM47.4,58.6V51.9h9v6.7Zm-11.3,0V51.9h9v6.7Zm4.5-9H37.9a10,10,0,0,0,2.7-2.3Zm-6.8,2.3h.1v6.7H21.4Zm-13.4,9h9v6.8h-9Zm11.2,0h9v6.8h-9Zm11.3,0h9v6.8h-9Zm11.2,0h9v6.8h-9Zm4.5-2.3V51.9h9.1v6.7Zm6.8-9V42.9h2.3v6.7Zm-2.3,0h-9V42.9h9Zm-15.7-9V33.9h9v6.7Zm-2.3,0H42.9a9.7,9.7,0,0,0-2.4-6.1l.6-.6h4ZM22.2,33.4a7.8,7.8,0,0,1,6.8-4,7.7,7.7,0,0,1,4.9,1.7l-2.3,2.3v.5a4.5,4.5,0,0,0,4.5,4.5h.5l2.3-2.3A7.7,7.7,0,0,1,40.6,41a7.8,7.8,0,0,1-4,6.8L17.7,58.1a4.1,4.1,0,0,1-2.1.5,4.2,4.2,0,0,1-4.2-4.2,4.1,4.1,0,0,1,.5-2.1Zm-10.8.5v6.7H2.3V33.9Zm-9.1,27H6.9v6.8H2.3Zm63.1,6.8V60.9h2.3v6.8Zm2.3-27.1H58.6V33.9h9.1Zm-24.4-9,1.8-1.8,1.8,1.8Z"/>
  </g>
</svg>
