<?xml version="1.0" encoding="utf-8"?>
<!-- Generator: Adobe Illustrator 23.0.1, SVG Export Plug-In . SVG Version: 6.00 Build 0)  -->
<svg version="1.1" id="Layer_1" xmlns="http://www.w3.org/2000/svg" xmlns:xlink="http://www.w3.org/1999/xlink" x="0px" y="0px"
	 viewBox="0 0 70 70" style="enable-background:new 0 0 70 70;" xml:space="preserve">
<g>
	<path d="M48.87,38.37H34.76c-1.88,0-3.41-1.53-3.41-3.41V20.85c0-1.88,1.53-3.41,3.41-3.41h14.11c1.88,0,3.41,1.53,3.41,3.41v14.11
		C52.28,36.84,50.75,38.37,48.87,38.37z M34.76,19.38c-0.81,0-1.47,0.66-1.47,1.47v14.11c0,0.81,0.66,1.47,1.47,1.47h14.11
		c0.81,0,1.47-0.66,1.47-1.47V20.85c0-0.81-0.66-1.47-1.47-1.47L34.76,19.38z"/>
	<path d="M43.96,19.38h-4.29c-0.54,0-0.97-0.43-0.97-0.97V8.63c0-0.54,0.43-0.97,0.97-0.97s0.97,0.43,0.97,0.97v8.82h2.35V8.63
		c0-0.54,0.43-0.97,0.97-0.97s0.97,0.43,0.97,0.97v9.79C44.93,18.95,44.49,19.38,43.96,19.38z"/>
	<path d="M29.33,9.59c-2.19,0-3.97-1.77-3.97-3.96c0-2.19,1.77-3.97,3.96-3.97c0.18,0,0.35,0.01,0.53,0.03l9.01,1.17
		c0.53,0.07,0.9,0.56,0.84,1.09c-0.02,0.13-0.06,0.25-0.12,0.36c-0.47,0.81-0.47,1.81,0,2.62c0.27,0.46,0.11,1.06-0.36,1.32
		c-0.11,0.06-0.23,0.1-0.36,0.12l-9.01,1.19C29.67,9.58,29.5,9.59,29.33,9.59z M29.33,3.6c-0.49,0-0.97,0.18-1.34,0.5
		c-0.44,0.38-0.69,0.94-0.69,1.52c0,0.59,0.25,1.14,0.69,1.53c0.44,0.38,1.02,0.56,1.6,0.48l7.79-1.02c-0.15-0.65-0.15-1.33,0-1.98
		l-7.79-1.02C29.5,3.61,29.42,3.6,29.33,3.6z"/>
	<path d="M54.3,9.6c-0.17,0-0.34-0.01-0.51-0.03l-9-1.19c-0.53-0.07-0.9-0.56-0.83-1.09c0.02-0.13,0.06-0.25,0.12-0.36
		c0.47-0.81,0.47-1.81,0-2.62c-0.27-0.46-0.11-1.06,0.36-1.32c0.11-0.06,0.23-0.1,0.36-0.12l9-1.17c2.17-0.28,4.16,1.25,4.44,3.42
		c0.28,2.17-1.25,4.16-3.42,4.44C54.64,9.58,54.47,9.6,54.3,9.6L54.3,9.6z M46.25,6.62l7.79,1.03c1.11,0.14,2.13-0.64,2.28-1.76
		c0.01-0.09,0.02-0.17,0.02-0.26c0-0.58-0.25-1.14-0.68-1.52c-0.44-0.39-1.03-0.56-1.61-0.48l-7.78,1.02
		C46.4,5.29,46.4,5.97,46.25,6.62L46.25,6.62z"/>
	<path d="M22.95,49.32H11.47c-1.88,0-3.41-1.53-3.41-3.41v-0.94c0-1.88,1.53-3.41,3.41-3.41h11.47c1.88,0,3.41,1.53,3.41,3.41v0.94
		C26.36,47.79,24.83,49.31,22.95,49.32z M11.47,43.49c-0.81,0-1.47,0.66-1.47,1.47v0.94c0,0.81,0.66,1.47,1.47,1.47h11.47
		c0.81,0,1.47-0.66,1.47-1.47v-0.94c0-0.81-0.66-1.47-1.47-1.47H11.47z"/>
	<path d="M22.68,43.49c-0.54,0-0.97-0.43-0.97-0.97v-4c0-3.44,2.79-6.23,6.23-6.23h3.41v-9h-3.41c-8.41,0.01-15.22,6.82-15.23,15.23
		v4c0,0.54-0.43,0.97-0.97,0.97c-0.54,0-0.97-0.43-0.97-0.97v-4c0.01-9.48,7.69-17.16,17.17-17.17h4.38c0.54,0,0.97,0.43,0.97,0.97
		v10.93c0,0.54-0.43,0.97-0.97,0.97h-4.38c-2.37,0-4.29,1.92-4.3,4.3v4C23.65,43.06,23.22,43.49,22.68,43.49
		C22.68,43.49,22.68,43.49,22.68,43.49L22.68,43.49z"/>
	<path d="M59.08,34.34h-7.76c-0.54,0-0.97-0.43-0.97-0.97s0.43-0.97,0.97-0.97h6.79v-9h-6.79c-0.54,0-0.97-0.43-0.97-0.97
		s0.43-0.97,0.97-0.97h7.76c0.54,0,0.97,0.43,0.97,0.97v10.94C60.05,33.91,59.61,34.34,59.08,34.34L59.08,34.34z"/>
	<path d="M65.13,42.74c-0.04,0-0.08,0-0.12-0.01c-3.94-0.5-6.9-3.85-6.9-7.82V20.9c0.01-3.97,2.96-7.32,6.9-7.82
		c0.53-0.07,1.02,0.31,1.08,0.84c0,0.04,0.01,0.08,0.01,0.12v27.73C66.1,42.3,65.67,42.74,65.13,42.74L65.13,42.74z M64.16,15.25
		c-2.45,0.8-4.11,3.08-4.11,5.66v14.01c0,2.58,1.67,4.86,4.12,5.66L64.16,15.25z"/>
	<path d="M12.63,62.25c-2.08,0-3.76-1.68-3.76-3.76c0-1.72,2.44-5.86,2.93-6.67c0.32-0.46,0.94-0.57,1.4-0.26
		c0.1,0.07,0.19,0.16,0.26,0.26c0.48,0.81,2.93,4.94,2.93,6.67C16.39,60.56,14.7,62.25,12.63,62.25z M12.63,54.26
		c-0.82,1.31-1.43,2.73-1.82,4.23c0,1.01,0.82,1.82,1.82,1.82s1.82-0.82,1.82-1.82C14.06,56.99,13.44,55.57,12.63,54.26z"/>
	<path d="M20.78,68.92c-2.08,0-3.76-1.69-3.76-3.76c0-1.72,2.44-5.86,2.93-6.67c0.32-0.46,0.94-0.57,1.4-0.26
		c0.1,0.07,0.19,0.16,0.26,0.26c0.48,0.81,2.93,4.95,2.93,6.67C24.54,67.23,22.86,68.92,20.78,68.92z M20.78,60.93
		c-0.82,1.31-1.43,2.74-1.82,4.23c0,1.01,0.82,1.82,1.82,1.82c1.01,0,1.82-0.82,1.82-1.82C22.21,63.66,21.6,62.24,20.78,60.93
		L20.78,60.93z"/>
	<path d="M41.82,10.17c-2.51,0-4.54-2.03-4.54-4.54c0-2.51,2.03-4.54,4.54-4.54c2.51,0,4.54,2.03,4.54,4.54c0,0,0,0,0,0
		C46.35,8.13,44.32,10.16,41.82,10.17z M41.82,3.02c-1.44,0-2.6,1.16-2.6,2.6c0,1.44,1.16,2.6,2.6,2.6c1.44,0,2.6-1.16,2.6-2.6
		c0,0,0,0,0,0C44.42,4.19,43.25,3.02,41.82,3.02z"/>
	<path d="M4.87,22.85c-0.03,0-0.06,0-0.1,0c-0.53-0.05-0.92-0.52-0.87-1.06c0,0,0,0,0,0c0.68-6.98,6.88-12.08,13.86-11.42
		c0.53,0.05,0.92,0.52,0.87,1.06c-0.05,0.53-0.52,0.92-1.06,0.87l0,0c-5.91-0.56-11.16,3.76-11.74,9.67
		C5.79,22.47,5.37,22.85,4.87,22.85z"/>
	<path d="M8.76,23.22c-0.03,0-0.06,0-0.1,0c-0.53-0.05-0.92-0.52-0.87-1.06c0,0,0,0,0,0c0.47-4.83,4.76-8.37,9.59-7.9
		c0.53,0.05,0.92,0.52,0.87,1.06c-0.05,0.53-0.52,0.92-1.06,0.87c-3.76-0.36-7.11,2.4-7.47,6.16C9.68,22.85,9.26,23.22,8.76,23.22z"
		/>
	<path d="M12.65,23.6c-0.03,0-0.06,0-0.1,0c-0.53-0.05-0.92-0.52-0.87-1.06c0,0,0,0,0,0c0.26-2.68,2.64-4.64,5.31-4.39
		c0,0,0.01,0,0.01,0c0.54,0.01,0.96,0.46,0.94,0.99c-0.01,0.54-0.46,0.96-0.99,0.94c-0.04,0-0.09-0.01-0.13-0.01
		c-1.61-0.15-3.05,1.03-3.21,2.64C13.57,23.22,13.15,23.6,12.65,23.6L12.65,23.6z"/>
</g>
</svg>
