<?xml version="1.0" encoding="utf-8"?>
<!-- Generator: Adobe Illustrator 23.0.1, SVG Export Plug-In . SVG Version: 6.00 Build 0)  -->
<svg version="1.1" id="Layer_1" xmlns="http://www.w3.org/2000/svg" xmlns:xlink="http://www.w3.org/1999/xlink" x="0px" y="0px"
	 viewBox="0 0 60 60" style="enable-background:new 0 0 60 60;" xml:space="preserve">
<g>
	<g>
		<g>
			<path d="M30,30.08c-15.54,0-28.18,12.64-28.18,28.18c0,0.68,0.55,1.23,1.23,1.23s1.23-0.55,1.23-1.23
				c0-14.19,11.54-25.73,25.73-25.73s25.73,11.54,25.73,25.73c0,0.68,0.55,1.23,1.23,1.23c0.68,0,1.23-0.55,1.23-1.23
				C58.18,42.72,45.54,30.08,30,30.08z"/>
		</g>
	</g>
	<g>
		<g>
			<path d="M30,0.52c-7.43,0-13.48,6.05-13.48,13.48S22.57,27.47,30,27.47S43.48,21.43,43.48,14S37.43,0.52,30,0.52z M30,25.02
				c-6.08,0-11.03-4.95-11.03-11.03S23.92,2.97,30,2.97S41.03,7.92,41.03,14S36.08,25.02,30,25.02z"/>
		</g>
	</g>
</g>
</svg>
