<svg id="Layer_1" data-name="Layer 1" xmlns="http://www.w3.org/2000/svg" width="70" height="70" viewBox="0 0 70 70">
  <defs>
    <style>
      .cls-1 {
        fill: #96b2cb;
      }
    </style>
  </defs>
  <title>property</title>
  <g>
    <path class="cls-1" d="M69,32.7,56.2,21.8c.1,0,.1-.1.1-.2V7.4a1.6,1.6,0,0,0-1.5-1.6H47.6a1.5,1.5,0,0,0-1.4,1.6v5.9L36,4.6a1.5,1.5,0,0,0-2,0L1,32.7a1.4,1.4,0,0,0-.1,2.1,1.4,1.4,0,0,0,2,.2H3L35,7.7l11.5,9.7,6.8,5.9L67,35a1.5,1.5,0,0,0,2.1-.2A1.4,1.4,0,0,0,69,32.7ZM53.3,19.3l-4.2-3.5v-7h4.2Z"/>
    <path class="cls-1" d="M62.4,35.7l-4.2-3.6L36,13.1a1.5,1.5,0,0,0-2,0l-22.2,19L7.6,35.7A1.5,1.5,0,0,0,9.5,38h0l1.9-1.6V64.2a1.6,1.6,0,0,0,1.5,1.6H57.1a1.6,1.6,0,0,0,1.5-1.6V36.4L60.5,38a1.6,1.6,0,0,0,.9.3,1.7,1.7,0,0,0,1.2-.5A1.6,1.6,0,0,0,62.4,35.7ZM41,62.8H29.1V46.7H41Zm2.9,0V45.3a1.5,1.5,0,0,0-1.4-1.5h-15a1.5,1.5,0,0,0-1.4,1.5V62.8H14.3v-29L35,16.2,55.7,33.8v29Z"/>
  </g>
</svg>
