<?xml version="1.0" encoding="utf-8"?>
<!-- Generator: Adobe Illustrator 23.0.1, SVG Export Plug-In . SVG Version: 6.00 Build 0)  -->
<svg version="1.1" id="Layer_1" xmlns="http://www.w3.org/2000/svg" xmlns:xlink="http://www.w3.org/1999/xlink" x="0px" y="0px"
	 viewBox="0 0 60 60" style="enable-background:new 0 0 60 60;" xml:space="preserve">
<g>
	<path d="M6,57.84c0,0.53,0.43,0.96,0.96,0.96h46.08c0.53,0,0.96-0.43,0.96-0.96V6c0-2.65-2.15-4.8-4.8-4.8H6.96
		C6.43,1.2,6,1.63,6,2.16V57.84z M52.08,6v2.88h-3.84V5.04c0-0.67-0.18-1.34-0.52-1.92h1.48C50.79,3.12,52.08,4.41,52.08,6z
		 M7.92,3.12H44.4c1.06,0,1.92,0.86,1.92,1.92v4.8c0,0.53,0.43,0.96,0.96,0.96h4.8v46.08H7.92V3.12z"/>
	<path d="M47.28,49.2H39.6c-0.53,0-0.96,0.43-0.96,0.96s0.43,0.96,0.96,0.96h7.68c0.53,0,0.96-0.43,0.96-0.96S47.81,49.2,47.28,49.2
		z"/>
	<path d="M47.28,53.04H31.92c-0.53,0-0.96,0.43-0.96,0.96s0.43,0.96,0.96,0.96h15.36c0.53,0,0.96-0.43,0.96-0.96
		S47.81,53.04,47.28,53.04z"/>
	<path d="M19.44,11.76c0.53,0,0.96,0.43,0.96,0.96c0,0.53,0.43,0.96,0.96,0.96c0.53,0,0.96-0.43,0.96-0.96
		c0-1.22-0.77-2.31-1.92-2.71V9.84c0-0.53-0.43-0.96-0.96-0.96c-0.53,0-0.96,0.43-0.96,0.96v0.17c-1.5,0.53-2.28,2.18-1.75,3.68
		c0.41,1.15,1.49,1.92,2.71,1.92c0.53,0,0.96,0.43,0.96,0.96c0,0.53-0.43,0.96-0.96,0.96c-0.53,0-0.96-0.43-0.96-0.96
		c0-0.53-0.43-0.96-0.96-0.96s-0.96,0.43-0.96,0.96c0,1.22,0.77,2.31,1.92,2.71v0.17c0,0.53,0.43,0.96,0.96,0.96
		c0.53,0,0.96-0.43,0.96-0.96v-0.17c1.5-0.53,2.28-2.18,1.75-3.68c-0.41-1.15-1.49-1.92-2.71-1.92c-0.53,0-0.96-0.43-0.96-0.96
		C18.48,12.19,18.91,11.76,19.44,11.76z"/>
	<path d="M29.04,14.64c0-5.3-4.3-9.6-9.6-9.6s-9.6,4.3-9.6,9.6s4.3,9.6,9.6,9.6C24.74,24.23,29.03,19.94,29.04,14.64z M19.44,22.32
		c-4.24,0-7.68-3.44-7.68-7.68s3.44-7.68,7.68-7.68s7.68,3.44,7.68,7.68C27.12,18.88,23.68,22.32,19.44,22.32z"/>
	<path d="M46.75,28.08H22.85c-0.82,0-1.49,0.43-1.49,0.96c0,0.53,0.67,0.96,1.49,0.96h23.89c0.82,0,1.49-0.43,1.49-0.96
		C48.24,28.51,47.57,28.08,46.75,28.08z"/>
	<path d="M46.75,31.92H22.85c-0.82,0-1.49,0.43-1.49,0.96s0.67,0.96,1.49,0.96h23.89c0.82,0,1.49-0.43,1.49-0.96
		S47.57,31.92,46.75,31.92z"/>
	<path d="M46.75,35.76H22.85c-0.82,0-1.49,0.43-1.49,0.96s0.67,0.96,1.49,0.96h23.89c0.82,0,1.49-0.43,1.49-0.96
		S47.57,35.76,46.75,35.76z"/>
	<path d="M46.75,39.6H22.85c-0.82,0-1.49,0.43-1.49,0.96s0.67,0.96,1.49,0.96h23.89c0.82,0,1.49-0.43,1.49-0.96
		S47.57,39.6,46.75,39.6z"/>
	<path d="M48.24,44.4c0-0.53-0.67-0.96-1.49-0.96H22.85c-0.82,0-1.49,0.43-1.49,0.96c0,0.53,0.67,0.96,1.49,0.96h23.89
		C47.57,45.36,48.24,44.93,48.24,44.4z"/>
</g>
</svg>
