<?xml version="1.0" encoding="utf-8"?>
<!-- Generator: Adobe Illustrator 23.0.1, SVG Export Plug-In . SVG Version: 6.00 Build 0)  -->
<svg version="1.1" id="Layer_1" xmlns="http://www.w3.org/2000/svg" xmlns:xlink="http://www.w3.org/1999/xlink" x="0px" y="0px"
	 viewBox="0 0 60 60" style="enable-background:new 0 0 60 60;" xml:space="preserve">
<path d="M36.97,12.31v-7.5c0-1.18-0.96-2.14-2.14-2.14H12.31v5.36c0,2.37-1.92,4.28-4.29,4.29H2.67V50.9c0,1.18,0.96,2.14,2.14,2.14
	h17.15v2.14H4.81c-2.37,0-4.28-1.92-4.29-4.29V11.24c0-0.28,0.11-0.56,0.31-0.76l9.65-9.65c0.2-0.2,0.47-0.31,0.76-0.31h23.58
	c2.37,0,4.28,1.92,4.29,4.29v7.5H36.97z M10.17,4.18l-5.99,5.99h3.84c1.18,0,2.14-0.96,2.14-2.14V4.18z M41.53,29.46h-0.28v-1.07
	h-2.14v1.07h-0.28c-1.62,0-2.94,1.32-2.94,2.94c0,1.27,0.81,2.39,2.01,2.79l3.88,1.29c0.42,0.14,0.64,0.59,0.5,1.01
	c-0.11,0.33-0.41,0.54-0.76,0.54h-2.69c-0.44,0-0.8-0.36-0.8-0.8v-0.28H35.9v0.28c0,1.62,1.32,2.94,2.94,2.94h0.28v1.07h2.14v-1.07
	h0.28c1.62,0,2.94-1.32,2.94-2.94c0-1.27-0.81-2.39-2.01-2.79l-3.88-1.29c-0.42-0.14-0.64-0.59-0.5-1.01
	c0.11-0.33,0.41-0.54,0.76-0.54h2.69c0.44,0,0.8,0.36,0.8,0.8v0.28h2.14V32.4C44.47,30.78,43.15,29.47,41.53,29.46z M31.26,27.85
	l1.85,1.08c0.28-0.49,0.69-0.9,1.18-1.18l-1.08-1.85C32.4,26.37,31.73,27.04,31.26,27.85L31.26,27.85z M30.54,35.9h2.14v-5.36h-2.14
	V35.9z M55.27,26.65l1.99-0.8c-1.21-3.01-3.29-5.42-5.85-6.77l-1,1.9C52.52,22.09,54.24,24.11,55.27,26.65L55.27,26.65z
	 M59.48,46.61V58.4c0,0.59-0.48,1.07-1.07,1.07h-9.65v-2.14h4.29V47.19l-0.89-0.6c-2.43-1.62-5.92-1.29-7.99,0.78
	c-0.2,0.2-0.47,0.31-0.76,0.31h-9.11c-0.88,0.01-1.6,0.72-1.61,1.61c0,0.22,0.05,0.44,0.14,0.65c0.26,0.58,0.84,0.95,1.47,0.96h8.04
	v2.14h-8.04c-0.38,0.01-0.75-0.05-1.11-0.17c-0.95-0.29-1.74-0.95-2.2-1.82l-3.54-2.95c-0.47-0.47-1.38-0.52-1.98-0.37
	c-1.45,0.34-1.8,2.29-0.65,3.19c1.94,1.51,5.91,4.59,7.66,5.96c0.38,0.29,0.84,0.45,1.31,0.45h12.83v2.14H33.78
	c-0.95,0-1.88-0.32-2.63-0.9c-1.76-1.37-5.72-4.45-7.66-5.96c-0.97-0.75-1.53-1.91-1.53-3.13v-0.05c0-1.54,0.9-2.93,2.3-3.55
	c0.22-0.83,0.65-1.6,1.26-2.21c0.46-0.46,0.72-1.09,0.72-1.74v-11.4c0.01-4.77,3.49-8.81,8.2-9.54l-1.71-5.13
	c-0.19-0.56,0.12-1.17,0.68-1.36c0.11-0.04,0.22-0.06,0.34-0.06h12.86c0.59,0,1.07,0.48,1.07,1.07c0,0.12-0.02,0.23-0.06,0.34
	L45.92,21c4.71,0.72,8.2,4.77,8.2,9.54v11.4c0,0.65,0.26,1.28,0.72,1.74c0.45,0.45,0.81,0.99,1.05,1.58
	c0.04,0.1,0.08,0.19,0.11,0.29h2.4C59,45.54,59.48,46.02,59.48,46.61z M35.24,16.6l1.43,4.29h7.03l1.43-4.29H35.24z M52.71,44.43
	c-0.48-0.74-0.73-1.61-0.74-2.49v-11.4c0-4.14-3.36-7.5-7.5-7.5c0,0,0,0,0,0H35.9c-4.14,0-7.5,3.36-7.5,7.5v11.4
	c0,1.22-0.49,2.39-1.35,3.25c-0.12,0.12-0.22,0.24-0.31,0.38c0.13,0.02,0.26,0.04,0.39,0.07c0.01,0,0.01,0,0.02,0
	c0.61,0.14,1.18,0.42,1.67,0.82l1.94,1.61c0.52-1.51,1.94-2.53,3.54-2.53h8.68c1.54-1.38,3.54-2.14,5.6-2.14h0.11
	C50.09,43.4,51.48,43.75,52.71,44.43z M57.33,47.69h-2.14v9.65h2.14V47.69z M4.18,24.76v2.28h17.6v-2.28H4.18z M4.18,28.86v2.28
	h17.6v-2.28H4.18z M4.18,20.89v2.28h17.6v-2.28H4.18z"/>
</svg>
