<svg xmlns="http://www.w3.org/2000/svg" xmlns:xlink="http://www.w3.org/1999/xlink" width="70" height="70" viewBox="0 0 70 70">
  <defs>
    <clipPath id="clip-Custom_Size_1">
      <rect width="70" height="70"/>
    </clipPath>
  </defs>
  <g id="Custom_Size_1" data-name="Custom Size – 1" clip-path="url(#clip-Custom_Size_1)">
    <rect width="70" height="70" fill="#fff"/>
    <g id="rating" transform="translate(-20.9 0.935)">
      <path id="Path_1" data-name="Path 1" d="M130.664,308.568h-2.78c-4.175,0-6.769-1.227-6.769-3.2v-16.58A14.058,14.058,0,0,0,127.078,281a1,1,0,0,0-1.882-.669,12.547,12.547,0,0,1-4.221,6.16,3.188,3.188,0,0,0-3.043-2.25h-2.8a3.186,3.186,0,0,0-3.183,3.183v9.39a1,1,0,0,0,2,0v-9.39a1.187,1.187,0,0,1,1.186-1.186h2.8a1.187,1.187,0,0,1,1.186,1.186v19.959a1.187,1.187,0,0,1-1.186,1.186h-2.8a1.187,1.187,0,0,1-1.186-1.186v-5.947a1,1,0,1,0-2,0v5.947a3.186,3.186,0,0,0,3.183,3.183h2.8a3.186,3.186,0,0,0,2.877-1.824c1.244,1.007,3.389,1.824,7.074,1.824h2.78a1,1,0,0,0,0-2Z" transform="translate(-75.208 -242.435)"/>
      <path id="Path_2" data-name="Path 2" d="M246.862,214.443a2.978,2.978,0,0,0,.238-1.17v-2.259a3,3,0,0,0-3-3h-9.723a4.2,4.2,0,0,1-4.071-4.993l.739-3.959a6.561,6.561,0,0,0-3.531-7.07,2.749,2.749,0,0,0-3.736,1.56l-2.072,6.15a1,1,0,1,0,1.892.638l2.072-6.15a.692.692,0,0,1,.394-.424.681.681,0,0,1,.568.018,4.557,4.557,0,0,1,2.45,4.912l-.739,3.959a6.224,6.224,0,0,0,4.351,7.125,4.114,4.114,0,0,0,.674,5.467,4.117,4.117,0,0,0,0,6.288,4.116,4.116,0,0,0-.086,6.141,3.776,3.776,0,0,0-.883,4.666h-2.013a1,1,0,0,0,0,2H242.7a2.821,2.821,0,0,0,2.817-2.817v-1.933a2.8,2.8,0,0,0-.251-1.155A3.275,3.275,0,0,0,247.1,225.5V223.8a3.252,3.252,0,0,0-.324-1.418,3.278,3.278,0,0,0,2.316-3.129v-1.705a3.277,3.277,0,0,0-2.23-3.1Zm-1.759-3.428v2.259a1,1,0,0,1-1,1H236.08a2.128,2.128,0,0,1,0-4.255H244.1A1,1,0,0,1,245.1,211.014Zm-1.275,11.506A1.277,1.277,0,0,1,245.1,223.8V225.5a1.277,1.277,0,0,1-1.275,1.275H236.08a2.128,2.128,0,1,1,0-4.255h7.748Zm-.306,9.005a.821.821,0,0,1-.82.82h-6.963a1.787,1.787,0,0,1,0-3.573c.281,0,6.62,0,6.963,0a.821.821,0,0,1,.82.82Zm3.573-12.277a1.277,1.277,0,0,1-1.275,1.275h-9.781a2.128,2.128,0,0,1,0-4.255h9.781a1.277,1.277,0,0,1,1.275,1.275Z" transform="translate(-170.313 -166.214)"/>
      <path id="Path_3" data-name="Path 3" d="M168.256,15.218,167.162,21.6a1.781,1.781,0,0,0,2.56,1.86l5.731-3.013,5.731,3.013a1.792,1.792,0,0,0,2.56-1.86l-1.095-6.382,4.637-4.52a1.8,1.8,0,0,0-.978-3.01L179.9,6.758,177.036.951a1.792,1.792,0,0,0-3.165,0l-2.866,5.807-6.408.931a1.788,1.788,0,0,0-.978,3.01Zm3.157-6.5a1.765,1.765,0,0,0,1.329-.965l2.711-5.494,2.711,5.494a1.765,1.765,0,0,0,1.329.965l6.063.881-4.387,4.276a1.763,1.763,0,0,0-.508,1.562l1.036,6.038-5.423-2.851a1.765,1.765,0,0,0-1.642,0l-5.423,2.851,1.035-6.038a1.764,1.764,0,0,0-.508-1.562L165.351,9.6Z" transform="translate(-119.559 0)"/>
      <path id="Path_4" data-name="Path 4" d="M378.251,63.928a1.482,1.482,0,0,0-1.2-1.015l-3.943-.573-1.763-3.573a1.515,1.515,0,0,0-2.676,0L366.9,62.339l-3.943.573a1.513,1.513,0,0,0-.827,2.545l2.853,2.781-.674,3.927a1.519,1.519,0,0,0,2.165,1.573L370,71.884l3.527,1.854a1.524,1.524,0,0,0,2.164-1.573l-.674-3.927,2.853-2.781a1.483,1.483,0,0,0,.377-1.53Zm-4.814,3.066a1.491,1.491,0,0,0-.429,1.321l.545,3.18-2.856-1.5a1.492,1.492,0,0,0-1.389,0l-2.856,1.5.546-3.18a1.492,1.492,0,0,0-.429-1.32l-2.31-2.252,3.193-.464a1.492,1.492,0,0,0,1.123-.816L370,60.568l1.428,2.893a1.492,1.492,0,0,0,1.124.817l3.193.464Z" transform="translate(-291.714 -50.246)"/>
      <path id="Path_5" data-name="Path 5" d="M37.711,73.912a1.543,1.543,0,0,0,1.469-1.746l-.674-3.927,2.853-2.781a1.522,1.522,0,0,0-.827-2.545L36.59,62.34l-1.763-3.573a1.515,1.515,0,0,0-2.676,0L30.388,62.34l-3.943.573a1.513,1.513,0,0,0-.827,2.545l2.853,2.781L27.8,72.166a1.518,1.518,0,0,0,2.165,1.573l3.527-1.854,3.527,1.854A1.491,1.491,0,0,0,37.711,73.912Zm-4.222-4.089a1.493,1.493,0,0,0-.694.171l-2.856,1.5.546-3.18a1.492,1.492,0,0,0-.429-1.32l-2.31-2.252,3.193-.464a1.492,1.492,0,0,0,1.123-.816l1.428-2.893,1.428,2.893a1.491,1.491,0,0,0,1.123.816l3.193.464-2.31,2.252a1.491,1.491,0,0,0-.429,1.321l.545,3.18-2.856-1.5a1.49,1.49,0,0,0-.694-.171Z" transform="translate(0 -50.247)"/>
    </g>
  </g>
</svg>
