<?xml version="1.0" encoding="utf-8"?>
<!-- Generator: Adobe Illustrator 23.0.1, SVG Export Plug-In . SVG Version: 6.00 Build 0)  -->
<svg version="1.1" id="Layer_1" xmlns="http://www.w3.org/2000/svg" xmlns:xlink="http://www.w3.org/1999/xlink" x="0px" y="0px"
	 viewBox="0 0 70 70" style="enable-background:new 0 0 70 70;" xml:space="preserve">
<g id="Loader">
	<path d="M59.87,57.61h-1.34c0.13-0.36,0.2-0.74,0.21-1.13V33.87c0-1.87-1.52-3.39-3.39-3.39h-1.34c0.13-0.36,0.2-0.74,0.21-1.13
		V15.78c0-1.87-1.52-3.39-3.39-3.39h-1.13V5.61c0-1.25-1.01-2.26-2.26-2.26h-6.78c-1.25,0-2.26,1.01-2.26,2.26v6.78h-1.13
		c-1.87,0-3.39,1.52-3.39,3.39v13.56c0,0.39,0.07,0.77,0.21,1.13h-1.34c-1.87,0-3.39,1.52-3.39,3.39v22.61
		c0,0.39,0.07,0.77,0.21,1.13h-0.98c-0.78-1.64-2.11-2.96-3.75-3.75V6.74c0-3.12-2.53-5.65-5.65-5.65h-9.04
		c-0.9-0.01-1.75,0.35-2.38,0.99c-0.65,0.63-1.01,1.5-1.01,2.4c0,1.87,1.52,3.39,3.39,3.39h7.91v45.99
		c-3.95,1.87-5.63,6.58-3.76,10.53c1.87,3.95,6.58,5.63,10.53,3.76c1.65-0.78,2.98-2.11,3.76-3.76h31.29c1.87,0,3.39-1.52,3.39-3.39
		C63.26,59.12,61.74,57.61,59.87,57.61z M42.91,14.65h2.26v6.08l-0.63-0.31c-0.32-0.16-0.69-0.16-1.01,0l-0.63,0.31V14.65z
		 M40.65,5.61h2.26v2.26c0,0.62,0.51,1.13,1.13,1.13s1.13-0.51,1.13-1.13V5.61h2.26v6.78h-6.78V5.61z M36.13,29.35V15.78
		c0-0.62,0.51-1.13,1.13-1.13h3.39v7.91c0,0.62,0.51,1.13,1.13,1.13c0.18,0,0.35-0.04,0.51-0.12l1.76-0.88l1.76,0.88
		c0.56,0.28,1.24,0.05,1.52-0.51c0.08-0.16,0.12-0.33,0.12-0.51v-7.91h3.39c0.62,0,1.13,0.51,1.13,1.13v13.56
		c0,0.62-0.51,1.13-1.13,1.13H37.26C36.64,30.48,36.13,29.97,36.13,29.35z M41.78,32.74h4.52v10.32l-1.63-1.09
		c-0.38-0.25-0.87-0.25-1.25,0l-1.63,1.09V32.74z M31.61,56.48V33.87c0-0.62,0.51-1.13,1.13-1.13h6.78v12.43
		c0,0.62,0.51,1.13,1.13,1.13c0.22,0,0.44-0.07,0.63-0.19l2.76-1.84l2.76,1.84c0.52,0.35,1.22,0.21,1.57-0.31
		c0.12-0.19,0.19-0.4,0.19-0.63V32.74h6.78c0.62,0,1.13,0.51,1.13,1.13v22.61c0,0.62-0.51,1.13-1.13,1.13H32.74
		C32.12,57.61,31.61,57.1,31.61,56.48z M18.04,5.61h-7.91C9.51,5.61,9,5.1,9,4.48c0-0.3,0.12-0.6,0.35-0.8
		c0.21-0.21,0.49-0.33,0.78-0.33h9.04c1.87,0,3.39,1.52,3.39,3.39v46.44c-0.75-0.12-1.51-0.12-2.26,0V7.87
		C20.31,6.62,19.29,5.61,18.04,5.61z M21.44,66.65c-3.12,0-5.65-2.53-5.65-5.65c0-3.12,2.53-5.65,5.65-5.65s5.65,2.53,5.65,5.65
		C27.08,64.12,24.56,66.65,21.44,66.65z M59.87,62.13H29.26c0.12-0.75,0.12-1.51,0-2.26h30.61c0.62,0,1.13,0.51,1.13,1.13
		C61,61.62,60.49,62.13,59.87,62.13z"/>
	<path d="M21.44,57.61c-1.87,0-3.39,1.52-3.39,3.39c0,1.87,1.52,3.39,3.39,3.39c1.87,0,3.39-1.52,3.39-3.39l0,0
		C24.83,59.12,23.31,57.61,21.44,57.61z M21.44,62.13c-0.62,0-1.13-0.51-1.13-1.13c0-0.62,0.51-1.13,1.13-1.13s1.13,0.51,1.13,1.13
		C22.57,61.62,22.06,62.13,21.44,62.13z"/>
</g>
</svg>
