<?xml version="1.0" encoding="utf-8"?>
<!-- Generator: Adobe Illustrator 23.0.1, SVG Export Plug-In . SVG Version: 6.00 Build 0)  -->
<svg version="1.1" id="Layer_1" xmlns="http://www.w3.org/2000/svg" xmlns:xlink="http://www.w3.org/1999/xlink" x="0px" y="0px"
	 viewBox="0 0 60 60" style="enable-background:new 0 0 60 60;" xml:space="preserve">
<g>
	<path d="M13.71,30.99h2.87v1.91h-2.87V30.99z"/>
	<path d="M20.4,35.77h2.87v1.91H20.4V35.77z"/>
	<path d="M13.71,35.77h4.78v1.91h-4.78V35.77z"/>
	<path d="M11.79,40.55h11.48v1.91H11.79V40.55z"/>
	<path d="M17.53,45.33h5.74v1.91h-5.74V45.33z"/>
	<path d="M6.06,45.33h9.56v1.91H6.06V45.33z"/>
	<path d="M11.79,50.11h5.74v1.91h-5.74V50.11z"/>
	<path d="M56.74,28.12c0-0.53-0.43-0.96-0.96-0.96h-5.74c-0.53,0-0.96,0.43-0.96,0.96v4.78h-4.78c-0.53,0-0.96,0.43-0.96,0.96v4.78
		h-4.78c-0.53,0-0.96,0.43-0.96,0.96v4.78h-4.78c-0.53,0-0.96,0.43-0.96,0.96v5.74h-6.86c-0.53-1.49-2.17-2.28-3.66-1.75
		c-1.49,0.53-2.28,2.17-1.75,3.66c0.53,1.49,2.17,2.28,3.66,1.75c0.82-0.29,1.46-0.93,1.75-1.75h1.12v2.87
		c0,0.53-0.43,0.96-0.96,0.96H4.14c-0.53,0-0.96-0.43-0.96-0.96v-22h4.78c1.58,0,2.87-1.29,2.87-2.87V26.2h14.35
		c0.53,0,0.96,0.43,0.96,0.96v0.96h1.91v-0.96c0-1.58-1.29-2.87-2.87-2.87H10.67c-0.76,0-1.49,0.3-2.03,0.84l-6.53,6.53
		c-0.54,0.54-0.84,1.27-0.84,2.03v22.16c0,1.58,1.29,2.87,2.87,2.87h21.04c1.58,0,2.87-1.29,2.87-2.87v-2.87h30.6v-1.91h-1.91V28.12
		z M8.93,27.56v3.43c0,0.53-0.43,0.96-0.96,0.96H4.54L8.93,27.56z M22.31,52.98c-0.53,0-0.96-0.43-0.96-0.96s0.43-0.96,0.96-0.96
		c0.53,0,0.96,0.43,0.96,0.96C23.27,52.55,22.84,52.98,22.31,52.98z M33.79,46.29h3.83v4.78h-3.83V46.29z M39.53,40.55h3.83v10.52
		h-3.83V40.55z M45.27,34.81h3.83v16.26h-3.83V34.81z M51,51.07v-22h3.83v22H51z"/>
	<path d="M4.14,25.25c1.58,0,2.87-1.28,2.87-2.87c0-0.43-0.1-0.85-0.28-1.24l2.87-2.87c1.43,0.68,3.14,0.08,3.82-1.35
		c0.04-0.09,0.08-0.19,0.12-0.28h4.15c0.53,1.49,2.17,2.28,3.66,1.75c0.98-0.35,1.7-1.2,1.87-2.23l5.4-4.63
		c1.4,0.74,3.14,0.2,3.87-1.21s0.2-3.14-1.21-3.87c-1.4-0.74-3.14-0.2-3.87,1.21c-0.4,0.77-0.44,1.67-0.09,2.47l-4.58,3.92
		c-0.9-1.3-2.69-1.62-3.99-0.72c-0.49,0.34-0.87,0.83-1.07,1.4h-4.15c-0.53-1.49-2.17-2.28-3.66-1.75s-2.28,2.17-1.75,3.66
		c0.03,0.1,0.07,0.19,0.12,0.28l-2.87,2.87c-1.43-0.68-3.14-0.08-3.83,1.35s-0.08,3.14,1.35,3.83C3.29,25.15,3.72,25.25,4.14,25.25z
		 M29.97,8.03c0.53,0,0.96,0.43,0.96,0.96c0,0.53-0.43,0.96-0.96,0.96s-0.96-0.43-0.96-0.96C29.01,8.46,29.44,8.03,29.97,8.03z
		 M20.4,14.73c0.53,0,0.96,0.43,0.96,0.96c0,0.53-0.43,0.96-0.96,0.96c-0.53,0-0.96-0.43-0.96-0.96
		C19.45,15.16,19.87,14.73,20.4,14.73z M10.84,14.73c0.53,0,0.96,0.43,0.96,0.96c0,0.53-0.43,0.96-0.96,0.96s-0.96-0.43-0.96-0.96
		C9.88,15.16,10.31,14.73,10.84,14.73z M4.14,21.42c0.53,0,0.96,0.43,0.96,0.96c0,0.53-0.43,0.96-0.96,0.96s-0.96-0.43-0.96-0.96
		C3.19,21.85,3.62,21.42,4.14,21.42z"/>
	<path d="M38.76,23.71l-6.32,6.32h-8.38c-0.53-1.49-2.17-2.28-3.66-1.75c-1.49,0.53-2.28,2.17-1.75,3.66
		c0.53,1.49,2.17,2.28,3.66,1.75c0.82-0.29,1.46-0.93,1.75-1.75h2.08v17.21h1.91V31.94h4.78c0.25,0,0.5-0.1,0.68-0.28l6.9-6.9
		c6.08,3.23,13.63,0.91,16.86-5.17c3.23-6.08,0.91-13.63-5.17-16.86S38.47,1.82,35.25,7.9C32.37,13.32,33.86,20.02,38.76,23.71
		L38.76,23.71z M21.36,31.94c-0.53,0-0.96-0.43-0.96-0.96c0-0.53,0.43-0.96,0.96-0.96c0.53,0,0.96,0.43,0.96,0.96
		C22.31,31.51,21.89,31.94,21.36,31.94z M53.89,20.96l-5.54-6.23h8.35C56.49,17.06,55.5,19.26,53.89,20.96z M56.7,12.82h-9.52V3.3
		C52.23,3.76,56.23,7.76,56.7,12.82z M45.27,3.3v10.48c0,0.23,0.09,0.46,0.24,0.63l0,0l6.96,7.83c-4.67,3.45-11.26,2.46-14.71-2.22
		S35.3,8.76,39.98,5.31C41.52,4.17,43.35,3.47,45.27,3.3z"/>
</g>
</svg>
