<?xml version="1.0" encoding="utf-8"?>
<!-- Generator: Adobe Illustrator 23.0.1, SVG Export Plug-In . SVG Version: 6.00 Build 0)  -->
<svg version="1.1" id="Layer_1" xmlns="http://www.w3.org/2000/svg" xmlns:xlink="http://www.w3.org/1999/xlink" x="0px" y="0px"
	 viewBox="0 0 70 70" style="enable-background:new 0 0 70 70;" xml:space="preserve">
<path d="M35,66.67c-0.99,0-1.94-0.36-2.69-1.01c-2.81-2.45-5.51-4.76-7.9-6.8l-0.01-0.01c-7-5.97-13.05-11.12-17.25-16.19
	c-4.7-5.67-6.89-11.05-6.89-16.93c0-5.71,1.96-10.98,5.51-14.83c3.6-3.9,8.53-6.05,13.9-6.05c4.01,0,7.68,1.27,10.92,3.77
	c1.63,1.26,3.11,2.81,4.41,4.61c1.3-1.8,2.78-3.35,4.41-4.61c3.23-2.5,6.91-3.77,10.92-3.77c5.37,0,10.3,2.15,13.9,6.05
	c3.55,3.86,5.51,9.12,5.51,14.83c0,5.88-2.19,11.26-6.89,16.93C58.65,47.73,52.6,52.89,45.6,58.85c-2.39,2.04-5.1,4.35-7.92,6.81
	C36.94,66.31,35.99,66.67,35,66.67z M19.67,8.92c-4.22,0-8.09,1.68-10.91,4.74c-2.86,3.1-4.43,7.39-4.43,12.07
	c0,4.94,1.84,9.36,5.96,14.33c3.98,4.8,9.9,9.85,16.76,15.69l0.01,0.01c2.4,2.04,5.11,4.36,7.94,6.83c2.84-2.48,5.57-4.8,7.97-6.84
	c6.86-5.84,12.78-10.89,16.76-15.69c4.12-4.97,5.95-9.39,5.95-14.33c0-4.68-1.58-8.97-4.43-12.07c-2.82-3.06-6.69-4.74-10.91-4.74
	c-3.09,0-5.92,0.98-8.43,2.92c-2.23,1.73-3.79,3.91-4.7,5.43c-0.47,0.79-1.29,1.25-2.21,1.25s-1.74-0.47-2.21-1.25
	c-0.91-1.53-2.47-3.71-4.7-5.43C25.59,9.9,22.76,8.92,19.67,8.92z"/>
</svg>
