<svg id="Layer_1" data-name="Layer 1" xmlns="http://www.w3.org/2000/svg" width="70" height="70" viewBox="0 0 70 70">
  <defs>
    <style>
      .cls-1 {
        fill: #96b2cb;
      }
    </style>
  </defs>
  <title>security</title>
  <g>
    <path class="cls-1" d="M68.8,30.7,27,6.5a5.2,5.2,0,0,0-7.1,1.9l-4.8,8.4-3.2,5.5a5.3,5.3,0,0,0,1.9,7.2l14.3,8.2-2.2,3.8A3.2,3.2,0,0,1,23,43.2H14.6V36.8a.9.9,0,0,0-.9-.9H8.6V34.7a4.2,4.2,0,0,0-4.2-4.2H1.6a.9.9,0,0,0-.9.9h0V63.3a.9.9,0,0,0,.9.9H4.4A4.2,4.2,0,0,0,8.6,60V57.1h5.1a1,1,0,0,0,.9-1V51.5H23a11.8,11.8,0,0,0,10.1-5.8l2.2-3.8,7.9,4.5a4.8,4.8,0,0,0,2.6.7,3,3,0,0,0,1.3-.2,4.6,4.6,0,0,0,2.3-1.2,9.3,9.3,0,0,0,3.3.7,7.6,7.6,0,0,0,2.1-.3A7.3,7.3,0,0,0,59,43.2l1.9,1.1a.9.9,0,0,0,1.3-.3h0l7-12.1a.9.9,0,0,0-.4-1.2ZM6.7,60a2.3,2.3,0,0,1-2.3,2.3H2.6V32.4H4.4a2.3,2.3,0,0,1,2.3,2.3Zm6-4.8H8.6V37.7h4.1ZM31.4,44.8A9.6,9.6,0,0,1,23,49.6H14.6V45.1H23a5.1,5.1,0,0,0,4.5-2.6l2.2-3.8,4,2.3Zm12.7,0-29.4-17a3.3,3.3,0,0,1-1.2-4.5l2.7-4.8,27,15.6,8.2,4.7-2.7,4.8h0c-.1.1-.2.2-.2.3h0A3.4,3.4,0,0,1,44.1,44.8Zm10.2-.5a5.8,5.8,0,0,1-3.7-.2l2.5-4.3,4.3,2.5a5.8,5.8,0,0,1-3.1,2Zm6.8-2.1L55,38.7l-1.8-1-20.7-12L17.2,16.9l4.3-7.5a3.4,3.4,0,0,1,4.6-1.3l41,23.7Z"/>
    <path class="cls-1" d="M57.1,37.1a2.7,2.7,0,0,0,1.8.5h.9a3.7,3.7,0,0,0,2.6-4.4,3.8,3.8,0,0,0-4.5-2.6,3.6,3.6,0,0,0-2.5,4.4A3,3,0,0,0,57.1,37.1Zm.3-4a2.7,2.7,0,0,1,1-.8h.5A1.8,1.8,0,0,1,60.6,34a1.8,1.8,0,0,1-1.7,1.8A1.8,1.8,0,0,1,57.1,34a1.1,1.1,0,0,1,.3-.8Z"/>
    <path class="cls-1" d="M25.1,27.6l-7.7-4.4a1,1,0,0,0-1.3.3.9.9,0,0,0,.3,1.3h.1l7.6,4.5a1,1,0,0,0,1-1.7Z"/>
  </g>
</svg>
