<svg id="Layer_1" data-name="Layer 1" xmlns="http://www.w3.org/2000/svg" width="70" height="70" viewBox="0 0 70 70">
  <defs>
    <style>
      .cls-1 {
        fill: #96b2cb;
      }
    </style>
  </defs>
  <title>setting</title>
  <g>
    <path class="cls-1" d="M35,21.3A13.7,13.7,0,1,0,48.7,35,13.8,13.8,0,0,0,35,21.3Zm7,22.2a11.1,11.1,0,0,1-14,0V41.4a2.4,2.4,0,0,1,1.9-2.3l1.4-.2a5.5,5.5,0,0,0,3.6,1.4h.2a5.5,5.5,0,0,0,3.6-1.4l1.4.2A2.4,2.4,0,0,1,42,41.4v2.1Zm-9.6-8.4V32.3a2.5,2.5,0,0,1,2.5-2.5h.2a2.5,2.5,0,0,1,2.5,2.5v2.8a2.5,2.5,0,0,1-2.5,2.5h-.2A2.5,2.5,0,0,1,32.4,35.1Zm12.1,5.3a4.8,4.8,0,0,0-3.9-3.9h-.5a5.1,5.1,0,0,0,.2-1.3V32.3a5.2,5.2,0,0,0-5.2-5.2h-.2a5.2,5.2,0,0,0-5.2,5.2v2.8a5.1,5.1,0,0,0,.2,1.3h-.5a4.8,4.8,0,0,0-3.9,3.9A10,10,0,0,1,24,35a11,11,0,0,1,22,0A10,10,0,0,1,44.5,40.4Z"/>
    <path class="cls-1" d="M62.6,33.7H57.8V31.2a1.4,1.4,0,0,0-1.4-1.4H53.3a16.2,16.2,0,0,0-1.7-4.1l2.2-2.2a1.4,1.4,0,0,0,0-1.9l-5.4-5.4a1.4,1.4,0,0,0-1.9,0l-2.2,2.2a16.2,16.2,0,0,0-4.1-1.7V13.6a1.4,1.4,0,0,0-1.4-1.4H31.2a1.4,1.4,0,0,0-1.4,1.4v3.1a20.9,20.9,0,0,0-4.1,1.7l-2.2-2.2a1.4,1.4,0,0,0-1.9,0l-5.4,5.4a1.4,1.4,0,0,0,0,1.9l2.2,2.2a20.9,20.9,0,0,0-1.7,4.1H13.6a1.4,1.4,0,0,0-1.4,1.4v2.5H7.4a1.3,1.3,0,0,0,0,2.6h4.8v2.5a1.4,1.4,0,0,0,1.4,1.4h3.1a20.9,20.9,0,0,0,1.7,4.1l-2.2,2.2a1.4,1.4,0,0,0,0,1.9l5.4,5.4a1.4,1.4,0,0,0,1.9,0l2.2-2.2a20.9,20.9,0,0,0,4.1,1.7v3.1a1.4,1.4,0,0,0,1.4,1.4h7.6a1.4,1.4,0,0,0,1.4-1.4V53.3a20.9,20.9,0,0,0,4.1-1.7l2.2,2.2a1.4,1.4,0,0,0,1.9,0l5.4-5.4a1.4,1.4,0,0,0,0-1.9l-2.2-2.2a20.9,20.9,0,0,0,1.7-4.1h3.1a1.4,1.4,0,0,0,1.4-1.4V36.3h4.8a1.3,1.3,0,0,0,0-2.6Zm-7.5,3.8H52.3a1.3,1.3,0,0,0-1.3,1,16.5,16.5,0,0,1-2.2,5.3,1.4,1.4,0,0,0,.2,1.7l2,1.9L47.4,51l-1.9-2a1.4,1.4,0,0,0-1.7-.2A16.5,16.5,0,0,1,38.5,51a1.2,1.2,0,0,0-1,1.3v2.8h-5V52.3a1.2,1.2,0,0,0-1-1.3,19.1,19.1,0,0,1-5.3-2.2,1.1,1.1,0,0,0-1.6.2l-2,2L19,47.4l2-2a1.1,1.1,0,0,0,.2-1.6A19.1,19.1,0,0,1,19,38.5a1.2,1.2,0,0,0-1.3-1H14.9v-5h2.8a1.2,1.2,0,0,0,1.3-1,16.5,16.5,0,0,1,2.2-5.3,1.4,1.4,0,0,0-.2-1.7l-2-1.9L22.6,19l1.9,2a1.4,1.4,0,0,0,1.7.2A16.5,16.5,0,0,1,31.5,19a1.3,1.3,0,0,0,1-1.3V14.9h5v2.8a1.3,1.3,0,0,0,1,1.3,16.5,16.5,0,0,1,5.3,2.2,1.4,1.4,0,0,0,1.7-.2l1.9-2L51,22.6l-2,1.9a1.4,1.4,0,0,0-.2,1.7A16.5,16.5,0,0,1,51,31.5a1.3,1.3,0,0,0,1.3,1h2.8Z"/>
    <path class="cls-1" d="M63.6,58a5.7,5.7,0,0,0-5.4,4.3H51.5V56.4a1.3,1.3,0,0,0-2.6,0v7.2A1.3,1.3,0,0,0,50.2,65h8a5.7,5.7,0,0,0,5.4,4.3,5.8,5.8,0,0,0,5.7-5.7A5.7,5.7,0,0,0,63.6,58Zm0,8.6a3,3,0,1,1,3-3A2.9,2.9,0,0,1,63.6,66.6Z"/>
    <path class="cls-1" d="M19.8,5h-8A5.7,5.7,0,0,0,6.4.7,5.8,5.8,0,0,0,.7,6.4,5.7,5.7,0,0,0,6.4,12a5.7,5.7,0,0,0,5.4-4.3h6.7v5.9a1.3,1.3,0,0,0,2.6,0V6.4A1.3,1.3,0,0,0,19.8,5ZM6.4,9.3A3,3,0,1,1,9.3,6.4,2.9,2.9,0,0,1,6.4,9.3Z"/>
    <path class="cls-1" d="M19.8,55.1a1.3,1.3,0,0,0-1.3,1.3v5.9H11.8A5.7,5.7,0,0,0,6.4,58,5.7,5.7,0,0,0,.7,63.6a5.8,5.8,0,0,0,5.7,5.7A5.7,5.7,0,0,0,11.8,65h8a1.3,1.3,0,0,0,1.3-1.4V56.4A1.3,1.3,0,0,0,19.8,55.1ZM6.4,66.6a3,3,0,1,1,0-5.9,3,3,0,0,1,0,5.9Z"/>
    <path class="cls-1" d="M63.6.7A5.7,5.7,0,0,0,58.2,5h-8a1.3,1.3,0,0,0-1.3,1.4v7.2a1.3,1.3,0,1,0,2.6,0V7.7h6.7A5.6,5.6,0,0,0,69.3,6.4,5.8,5.8,0,0,0,63.6.7Zm0,8.6a2.9,2.9,0,0,1-2.9-2.9,3,3,0,1,1,2.9,2.9Z"/>
    <path class="cls-1" d="M68.9,34.1a1.3,1.3,0,0,0-1-.4,1.1,1.1,0,0,0-.9.4,1.2,1.2,0,0,0,0,1.8,1.1,1.1,0,0,0,.9.4,1.3,1.3,0,0,0,1-.4,1.2,1.2,0,0,0,0-1.8Z"/>
    <path class="cls-1" d="M3,34.1a1.1,1.1,0,0,0-.9-.4,1.3,1.3,0,0,0-1,.4,1.2,1.2,0,0,0,0,1.8,1.3,1.3,0,0,0,1,.4,1.1,1.1,0,0,0,.9-.4,1.2,1.2,0,0,0,0-1.8Z"/>
    <path class="cls-1" d="M28.6,5a1.4,1.4,0,0,0-1.4,1.4,1.3,1.3,0,0,0,1.4,1.3h0a1.3,1.3,0,0,0,1.3-1.3A1.3,1.3,0,0,0,28.6,5Z"/>
    <path class="cls-1" d="M35,5a1.3,1.3,0,0,0-1.3,1.4A1.3,1.3,0,0,0,35,7.7h0a1.3,1.3,0,0,0,1.3-1.3A1.3,1.3,0,0,0,35,5Z"/>
    <path class="cls-1" d="M41.4,5a1.3,1.3,0,0,0-1.3,1.4,1.3,1.3,0,0,0,1.3,1.3h0a1.3,1.3,0,0,0,1.4-1.3A1.4,1.4,0,0,0,41.4,5Z"/>
    <path class="cls-1" d="M28.6,62.3a1.3,1.3,0,0,0-1.4,1.3A1.4,1.4,0,0,0,28.6,65h0a1.3,1.3,0,0,0,1.3-1.4A1.3,1.3,0,0,0,28.6,62.3Z"/>
    <path class="cls-1" d="M35,62.3a1.3,1.3,0,0,0-1.3,1.3A1.3,1.3,0,0,0,35,65h0a1.3,1.3,0,0,0,1.3-1.4A1.3,1.3,0,0,0,35,62.3Z"/>
    <path class="cls-1" d="M41.4,62.3a1.3,1.3,0,0,0-1.3,1.3A1.3,1.3,0,0,0,41.4,65h0a1.4,1.4,0,0,0,1.4-1.4A1.3,1.3,0,0,0,41.4,62.3Z"/>
  </g>
</svg>
