<svg id="Layer_1" data-name="Layer 1" xmlns="http://www.w3.org/2000/svg" width="70" height="70" viewBox="0 0 70 70">
  <defs>
    <style>
      .cls-1 {
        fill: #96b2cb;
      }
    </style>
  </defs>
  <title>special_tradesman</title>
  <path class="cls-1" d="M11.5,69.7h47a2.7,2.7,0,0,0,2.8-2.8V63.4a1,1,0,0,0-1-1.1,1.1,1.1,0,0,0-1,1.1v3.5a.8.8,0,0,1-.8.8h-7V58.4A3.6,3.6,0,0,0,48.8,55V46.1l5.8,2.2a8.3,8.3,0,0,1,4.7,7.4v2.9a1,1,0,0,0,1,1,.9.9,0,0,0,1-1V55.7a10.1,10.1,0,0,0-6-9.3h0L41.5,41.1V38.4a11,11,0,0,0,4.4-7.5,4.7,4.7,0,0,0,3-1.2,5,5,0,0,0,1.6-3.6,5.3,5.3,0,0,0-.8-2.7,5.5,5.5,0,0,0,0-3.6V17.1a13.5,13.5,0,0,0-11-13.2h-.1V3.5A3.2,3.2,0,0,0,35.4.3h-.8a3.2,3.2,0,0,0-3.2,3.2v.4h-.1a13.5,13.5,0,0,0-11,13.2v2.7a5.5,5.5,0,0,0,0,3.6,5.6,5.6,0,0,0-.8,2.7,5,5,0,0,0,1.6,3.6,4.7,4.7,0,0,0,3,1.2,11.3,11.3,0,0,0,3,6.3l1.4,1.2v2.7L14.7,46.4h0a10.2,10.2,0,0,0-6,9.3V66.9a2.7,2.7,0,0,0,2.8,2.8ZM44.1,44.3l2.7,1V57.6H44.1ZM42,43.5V46l-3.2,4.4s-.2.1-.3,0l-2.3-2.3,4.9-5Zm-11.5-4a11.8,11.8,0,0,0,4.6.9,10.8,10.8,0,0,0,4.4-.9v1.6a1.3,1.3,0,0,0,.1.6L35,46.4l-4.6-4.7a1.3,1.3,0,0,0,.1-.6Zm18-13.4a2.5,2.5,0,0,1-.9,2,3.8,3.8,0,0,1-1.7.8V26a3.4,3.4,0,0,0,2.4-.8,2.9,2.9,0,0,1,.2.9Zm-.9-9v1a16.1,16.1,0,0,0-4.5-2,22.1,22.1,0,0,0-2.2-9.4A11.4,11.4,0,0,1,47.6,17.1ZM33.5,3.5a1.1,1.1,0,0,1,1.1-1.2h.8a1.1,1.1,0,0,1,1.1,1.2h-3ZM32,5.8h6c1.7,2.1,2.8,5.7,3.1,9.7a36,36,0,0,0-6.1-.6,36,36,0,0,0-6.1.6c.3-4,1.4-7.6,3.1-9.7ZM22.4,17.1A11.4,11.4,0,0,1,29.1,6.7a22.1,22.1,0,0,0-2.2,9.4,16.1,16.1,0,0,0-4.5,2v-1Zm1.7,11.8a3.8,3.8,0,0,1-1.7-.8,2.5,2.5,0,0,1-.9-2,1.9,1.9,0,0,1,.2-.8,4,4,0,0,0,2.4.7Zm-1.3-5.4a2.9,2.9,0,0,1-.6-2.9c.9-.7,5.1-3.7,12.8-3.7s11.9,3,12.8,3.7a2.9,2.9,0,0,1-.6,2.9c-.7.7-2,.6-3.4-.2A20.4,20.4,0,0,0,35,20.8h0a20.4,20.4,0,0,0-8.8,2.5c-1.4.8-2.7.9-3.4.2Zm3.3,6.4h0V25.6l1.1-.5A18.5,18.5,0,0,1,35,22.8a18.5,18.5,0,0,1,7.8,2.3l1.1.5v4.3h0a8.8,8.8,0,0,1-4,7.1h0a9,9,0,0,1-13.8-7.1Zm1.8,13.6,1-.4h0l4.9,5-2.3,2.3c-.1.1-.3,0-.3,0l-3.3-4.6Zm-4.8,1.8,2.7-1V57.6H23.1Zm0,14.3h2.8a2,2,0,0,0,2-2v-.7h4.7a1,1,0,0,0,1-1,1,1,0,0,0-1-1.1H27.9V49.3l1.6,2.3a2.3,2.3,0,0,0,3.4.2L35,49.7l2.1,2.1a2.3,2.3,0,0,0,3.4-.2L42,49.4v5.4H37.4a1,1,0,0,0-1,1.1,1,1,0,0,0,1,1H42v.7a2,2,0,0,0,2,2h2.8a2,2,0,0,0,2-2v-.4a1.4,1.4,0,0,1,.6,1.2v9.3H20.6V58.4a1.6,1.6,0,0,1,.5-1.1v.3a2,2,0,0,0,2,2ZM10.7,55.7a8.2,8.2,0,0,1,4.7-7.4l5.7-2.2V55a3.5,3.5,0,0,0-2.6,3.4v9.3h-7a.8.8,0,0,1-.8-.8Z"/>
</svg>
