<svg id="Layer_1" data-name="Layer 1" xmlns="http://www.w3.org/2000/svg" width="70" height="70" viewBox="0 0 70 70">
  <defs>
    <style>
      .cls-1 {
        fill: #96b2cb;
      }
    </style>
  </defs>
  <title>stoneworker</title>
  <g>
    <path class="cls-1" d="M65.8,27.7c-.5-2.7-3.7-4.6-10-5.7-2-.3-4.3-.6-6.9-.8a13.6,13.6,0,0,0,5.8-3.8,6.3,6.3,0,0,0,1.4-5.7,12.1,12.1,0,0,0-7.2-8.8C45.4,1.3,40.8.5,34.7.5,23.1.5,13.2,8.6,13.2,15.2c0,2.7,1.5,4.7,4.6,6l-4.1.6a17.1,17.1,0,0,0-6.9,2.9A7.7,7.7,0,0,0,4,30.8c0,3.6,3,6.3,8.8,7.9A5.3,5.3,0,0,0,10.9,40a4,4,0,0,0-.7,3.5,13.9,13.9,0,0,0,7.1,8.8l1.5.8-3.8.8a16.8,16.8,0,0,0-4,1.5,6.4,6.4,0,0,0-2.9,2.4,5.8,5.8,0,0,0-1.2,3.6h0a6.4,6.4,0,0,0,2,4.8A5.7,5.7,0,0,0,11,67.7a14.5,14.5,0,0,0,2.5.9h.4a1.4,1.4,0,0,0,1.3-1,1.3,1.3,0,0,0-1-1.6,8.8,8.8,0,0,1-3.5-1.7,3.6,3.6,0,0,1-1.1-2.9h0a3.4,3.4,0,0,1,.6-2,9.1,9.1,0,0,1,4.5-2.7,69.9,69.9,0,0,1,12.4-1.8A112.5,112.5,0,0,0,41.7,54a23,23,0,0,1,3.7-.2h0a23.8,23.8,0,0,1,10.9,2.3,9,9,0,0,1,3,2.2,3.3,3.3,0,0,1,.9,2.2,2.9,2.9,0,0,1-.2.9,3.8,3.8,0,0,1-1,1.3,13,13,0,0,1-4.7,2.1A56.4,56.4,0,0,1,43,66.4c-3.4.3-7.2.4-12,.4H25.9a1.3,1.3,0,0,0-1.3,1.4,1.3,1.3,0,0,0,1.3,1.3H31a142.1,142.1,0,0,0,18.8-1,37.1,37.1,0,0,0,8-2,11.1,11.1,0,0,0,2.9-1.7,6.7,6.7,0,0,0,1.9-2.6,4.7,4.7,0,0,0,.3-1.7,6.1,6.1,0,0,0-1.6-3.9,8.4,8.4,0,0,0-2.6-2.3A18,18,0,0,0,55,52.6l-3.5-1,1.3-.6c2.4-1.2,3.6-2.8,3.6-4.7s-2-5.2-5.9-6.5l2-.4c5.8-1.1,9.7-2.8,11.7-5.3a7.3,7.3,0,0,0,1.6-6.4ZM15.9,15.2c0-2.3,2.1-5.3,5.3-7.7A23.1,23.1,0,0,1,34.7,3.2c5.7,0,9.9.7,13.1,2.1a9.8,9.8,0,0,1,5.7,6.9,3.8,3.8,0,0,1-.9,3.5c-2.4,3-9.5,5-17.9,5C22,20.7,15.9,18.9,15.9,15.2ZM53.7,46.3c0,1.7-3.3,3.3-8.9,4.4l-3.6.6c-2.8.3-14.4,1-14.6,1-3.6,0-12.1-2.4-13.8-9.4-.1-.8.1-1,.2-1.1s1.5-1.1,4.8-1.3a49.7,49.7,0,0,1,6.7,0c2.6.2,9.8.3,10.4.3,12.7,0,18.8,1.8,18.8,5.5Zm8.5-13.9C60,35,53.5,38.1,34.9,38.1l-10.2-.3c-14.6-1-18-4.3-18-7s.9-5,7.6-6.3S27,23.4,34.9,23.4c25.4,0,28.1,3.7,28.3,4.8a4.8,4.8,0,0,1-1,4.2Z"/>
    <circle class="cls-1" cx="19.9" cy="68.1" r="1.3"/>
  </g>
</svg>
