<svg id="Layer_1" data-name="Layer 1" xmlns="http://www.w3.org/2000/svg" width="70" height="70" viewBox="0 0 70 70">
  <defs>
    <style>
      .cls-1 {
        fill: #96b2cb;
      }
    </style>
  </defs>
  <title>tankcleaner</title>
  <path class="cls-1" d="M68.1,44.7H51.4V42.5a18.7,18.7,0,0,0,0-37.3V3.9a3,3,0,0,0-3-3H42.3a3.1,3.1,0,0,0-3,3V5.1H19.6A18.6,18.6,0,0,0,4.9,12.3a1,1,0,1,0,1.5,1.3A16.7,16.7,0,0,1,19.6,7.1h2.6V40.5H19.6A16.7,16.7,0,0,1,2.9,23.8a15.6,15.6,0,0,1,1.6-7A1.1,1.1,0,0,0,4,15.4a1,1,0,0,0-1.3.5A18.2,18.2,0,0,0,.9,23.8,18.8,18.8,0,0,0,18.6,42.5v2.2H1.9a1.1,1.1,0,0,0-1,1.1v6a1.1,1.1,0,0,0,1,1H5.5V68.1a1,1,0,0,0,1,1h6.2a1,1,0,0,0,1-1V52.8h6.8a1.1,1.1,0,0,0,1-1,1,1,0,0,0-1-1H2.9v-4H67.1v4H24.5a.9.9,0,0,0-1,1,1,1,0,0,0,1,1h6.6V68.1a1,1,0,0,0,1,1h6.2a1,1,0,0,0,1-1V52.8h17V68.1a1,1,0,0,0,1,1h6.2a1,1,0,0,0,1-1V52.8h3.6a1.1,1.1,0,0,0,1-1v-6a1.1,1.1,0,0,0-1-1.1ZM11.7,67.1H7.5V52.8h4.2ZM41.3,3.9a1.1,1.1,0,0,1,1-1h6.1a1,1,0,0,1,1,1V5.1H41.3V3.9ZM31.4,26.5H24.2v-5h7.2Zm0-7H24.2V14.6h7.2Zm-7.2,9h7.2v4.9H24.2ZM31.4,7.1v5.5H24.2V7.1ZM24.2,35.4h7.2v5.1H24.2Zm-3.6,7.1H40.3a1,1,0,0,0,1-1,.9.9,0,0,0-1-1H33.4V7.1h17a16.7,16.7,0,0,1,0,33.4H44.3a1,1,0,0,0-1,1,1.1,1.1,0,0,0,1,1h5.1v2.3H20.6ZM37.3,67.1H33.1V52.8h4.2Zm25.2,0H58.3V52.8h4.2Z"/>
</svg>
