<svg id="Layer_1" data-name="Layer 1" xmlns="http://www.w3.org/2000/svg" width="70" height="70" viewBox="0 0 70 70">
  <defs>
    <style>
      .cls-1 {
        fill: #96b2cb;
      }
    </style>
  </defs>
  <title>tiles</title>
  <g>
    <path class="cls-1" d="M18.5,25.5a7,7,0,0,0,0-14,7,7,0,0,0,0,14Zm0-12a5,5,0,0,1,5,5,5.1,5.1,0,0,1-5,5,5,5,0,0,1-5-5A5,5,0,0,1,18.5,13.5Z"/>
    <path class="cls-1" d="M18.5,44.5a7,7,0,1,0,7,7A7,7,0,0,0,18.5,44.5Zm0,12a5,5,0,0,1-5-5,5,5,0,0,1,5-5,5.1,5.1,0,0,1,5,5A5,5,0,0,1,18.5,56.5Z"/>
    <path class="cls-1" d="M66.1.9H37a2.8,2.8,0,0,0-2,.8,2.8,2.8,0,0,0-2-.8H3.9a3.1,3.1,0,0,0-3,3v3h2v-3a1.1,1.1,0,0,1,1-1h8.5V4.5L4.5,12.4H2.9V8.9H.9V33a2.8,2.8,0,0,0,.8,2,2.8,2.8,0,0,0-.8,2V66.1a3.1,3.1,0,0,0,3,3H33a3,3,0,0,0,3-3V37a2.8,2.8,0,0,0-.3-1.3A2.8,2.8,0,0,0,37,36H66.1a3,3,0,0,0,3-3V3.9A3.1,3.1,0,0,0,66.1.9Zm1,3v8.5H65.5L57.6,4.5V2.9h8.5A1.1,1.1,0,0,1,67.1,3.9ZM55.6,34H47.5V31.6l-9.1-9.1H36V14.4h2.4l9.1-9V2.9h8.1V5.4l9,9h2.5v8.1H64.6l-9,9.1ZM34,37v8.5H32.4l-7.9-7.9V36H33a.9.9,0,0,1,1,1ZM22.5,67.1H14.4V64.6l-9-9H2.9V47.5H5.4l9-9.1V36h8.1v2.4l9.1,9.1H34v8.1H31.6l-9.1,9ZM2.9,33V24.5H4.5l7.9,7.9V34H3.9A1,1,0,0,1,2.9,33Zm9.5,3v1.6L4.5,45.5H2.9V37a1,1,0,0,1,1-1ZM33,34H24.5V32.4l7.9-7.9H34V33A.9.9,0,0,1,33,34ZM37,2.9h8.5V4.5l-7.9,7.9H36V3.9A1,1,0,0,1,37,2.9Zm-3,1v8.5H32.4L24.5,4.5V2.9H33A1,1,0,0,1,34,3.9ZM5.4,14.4l9-9V2.9h8.1V5.4l9.1,9H34v8.1H31.6l-9.1,9.1V34H14.4V31.6l-9-9.1H2.9V14.4ZM2.9,66.1V57.6H4.5l7.9,7.9v1.6H3.9A1.1,1.1,0,0,1,2.9,66.1Zm30.1,1H24.5V65.5l7.9-7.9H34v8.5A1,1,0,0,1,33,67.1ZM36,33V24.5h1.6l7.9,7.9V34H37A.9.9,0,0,1,36,33Zm30.1,1H57.6V32.4l7.9-7.9h1.6V33A1,1,0,0,1,66.1,34Z"/>
    <path class="cls-1" d="M51.5,11.5a7,7,0,1,0,7,7A7,7,0,0,0,51.5,11.5Zm0,12a5.1,5.1,0,0,1-5-5,5,5,0,0,1,5-5,5,5,0,0,1,5,5A5,5,0,0,1,51.5,23.5Z"/>
    <path class="cls-1" d="M30,4.9h2v2H30Z"/>
    <path class="cls-1" d="M30,38h2v2H30Z"/>
    <path class="cls-1" d="M63.1,4.9h2v2h-2Z"/>
    <path class="cls-1" d="M43.8,50.8a3,3,0,0,0-4.3,4.3L48,63.5a3,3,0,0,0,2.1.9,3,3,0,0,0,2.1-5.1Zm7,11.3a1,1,0,0,1-1.4,0l-8.5-8.5a1.2,1.2,0,0,1,0-1.4,1.1,1.1,0,0,1,1.5,0l8.4,8.5a1,1,0,0,1,0,1.4Z"/>
    <path class="cls-1" d="M55.1,39.5a3.2,3.2,0,0,0-4.3,0,3.6,3.6,0,0,0-.9,2.2,3.3,3.3,0,0,0,.9,2.1l8.5,8.4a2.9,2.9,0,0,0,2.1.9,3.1,3.1,0,0,0,3-3,2.9,2.9,0,0,0-.9-2.1Zm7,11.3a1,1,0,0,1-1.4,0l-8.5-8.4a1.1,1.1,0,0,1-.3-.7,1.1,1.1,0,0,1,.3-.8l.7-.2.7.2,8.5,8.5a1,1,0,0,1,0,1.4Z"/>
    <path class="cls-1" d="M55.8,51.5l-1.5,1.4,5,5a1,1,0,0,1,0,1.4,1,1,0,0,1-1.4,0L43.8,45.2a1.1,1.1,0,0,1-.3-.7,1,1,0,0,1,1-1,1.1,1.1,0,0,1,.7.3l4.9,4.9,1.4-1.4-4.9-4.9a2.9,2.9,0,0,0-2.1-.9,2.7,2.7,0,0,0-2.1.9,2.9,2.9,0,0,0,0,4.2L56.5,60.7a2.7,2.7,0,0,0,2.1.9,3,3,0,0,0,2.1-.9,2.9,2.9,0,0,0,0-4.2Z"/>
    <path class="cls-1" d="M51.5,50.1l1.4-1.4,1.4,1.4-1.4,1.4Z"/>
  </g>
</svg>
