<?xml version="1.0" encoding="utf-8"?>
<!-- Generator: Adobe Illustrator 23.0.1, SVG Export Plug-In . SVG Version: 6.00 Build 0)  -->
<svg version="1.1" id="Layer_1" xmlns="http://www.w3.org/2000/svg" xmlns:xlink="http://www.w3.org/1999/xlink" x="0px" y="0px"
	 viewBox="0 0 500 500" style="enable-background:new 0 0 500 500;" xml:space="preserve">
<g>
	<path d="M186.91,379.02c-20.92,0-37.95,17.02-37.95,37.95s17.02,37.95,37.95,37.95s37.95-17.02,37.95-37.95
		S207.84,379.02,186.91,379.02z M186.91,435.94c-10.46,0-18.97-8.51-18.97-18.97s8.51-18.97,18.97-18.97s18.97,8.51,18.97,18.97
		S197.38,435.94,186.91,435.94z"/>
	<path d="M283.2,116.24c5.23,0,9.49-4.26,9.49-9.49c0-5.23-4.26-9.49-9.49-9.49c-5.23,0-9.49,4.26-9.49,9.49
		C273.72,111.98,277.98,116.24,283.2,116.24z"/>
	<path d="M463.45,54.58h-28.46c0-26.15-21.28-47.43-47.43-47.43h-208.7c-26.15,0-47.43,21.28-47.43,47.43h-18.97V35.61
		c0-15.69-12.77-28.46-28.46-28.46H36.55c-5.24,0-9.49,4.25-9.49,9.49v37.95c0,5.24,4.25,9.49,9.49,9.49h47.43
		c3.33,0,6.52-0.58,9.49-1.63v1.63c0,5.24,4.25,9.49,9.49,9.49h28.46v75.89c0,0.15,0.02,0.29,0.02,0.43c0.01,0.12,0,0.23,0.01,0.35
		l16.66,201.55c-22.19,13.26-37.09,37.51-37.09,65.19c0,41.85,34.05,75.89,75.89,75.89c38.63,0,70.59-29.02,75.28-66.41h96.9v37.95
		c0,15.69,12.77,28.46,28.46,28.46s28.46-12.77,28.46-28.46v-84.99c0,0,18.93-229.11,18.94-229.18c0.02-0.26,0.03-0.52,0.03-0.78
		V73.55h28.46c5.24,0,9.49-4.25,9.49-9.49S468.69,54.58,463.45,54.58z M83.99,45.09H46.04V26.12h37.95c5.23,0,9.49,4.26,9.49,9.49
		S89.22,45.09,83.99,45.09z M186.91,473.88c-31.39,0-56.92-25.53-56.92-56.92s25.53-56.92,56.92-56.92s56.92,25.53,56.92,56.92
		S218.3,473.88,186.91,473.88z M397.04,464.39c0,5.23-4.26,9.49-9.49,9.49s-9.49-4.26-9.49-9.49v-37.95h18.97V464.39z
		 M397.04,407.48H262.19c-0.83-6.63-2.51-12.99-4.94-18.97h139.79V407.48z M397.79,369.53H246.1
		c-13.92-17.33-35.27-28.46-59.18-28.46c-7.08,0-13.92,0.99-20.42,2.81l-15.29-184.95H415.2L397.79,369.53z M416.01,97.27h-94.86
		c-5.23,0-9.49,4.26-9.49,9.49c0,5.23,4.26,9.49,9.49,9.49h94.86v23.72H150.39v-23.72h94.86c5.23,0,9.49-4.26,9.49-9.49
		c0-5.23-4.26-9.49-9.49-9.49h-94.86V73.55h265.62V97.27z M150.39,54.58c0-15.69,12.77-28.46,28.46-28.46h208.7
		c15.69,0,28.46,12.77,28.46,28.46H150.39z"/>
	<path d="M266.11,203.47c4.42,2.81,10.28,1.5,13.09-2.92c1.22-1.91,3.03-2.2,4-2.2c0.97,0,2.79,0.29,4,2.2l28.43,44.76l-10.19-2.72
		c-5.06-1.35-10.26,1.66-11.61,6.72c-1.35,5.06,1.65,10.26,6.72,11.61l32.4,8.66c2.42,0.65,5.03,0.3,7.2-0.95
		c2.18-1.26,3.77-3.33,4.42-5.76l8.66-32.4c1.35-5.06-1.65-10.26-6.72-11.61c-5.06-1.35-10.26,1.65-11.61,6.72l-2.76,10.33
		l-28.9-45.51c-4.38-6.89-11.86-11-20.02-11c-8.16,0-15.65,4.11-20.02,11C260.37,194.8,261.68,200.66,266.11,203.47z"/>
	<path d="M351.94,302.48c1.36,2.14,0.56,4.09,0.15,4.83c-0.41,0.74-1.63,2.46-4.16,2.46h-66.65l7.21-7.21c3.7-3.7,3.7-9.71,0-13.42
		c-3.7-3.7-9.71-3.7-13.42,0l-23.72,23.72c-3.7,3.7-3.7,9.71,0,13.42c0,0,23.68,23.68,23.72,23.72c3.56,3.56,9.75,3.66,13.42,0
		c3.7-3.7,3.7-9.71,0-13.42l-7.84-7.84h67.28c8.65,0,16.62-4.71,20.78-12.29c4.17-7.58,3.87-16.83-0.76-24.14
		c-2.81-4.42-8.67-5.73-13.09-2.92C350.44,292.19,349.13,298.06,351.94,302.48z"/>
	<path d="M218.47,328.74c5.24,0,9.49-4.25,9.49-9.49c0-5.24-4.25-9.49-9.49-9.49c-2.53,0-3.75-1.72-4.16-2.46
		c-0.41-0.74-1.2-2.69,0.15-4.83l32.24-50.76c0,0,3.16,10.72,3.16,10.73c1.46,4.95,6.85,7.87,11.78,6.42
		c5.03-1.48,7.9-6.76,6.42-11.78l-9.48-32.17c-0.71-2.41-2.35-4.45-4.56-5.65c-2.21-1.2-4.81-1.48-7.22-0.77l-32.17,9.48
		c-5.03,1.48-7.9,6.76-6.42,11.78c1.48,5.03,6.76,7.9,11.78,6.42l9.54-2.81l-31.08,48.95c-4.64,7.3-4.93,16.55-0.76,24.14
		S209.82,328.74,218.47,328.74z"/>
</g>
</svg>
