<?xml version="1.0" encoding="utf-8"?>
<!-- Generator: Adobe Illustrator 23.0.1, SVG Export Plug-In . SVG Version: 6.00 Build 0)  -->
<svg version="1.1" id="Layer_1" xmlns="http://www.w3.org/2000/svg" xmlns:xlink="http://www.w3.org/1999/xlink" x="0px" y="0px"
	 viewBox="0 0 70 70" style="enable-background:new 0 0 70 70;" xml:space="preserve">
<g>
	<path d="M35,33.73c4.58,0,8.55-1.64,11.79-4.88c3.24-3.24,4.88-7.21,4.88-11.79c0-4.58-1.64-8.54-4.88-11.79
		C43.55,2.04,39.58,0.39,35,0.39c-4.58,0-8.55,1.64-11.79,4.88s-4.88,7.21-4.88,11.79c0,4.58,1.64,8.55,4.88,11.79
		C26.46,32.09,30.42,33.73,35,33.73z"/>
	<path d="M63.73,53.61c-0.09-1.35-0.28-2.82-0.56-4.37c-0.28-1.57-0.64-3.04-1.08-4.4c-0.45-1.4-1.06-2.78-1.81-4.1
		c-0.78-1.37-1.7-2.57-2.73-3.55c-1.08-1.03-2.39-1.86-3.92-2.46c-1.52-0.6-3.2-0.9-5-0.9c-0.71,0-1.39,0.29-2.71,1.15
		c-0.81,0.53-1.76,1.14-2.82,1.82c-0.91,0.58-2.13,1.12-3.65,1.61c-1.48,0.48-2.98,0.72-4.47,0.72c-1.48,0-2.99-0.24-4.47-0.72
		c-1.52-0.49-2.74-1.03-3.65-1.61c-1.05-0.67-2-1.28-2.82-1.82c-1.32-0.86-2-1.15-2.71-1.15c-1.8,0-3.48,0.3-5,0.91
		c-1.52,0.6-2.84,1.43-3.92,2.46c-1.03,0.98-1.95,2.18-2.72,3.55c-0.75,1.32-1.36,2.7-1.81,4.1c-0.43,1.35-0.79,2.83-1.08,4.4
		c-0.28,1.55-0.47,3.02-0.56,4.37c-0.09,1.32-0.14,2.7-0.14,4.09c0,3.61,1.15,6.54,3.41,8.69c2.24,2.13,5.2,3.21,8.8,3.21h33.33
		c3.6,0,6.56-1.08,8.79-3.21c2.27-2.16,3.41-5.08,3.41-8.7C63.87,56.31,63.82,54.93,63.73,53.61z"/>
</g>
</svg>
