<?xml version="1.0" encoding="utf-8"?>
<!-- Generator: Adobe Illustrator 23.0.1, SVG Export Plug-In . SVG Version: 6.00 Build 0)  -->
<svg version="1.1" id="Layer_1" xmlns="http://www.w3.org/2000/svg" xmlns:xlink="http://www.w3.org/1999/xlink" x="0px" y="0px"
	 viewBox="0 0 70 70" style="enable-background:new 0 0 70 70;" xml:space="preserve">
<g>
	<g>
		<path d="M69,33.66c-0.61-0.84-15.27-20.6-33.98-20.6S1.66,32.82,1.04,33.66c-0.58,0.8-0.58,1.88,0,2.68
			c0.61,0.84,15.27,20.6,33.98,20.6S68.39,37.18,69,36.34C69.59,35.54,69.59,34.46,69,33.66z M35.02,52.4
			C21.24,52.4,9.3,39.29,5.77,35c3.53-4.29,15.44-17.4,29.26-17.4c13.78,0,25.72,13.11,29.26,17.4
			C60.75,39.29,48.84,52.4,35.02,52.4z"/>
	</g>
</g>
<g>
	<g>
		<path d="M35.02,21.38c-7.51,0-13.62,6.11-13.62,13.62s6.11,13.62,13.62,13.62S48.64,42.51,48.64,35S42.53,21.38,35.02,21.38z
			 M35.02,44.08c-5.01,0-9.08-4.07-9.08-9.08s4.07-9.08,9.08-9.08c5.01,0,9.08,4.07,9.08,9.08S40.03,44.08,35.02,44.08z"/>
	</g>
</g>
</svg>
