<svg id="Layer_1" data-name="Layer 1" xmlns="http://www.w3.org/2000/svg" width="70" height="70" viewBox="0 0 70 70">
  <defs>
    <style>
      .cls-1 {
        fill: #96b2cb;
      }
    </style>
  </defs>
  <title>window</title>
  <g>
    <path class="cls-1" d="M35,5.3A21.9,21.9,0,0,0,13.2,27.2V64a.9.9,0,0,0,1,1H55.9a.9.9,0,0,0,1-1V27.2A21.9,21.9,0,0,0,35,5.3ZM20.6,13.6l12,12.5H15.2A20.3,20.3,0,0,1,20.6,13.6ZM34,63H15.2V46.6H34Zm0-18.4H15.2V28.2H34V44.6Zm0-20L22.2,12.1A20.3,20.3,0,0,1,34,7.3Zm20.8,1.5H37.5l12-12.5A18.9,18.9,0,0,1,54.8,26.1ZM36.1,7.3a18.9,18.9,0,0,1,11.8,4.8L36.1,24.6ZM54.9,63H36.1V46.6H54.9Zm0-18.4H36.1V28.2H54.9Z"/>
    <path class="cls-1" d="M53.7,8A26,26,0,0,0,35,.6C20.6.6,9.4,11,8.6,24.9V68.4a1,1,0,0,0,1,1H60.3a.9.9,0,0,0,1-1V24.9A25.7,25.7,0,0,0,53.7,8Zm5.7,59.5H10.8V25C11.3,12.2,21.9,2.6,35,2.6,46.4,2.6,58.7,11,59.4,25Z"/>
  </g>
</svg>
