<svg id="Layer_1" data-name="Layer 1" xmlns="http://www.w3.org/2000/svg" width="70" height="70" viewBox="0 0 70 70">
  <defs>
    <style>
      .cls-1 {
        fill: #96b2cb;
      }
    </style>
  </defs>
  <title>window_cleaner</title>
  <g>
    <path class="cls-1" d="M52.1,25l-1.3-.8V20.6h0a1.4,1.4,0,0,0,1.4-1.4V10.6a10,10,0,0,0-10-10H26.4a2.8,2.8,0,0,0-2.9,2.8H20.6a2.9,2.9,0,0,0-2.8,2.9V9.2A2.9,2.9,0,0,0,20.6,12h2.9a2.9,2.9,0,0,0,2.9,2.9H28l-4.2,6.4a1.4,1.4,0,0,0-.1,1.5,1.4,1.4,0,0,0,1.3.7h2.8a1.6,1.6,0,0,0,.9-.3l9.2-6.9v2.9a1.4,1.4,0,0,0,1.4,1.4v3.6h-.1c-5.4,3.6-9.9,6.7-9.9,29.4v10A5.6,5.6,0,0,0,35,69.4H55.1a5.6,5.6,0,0,0,5.7-5.7v-10C60.8,31.3,57.5,28.2,52.1,25ZM23.5,9.2H20.6V6.3h2.9V9.2Zm4.4,11,3.6-5.3H35ZM26.4,12V3.4H42.2a7.2,7.2,0,0,1,7.2,7.2v7.2H40.7V13.5A1.5,1.5,0,0,0,39.3,12ZM40.8,26.7l.8-.6a1.5,1.5,0,0,0,.6-1.1V20.6h5.7V25a1.3,1.3,0,0,0,.6,1.1l2.1,1.3c3.4,2,6.1,3.7,7.1,16.2H32.5C33.6,31.6,36.8,29.3,40.8,26.7ZM58,63.7a2.9,2.9,0,0,1-2.9,2.9H35a2.9,2.9,0,0,1-2.9-2.9V60.8H58ZM58,58H32.1V53.7c0-2.7.1-5.1.2-7.2H57.8c.1,2.1.2,4.5.2,7.2V58Z"/>
    <path class="cls-1" d="M14.9,7.7a1.4,1.4,0,0,0-1.4-1.4H10.6A1.4,1.4,0,0,0,9.2,7.7a1.5,1.5,0,0,0,1.4,1.5h2.9A1.5,1.5,0,0,0,14.9,7.7Z"/>
    <path class="cls-1" d="M11.4,3.3l2.9,1.4.6.2a1.6,1.6,0,0,0,1.3-.8,1.5,1.5,0,0,0-.7-2L12.7.7a1.4,1.4,0,0,0-1.9.6A1.5,1.5,0,0,0,11.4,3.3Z"/>
    <path class="cls-1" d="M14.3,10.8l-2.9,1.4a1.4,1.4,0,0,0-.6,1.9,1.3,1.3,0,0,0,1.2.8h.7l2.8-1.5a1.4,1.4,0,1,0-1.2-2.5Z"/>
  </g>
</svg>
