<svg id="Layer_1" data-name="Layer 1" xmlns="http://www.w3.org/2000/svg" width="70" height="70" viewBox="0 0 70 70">
  <defs>
    <style>
      .cls-1 {
        fill: #96b2cb;
      }
    </style>
  </defs>
  <title>worker</title>
  <g>
    <path class="cls-1" d="M23.9,2.9a3.3,3.3,0,0,0-3.3,3.3V7.3H13.7L9.6,10.1V.7H.7V69.3H9.6V59.9l4.1,2.8h6.9v1.1a3.4,3.4,0,0,0,6.7,0V54.9a3.4,3.4,0,0,0-6.7,0V56H13.7L9.6,58.7V35.6l4.1,2.7h6.9v1.1a3.4,3.4,0,0,0,6.7,0V30.6a3.4,3.4,0,0,0-6.7,0v1.1H13.7L9.6,34.4V11.3L13.7,14h6.9v1.1a3.4,3.4,0,0,0,6.7,0V6.2A3.4,3.4,0,0,0,23.9,2.9ZM7.3,67.1H2.9V2.9H7.3ZM22.8,54.9a1.1,1.1,0,1,1,2.2,0v8.9a1.1,1.1,0,1,1-2.2,0ZM20,58.2h.6v2.2H17.8Zm-5.7,0h2.5l-2.2,2.2h-.3l-1.6-1.1Zm8.5-27.6a1.1,1.1,0,1,1,2.2,0v8.8a1.1,1.1,0,0,1-2.2,0ZM20,33.9h.6v2.2H17.8Zm-5.7,0h2.5l-2.2,2.2h-.3L12.7,35Zm.3-22.1h-.3l-1.6-1.1,1.6-1.1h2.5Zm6,0H17.8L20,9.6h.6ZM25,15.1a1.1,1.1,0,0,1-2.2,0V6.2a1.1,1.1,0,1,1,2.2,0Z"/>
    <path class="cls-1" d="M65.4,5A14.2,14.2,0,0,0,53.8.8c-2.2.4-4.4.8-6.2,2.3l-.5.4a6.7,6.7,0,0,1-7.2.6L33.4,2l-.9-.2a3,3,0,0,0-3,3v9.5a2.9,2.9,0,0,0,3,3,1.5,1.5,0,0,0,.9-.2l6.2-2h4.2a2.2,2.2,0,0,1,2.3,2.2V41.6H45V66a3.3,3.3,0,0,0,3.3,3.3h6.6A3.3,3.3,0,0,0,58.2,66V41.6H57.1V17.3a2.2,2.2,0,0,1,2.2-2.2c2.6,0,4.5,4.4,5.2,5.9a2.3,2.3,0,0,0,2.2,1.4,2.5,2.5,0,0,0,2.4-2.3C70.2,9.4,66.1,5.5,65.4,5ZM38.3,13.2,32.7,15a.7.7,0,0,1-1-.7V4.8a.7.7,0,0,1,1-.7l5.6,1.8ZM56,66a1.1,1.1,0,0,1-1.1,1.1H48.3A1.1,1.1,0,0,1,47.2,66V48.3H56Zm0-19.9H47.2V43.8H56Zm-7.7-4.5V17.3h6.6V41.6ZM66.9,19.8c0,.3-.3.6-.4.2s-3.2-7.1-7.2-7.1a4.5,4.5,0,0,0-3.8,2.2H47.7a4.5,4.5,0,0,0-3.9-2.2H40.5V6.7a9.2,9.2,0,0,0,8-1.4l.5-.4A9.9,9.9,0,0,1,54.1,3a12.3,12.3,0,0,1,9.8,3.6H64C64.1,6.7,67.9,9.9,66.9,19.8Z"/>
    <rect class="cls-1" x="50.5" y="19.5" width="2.2" height="15.48"/>
    <rect class="cls-1" x="50.5" y="37.2" width="2.2" height="2.21"/>
  </g>
</svg>
