<svg xmlns="http://www.w3.org/2000/svg" width="42.557" height="40" viewBox="0 0 42.557 40">
  <g id="Group_4485" data-name="Group 4485" transform="translate(-62.665 -46)">
    <g id="Group_4483" data-name="Group 4483" transform="translate(62.665 46)">
      <path id="Path_9124" data-name="Path 9124" d="M94.154,78.935C109.944,66.8,106.644,56.4,95.487,55.5c4.847-.832,8.976.086,11.166,2.938,4.233,5.509-.369,16.151-10.276,23.764S75,91.517,70.767,86.008c-2.191-2.851-2.015-7.077.037-11.546-4.551,12.5,9.55,15.076,23.35,4.473Z" transform="translate(-65.67 -50.236)" fill="#48b6ad" fill-rule="evenodd"/>
      <path id="Path_9125" data-name="Path 9125" d="M89.483,69.1a3.963,3.963,0,0,1,1.833-1.554l-.094-.293-.35-1.086,1.88-.607L93.216,67a3.706,3.706,0,0,1,1.27,0,3.193,3.193,0,0,1,2.7,2.219l-2.047.661a1.477,1.477,0,0,0-.543-.744,1.811,1.811,0,0,0-.779-.282l.836,2.59a6.116,6.116,0,0,1,1.288-.1,4.648,4.648,0,0,1,1.187.133,2.531,2.531,0,0,1,1.667,1.649l.115.355a3.1,3.1,0,0,1-.314,2.472,4.466,4.466,0,0,1-1.959,1.629l.337,1.044-1.879.607-.344-1.065a3.9,3.9,0,0,1-3.532-.866,3.061,3.061,0,0,1-.724-1.173l-.067-.209,1.963-.634c.037-.012.6.751.735.847a1.572,1.572,0,0,0,1.046.239l-.89-2.757a7.53,7.53,0,0,1-1.235.063,3.065,3.065,0,0,1-2.56-4.586Zm12.694,8.726q-2.065-7.031.118-20.022l-.453-.036L84.359,65.42q.918,11.858,6.8,18.983a34.5,34.5,0,0,0,9.28-5.189c.57-.439,1.152-.9,1.735-1.391Z" transform="translate(-72.651 -51.416)" fill="#48b6ad" fill-rule="evenodd"/>
      <path id="Path_9126" data-name="Path 9126" d="M73.332,59.544,87.168,53.07l-.453-4.123L69.039,57.5c.076,7.313,2.585,13.9,7.546,21.027-5.814-7.586-8.812-13.846-8.969-21.653l14.4-6.826L81.31,46,62.665,53.71a45.333,45.333,0,0,0,5.638,15.5l.662,1.139a45.681,45.681,0,0,0,7.63,9.739q.385-.045.747-.1a21.481,21.481,0,0,0,3.132-.758c-3.9-4.345-6.368-10.634-7.141-19.679Z" transform="translate(-62.665 -46)" fill="#9fdfda" fill-rule="evenodd"/>
      <path id="Path_9127" data-name="Path 9127" d="M111.7,106.071a40,40,0,0,1-7.861,4.742q.6.421,1.24.813-.717-.351-1.4-.741-1.329.591-2.7,1.061c5.361,2.355,11.154,1.688,16.6-4.35a9.5,9.5,0,0,1-4.675-2.487q-.6.5-1.206.962Z" transform="translate(-80.302 -73.208)" fill="#48b6ad" fill-rule="evenodd"/>
      <path id="Path_9128" data-name="Path 9128" d="M90.228,69.456,86.09,71.268a47.574,47.574,0,0,0,.606,4.78,16.951,16.951,0,0,1,.388-4.265,13,13,0,0,1,3.144-2.327Z" transform="translate(-73.448 -56.797)" fill="#1dacdb" fill-rule="evenodd"/>
    </g>
    <path id="Path_9129" data-name="Path 9129" d="M101.605,65.565l-8.5,2.1-3.185,4.383,2.069,12.665h4.646l6.045-4.646Z" transform="translate(-12.547 -9.006)" fill="#48b6ad" fill-rule="evenodd"/>
    <g id="Group_4484" data-name="Group 4484" transform="translate(80.209 64.02)">
      <path id="Path_9130" data-name="Path 9130" d="M95.173,79.976a7.726,7.726,0,0,1,1.361-.458,2.365,2.365,0,0,1,1.736.059,1.438,1.438,0,0,1,.7.957,1.517,1.517,0,0,1-.706,1.691l.006.025a1.443,1.443,0,0,1,1.1.93,9.156,9.156,0,0,0,.811,1.434l-.749.184a7.454,7.454,0,0,1-.7-1.249c-.357-.733-.728-.951-1.392-.815l-.682.168.6,2.431-.725.178Zm1.351,2.378.741-.182c.774-.19,1.161-.735,1-1.376-.178-.724-.78-.912-1.548-.732a3.058,3.058,0,0,0-.7.242Z" transform="translate(-95.173 -79.389)" fill="#fff"/>
      <path id="Path_9131" data-name="Path 9131" d="M104.873,84.16a1.981,1.981,0,0,0,1.038.054c.533-.131.717-.458.635-.791-.086-.35-.341-.491-.931-.558-.788-.08-1.227-.4-1.346-.879a1.279,1.279,0,0,1,1.1-1.523,2.065,2.065,0,0,1,1.052.006l-.052.578a1.624,1.624,0,0,0-.882-.031c-.432.106-.613.416-.539.715.081.333.361.424.933.495.765.095,1.208.357,1.356.956.173.708-.253,1.342-1.211,1.578a2.369,2.369,0,0,1-1.2,0Z" transform="translate(-99.344 -79.854)" fill="#fff"/>
    </g>
  </g>
</svg>
