<svg xmlns="http://www.w3.org/2000/svg" width="24.258" height="24.258" viewBox="0 0 24.258 24.258">
  <g id="Group_632" data-name="Group 632" transform="translate(0)">
    <g id="Group_316" data-name="Group 316" transform="translate(0 0)">
      <path id="Path_1862" data-name="Path 1862" d="M665.549,333.927a12.129,12.129,0,1,0-14.024,11.982v-8.475h-3.08v-3.506h3.08v-2.672c0-3.039,1.811-4.718,4.581-4.718a18.686,18.686,0,0,1,2.715.237v2.985h-1.53a1.753,1.753,0,0,0-1.977,1.894v2.275h3.364l-.538,3.506h-2.826v8.475A12.132,12.132,0,0,0,665.549,333.927Z" transform="translate(-641.291 -321.798)" fill="#0667b1"/>
      <path id="Path_1863" data-name="Path 1863" d="M661.422,339.606l.538-3.506H658.6v-2.275a1.753,1.753,0,0,1,1.977-1.894h1.53v-2.985a18.686,18.686,0,0,0-2.715-.237c-2.771,0-4.581,1.679-4.581,4.718V336.1h-3.08v3.506h3.08v8.475a12.255,12.255,0,0,0,3.79,0v-8.475Z" transform="translate(-644.572 -323.971)" fill="#fff"/>
    </g>
  </g>
</svg>
