<svg id="Group_634" data-name="Group 634" xmlns="http://www.w3.org/2000/svg" width="24.258" height="24.258" viewBox="0 0 24.258 24.258">
  <ellipse id="Ellipse_39" data-name="Ellipse 39" cx="12.129" cy="12.129" rx="12.129" ry="12.129" transform="translate(0 0)" fill="#06a"/>
  <g id="Group_319" data-name="Group 319" transform="translate(5.772 5.787)">
    <path id="Path_1865" data-name="Path 1865" d="M649.712,292h2.638v8.473h-2.638Zm1.319-4.211a1.527,1.527,0,1,1-1.529,1.526,1.527,1.527,0,0,1,1.529-1.526" transform="translate(-649.502 -287.787)" fill="#fff"/>
    <path id="Path_1866" data-name="Path 1866" d="M656.066,293.833h2.526v1.159h.034a2.77,2.77,0,0,1,2.494-1.368c2.667,0,3.159,1.754,3.159,4.035v4.648h-2.632v-4.12c0-.983-.019-2.247-1.369-2.247-1.371,0-1.58,1.07-1.58,2.175v4.192h-2.633Z" transform="translate(-651.566 -289.622)" fill="#fff"/>
  </g>
</svg>
