<svg xmlns="http://www.w3.org/2000/svg" width="36" height="20.186" viewBox="0 0 36 20.186">
  <g id="money-svgrepo-com_1_" data-name="money-svgrepo-com (1)" transform="translate(0 -65.232)">
    <g id="Group_637" data-name="Group 637" transform="translate(0 65.232)">
      <g id="Group_636" data-name="Group 636">
        <path id="Path_1895" data-name="Path 1895" d="M34.8,65.232H1.2A1.2,1.2,0,0,0,0,66.43V84.22a1.2,1.2,0,0,0,1.2,1.2H34.8a1.2,1.2,0,0,0,1.2-1.2V66.43A1.2,1.2,0,0,0,34.8,65.232ZM2.4,67.628H6.212L2.4,71.444V67.628Zm0,15.394V79.206l3.816,3.816Zm31.208,0H29.787L33.6,79.206Zm0-7.205L26.4,83.022H9.6L2.4,75.817v-.984l7.205-7.2H26.4l7.205,7.2Zm0-4.373-3.816-3.816H33.6Z" transform="translate(0 -65.232)" fill="#32bcad"/>
        <path id="Path_1896" data-name="Path 1896" d="M99.861,93.152a6.709,6.709,0,1,0,6.709,6.709A6.716,6.716,0,0,0,99.861,93.152Zm0,11.022a4.313,4.313,0,1,1,4.313-4.313A4.318,4.318,0,0,1,99.861,104.174Z" transform="translate(-81.861 -89.768)" fill="#32bcad"/>
      </g>
    </g>
  </g>
</svg>
