<svg id="Group_631" data-name="Group 631" xmlns="http://www.w3.org/2000/svg" width="24.258" height="24.258" viewBox="0 0 24.258 24.258">
  <ellipse id="Ellipse_37" data-name="Ellipse 37" cx="12.129" cy="12.129" rx="12.129" ry="12.129" transform="translate(0 0)" fill="#00ade5"/>
  <path id="Path_1861" data-name="Path 1861" d="M662.715,375.28a5.457,5.457,0,0,1-1.338.381c.215-.036.531-.426.658-.583a2.446,2.446,0,0,0,.444-.81c.012-.023.021-.052,0-.069a.075.075,0,0,0-.071.006,6.846,6.846,0,0,1-1.586.607.107.107,0,0,1-.11-.029,1.247,1.247,0,0,0-.138-.142,2.781,2.781,0,0,0-.769-.471,2.671,2.671,0,0,0-1.178-.19,2.817,2.817,0,0,0-1.118.316,2.882,2.882,0,0,0-.9.736,2.766,2.766,0,0,0-.539,1.079,2.936,2.936,0,0,0-.029,1.139c.009.064,0,.073-.054.064a8.473,8.473,0,0,1-5.451-2.774c-.064-.073-.1-.073-.15.005a2.763,2.763,0,0,0,.471,3.266c.107.1.217.2.335.295a2.786,2.786,0,0,1-1.052-.295c-.064-.04-.1-.017-.1.055a1.63,1.63,0,0,0,.017.312,2.8,2.8,0,0,0,1.722,2.228,1.689,1.689,0,0,0,.35.107,3.123,3.123,0,0,1-1.031.032c-.075-.014-.1.023-.075.1a2.9,2.9,0,0,0,2.167,1.815c.1.017.2.017.295.04-.005.009-.012.009-.017.017a3.435,3.435,0,0,1-1.48.785,5.3,5.3,0,0,1-2.247.287c-.121-.018-.147-.016-.18,0s0,.049.035.081c.153.1.309.191.468.278a7.423,7.423,0,0,0,1.5.6,8,8,0,0,0,7.77-1.817,8.155,8.155,0,0,0,2.15-5.948c0-.086.1-.133.161-.178a5.259,5.259,0,0,0,1.058-1.1.336.336,0,0,0,.07-.211v-.011C662.77,375.245,662.769,375.256,662.715,375.28Z" transform="translate(-643.885 -367.307)" fill="#fff"/>
</svg>
