<svg xmlns="http://www.w3.org/2000/svg" width="24.258" height="24.258" viewBox="0 0 24.258 24.258">
  <g id="Group_633" data-name="Group 633" transform="translate(0)">
    <ellipse id="Ellipse_38" data-name="Ellipse 38" cx="12.129" cy="12.129" rx="12.129" ry="12.129" transform="translate(0 0)" fill="#e61222"/>
    <path id="Path_1864" data-name="Path 1864" d="M662.367,420.528a2.912,2.912,0,0,0-2.912-2.912h-7.447a2.912,2.912,0,0,0-2.912,2.912v3.466a2.912,2.912,0,0,0,2.912,2.912h7.447a2.912,2.912,0,0,0,2.912-2.912Zm-4.38,1.992-3.34,1.652c-.131.071-.576-.024-.576-.173v-3.392c0-.151.448-.245.579-.171l3.2,1.739C657.982,422.253,658.123,422.447,657.987,422.521Z" transform="translate(-643.745 -410.132)" fill="#fff"/>
  </g>
</svg>
